<?xml version="1.0" encoding="UTF-8"?>
<svg id="Layer_1" data-name="Layer 1" xmlns="http://www.w3.org/2000/svg" viewBox="0 0 2000 2000">
  <defs>
    <style>
      .cls-1 {
        fill: #fccf3b;
        stroke-width: 0px;
      }
    </style>
  </defs>
  <path class="cls-1" d="m24.76,1231.34c-6.9-8.25-12.73-21.98-17.54-41.27-4.84-19.25-7.22-39.89-7.22-61.91,0-49.54,12.38-100.77,37.15-153.76,24.76-52.94,60.17-105.56,106.28-157.88,46.07-52.27,101.8-102.82,167.16-151.68,65.32-48.82,138.59-94.56,219.79-137.24,35.76-19.25,74.97-37.46,117.63-54.69,42.62-17.18,84.61-33.34,125.89-48.49,23.38-8.25,46.76-15.8,70.16-22.7,23.38-6.86,40.56-11.67,51.6-14.45,6.86-2.75,10.32-4.8,10.32-6.19h2.06c1.36,0,2.39-.33,3.1-1.03.68-.69,1.71-1.03,3.1-1.03,6.86,0,11.67-.69,14.45-2.06,5.48-2.75,9.61-4.13,12.38-4.13,1.36,0,5.16-.67,11.35-2.06,6.19-1.36,13.06-3.11,20.63-5.16,7.55-2.06,14.77-3.78,21.67-5.16,6.87-1.36,11.67-2.73,14.45-4.12,1.36-1.36,4.13-2.06,8.25-2.06,6.86-1.36,13.42-2.75,19.6-4.13,6.19-1.36,9.96-2.06,11.35-2.06,1.36-1.36,5.48-2.08,12.38-2.08,30.25-1.34,47.47-4.12,51.6-8.25,1.36-1.36,2.07-1.36,2.07,0,0,4.13,1.35,4.84,4.13,2.08h46.43c10.32,0,19.6.34,27.86,1.03,8.25.7,13.06,1.73,14.45,3.09,2.74,0,4.8-.67,6.19-2.06,2.74-2.75,3.42-2.75,2.06,0,0,2.78,3.42,4.84,10.32,6.19,8.25,2.76,12.38,3.45,12.38,2.06,2.75,0,4.13.7,4.13,2.06,0,2.78,4.13,4.13,12.39,4.13,6.86,1.39,12.38,2.42,16.51,3.09,4.13.72,6.86,1.03,8.25,1.03l2.07,2.08c6.86,2.76,13.74,6.18,20.63,10.31,2.74,5.51,4.13,6.19,4.13,2.06-1.39-1.36-1.74-2.06-1.03-2.06s2.39,1.39,5.16,4.13c16.52,13.76,24.06,20.63,22.7,20.63-2.77,0-1.38,2.78,4.13,8.25,1.36,2.78,2.75,5.52,4.13,8.25,1.36,2.78,2.07,4.84,2.07,6.19l4.13,8.25c2.74,0,4.8,7.22,6.19,21.67,1.35,14.45,1.35,27.18,0,38.18,0,5.52-.36,11.36-1.04,17.55-.7,6.18-1.03,10.67-1.03,13.4-1.39,4.13-2.06,8.97-2.06,14.45-1.39,1.39-2.07,3.11-2.07,5.16s-.71,3.81-2.07,5.16c0,4.12-1.38,7.57-4.13,10.31-1.38,1.39-2.06,2.78-2.06,4.12,1.36,1.39-2.07,12.39-10.32,33.03-2.77,5.51-4.13,9.64-4.13,12.37-1.39,2.78-3.45,7.22-6.19,13.42-2.77,6.19-4.83,9.28-6.19,9.28s-2.07.72-2.07,2.08c0,2.76-2.42,8.96-7.22,18.57-4.84,9.64-8.6,15.84-11.35,18.58l-4.13,8.25c1.36,1.39-.71,4.84-6.19,10.31-1.39,1.39-2.07,2.78-2.07,4.13s-.71,2.06-2.06,2.06v6.19c-2.78,5.51-4.13,8.96-4.13,10.31l-4.13,4.13c-1.38,0-2.06,1.37-2.06,4.12l-8.25,12.39-4.13,8.25c-1.39,1.39-2.07,2.78-2.07,4.12,0,2.78,4.13-3.09,12.38-17.54,8.25-14.45,24.06-39.53,47.47-75.33,10.99-17.86,19.92-32.67,26.83-44.37,6.86-11.67,10.32-16.83,10.32-15.48,0,2.78-4.49,12.06-13.42,27.87-8.96,15.84-19.96,35.09-33.02,57.79-13.09,22.7-27.86,47.13-44.36,73.25-16.52,26.15-33.02,51.6-49.53,76.36-12.39,19.29-24.09,37.15-35.09,53.66-11.02,16.52-17.9,27.54-20.63,33.03-5.52,9.64-13.09,23.4-22.7,41.27-9.64,17.9-19.29,35.79-28.9,53.66-9.64,17.9-20.63,39.93-33.01,66.04h61.91c17.86,0,36.44-.69,55.72-2.06,19.24,0,38.5-.33,57.78-1.05,19.25-.67,32.31-.31,39.21,1.05h111.45l20.63-49.54c16.51-38.51,34.73-79.1,54.69-121.76,19.93-42.62,40.92-85.3,62.95-127.95,21.99-42.62,44.37-83.58,67.07-122.79,22.7-39.21,44.36-75.33,65.01-108.34,15.13-20.64,29.21-39.89,42.31-57.79,13.06-17.86,20.96-28.18,23.73-30.95,2.75-2.75,1.71.36-3.1,9.28-4.83,8.97-9.99,16.87-15.48,23.73-9.64,12.39-19.6,26.51-29.92,42.31-10.31,15.84-14.8,24.43-13.41,25.79,0,1.39-.71,2.08-2.07,2.08s-6.55,6.9-15.48,20.63c-8.96,13.78-19.6,30.95-31.98,51.6-12.38,20.64-24.77,41.99-37.15,63.98-12.38,22.01-22.02,39.91-28.9,53.66l-4.13,8.25,6.19-4.13c4.13-4.12,6.19-8.25,6.19-12.37,2.74-5.49,5.48-9.61,8.25-12.39,1.36-1.36,2.39-3.09,3.1-5.16.67-2.06,1.71-4.45,3.09-7.22,0-1.36.68-3.09,2.07-5.15,1.36-2.08,2.74-4.46,4.13-7.22,13.74-20.64,21.99-35.09,24.77-43.34,0-1.36.32-2.06,1.03-2.06s1.03-.69,1.03-2.08l2.07-2.06c2.74,0,4.13-1.36,4.13-4.12,0-1.36,1.36-3.43,4.13-6.19,2.74-2.75,5.48-7.55,8.25-14.45,2.74-6.86,6.51-13.42,11.35-19.61,4.8-6.19,9.28-12.03,13.42-17.54,0-1.36,1.35-3.42,4.13-6.19l2.06-2.06c0-1.36,2.07-5.49,6.19-12.39,16.51-19.25,24.76-32.31,24.76-39.21,0-1.36,1.36-2.06,4.13-2.06,1.36,0,6.87-6.52,16.52-19.61,9.61-13.06,14.45-20.95,14.45-23.73,0-1.36.67-2.75,2.06-4.12l8.25-8.27c5.48-5.48,8.26-9.59,8.26-12.37l2.06-4.13c2.74,0,4.13-1.36,4.13-4.12,0-1.36,2.07-4.13,6.19-8.25,5.48-2.75,6.86-4.13,4.13-4.13l4.13-8.25,8.25-8.25c0-2.75,4.13-8.25,12.38-16.51,8.26-8.25,12.39-13.74,12.39-16.51s.68-4.13,2.06-4.13c2.75,0,4.13-1.36,4.13-4.12,0-1.36.68-2.75,2.07-4.13,1.36,1.39,5.48-1.36,12.38-8.25,6.87-6.86,9.61-11,8.25-12.39,0-2.73,6.19-6.86,18.57-12.37,0-2.75,1.36-4.13,4.13-4.13h4.13c-1.38,1.39.68,2.06,6.19,2.06s15.48,1.39,29.92,4.13c14.45,2.78,23.02,4.84,25.8,6.19,0,1.39,4.8,2.06,14.44,2.06s14.45,1.39,14.45,4.13c1.36,1.37,2.75,2.4,4.13,3.09,1.36.7,2.75,1.73,4.13,3.09,4.13,2.78,6.19,4.84,6.19,6.19-1.39,1.39-.71,4.13,2.07,8.25,2.74,2.78,4.13,8.25,4.13,16.51s-2.07,15.84-6.19,22.7c-2.77,5.52-5.52,8.25-8.25,8.25-1.39,0-1.39.72,0,2.08-1.39,0-2.07.7-2.07,2.06s-.7,2.78-2.06,4.13c-1.39,1.37-1.39,2.06,0,2.06,1.36-1.36,2.06-1.72,2.06-1.03s-1.38,1.73-4.13,3.09c-2.77,5.52-5.51,6.9-8.25,4.13v2.06c1.36,2.78.68,5.51-2.06,8.25-2.78,2.78-2.78,4.13,0,4.13,1.35,0,1.71.34,1.03,1.03-.71.7-2.42,1.03-5.16,1.03-4.13,4.12-6.19,7.57-6.19,10.31s-1.39,4.13-4.13,4.13c-1.39,1.39-2.78,2.06-4.13,2.06s-2.07.7-2.07,2.06,1.36,2.08,4.13,2.08l-6.19,4.12c-2.78,2.78-4.49,4.84-5.16,6.19-.71,1.39-.35,1.39,1.03,0,5.48-2.75,6.19-2.06,2.07,2.06,0,1.39-.71,2.06-2.07,2.06h-4.13c-2.77,0-4.13,2.08-4.13,6.19-1.38,1.39-2.06,2.78-2.06,4.13s-.71,2.06-2.07,2.06-2.06,1.39-2.06,4.13c-1.39,1.37-2.07,2.76-2.07,4.12-1.39,1.39-2.06,2.42-2.06,3.11s-.71,1.73-2.07,3.09c-2.77,2.78-4.13,4.84-4.13,6.19l-2.07,2.06v2.06l-4.13,2.08c-1.38,1.37-2.06,4.12-2.06,8.25,1.36,0,1.71.34,1.03,1.03-.71.7-1.74,1.03-3.1,1.03-2.77,0-5.52,2.78-8.25,8.25-4.13,6.9-6.9,10.31-8.25,10.31v4.13c0,2.78-.71,4.13-2.07,4.13-4.13,0-6.19,1.37-6.19,4.12s-.71,4.13-2.07,4.13l-2.06,2.06c-1.39,1.39-2.07,2.78-2.07,4.12-2.77,4.13-4.84,5.52-6.19,4.13-1.38,0-2.06,1.39-2.06,4.13,0,4.12-1.39,6.18-4.13,6.18l-2.07,2.08c0,1.37-.35,2.06-1.03,2.06s-1.03.7-1.03,2.06c0,2.78-3.46,7.58-10.32,14.45-5.52,5.51-8.25,9.64-8.25,12.39,1.36,1.39,1.36,2.06,0,2.06-2.78-2.75-4.13-1.36-4.13,4.13-1.39,1.37-2.07,2.76-2.07,4.12s-.71,2.06-2.06,2.06c-2.78-2.73-4.13-2.06-4.13,2.08,0,2.76-2.78,6.18-8.26,10.31-2.77,2.78-4.13,4.84-4.13,6.19-1.38,1.39-2.06,2.76-2.06,4.12,1.35,1.39.68,2.08-2.07,2.08l-2.06,4.12c0,1.39-.71,2.78-2.07,4.13-1.39,0-2.06.7-2.06,2.06,0,2.78-1.39,4.84-4.13,6.19l-2.06,2.06c2.74,0,0,4.84-8.25,14.45-4.13,4.12-6.19,7.58-6.19,10.31,0,1.39-2.77,5.52-8.25,12.39-5.52,6.9-9.64,11.03-12.38,12.39v4.12l2.06,2.06c2.75-2.73,7.22-8.56,13.42-17.54,6.19-8.92,12.38-17.86,18.57-26.82,6.19-8.94,14.09-20.97,23.73-36.12,0-2.75.68-3.42,2.06-2.08,2.75-5.48,6.87-10.98,12.39-16.51,4.13-5.48,8.57-11.67,13.41-18.57,4.8-6.86,10.64-13.74,17.54-20.64,17.86-24.76,35.76-48.15,53.66-70.16,17.86-22,34.05-42.31,48.5-60.88,14.45-18.58,26.83-34.06,37.15-46.43,10.31-12.39,17.54-20.64,21.66-24.78,6.87-6.86,8.26-6.5,4.13,1.05-4.13,7.57-13.09,18.93-26.83,34.04-15.15,17.9-32.7,39.57-52.63,65.01-19.96,25.46-40.24,51.94-60.88,79.45-20.63,27.54-40.95,55.04-60.88,82.55-19.96,27.54-37.5,52.3-52.62,74.3-27.54,37.15-51.28,71.19-71.2,102.15-19.96,30.95-31.31,48.51-34.05,52.63,0,4.13-1.39,6.19-4.13,6.19-1.39,0-3.46,3.45-6.19,10.31-1.39,6.91-6.19,14.45-14.45,22.7-1.38,1.39-2.06,2.78-2.06,4.13,1.35,1.39,0,4.84-4.13,10.31-2.78,2.78-4.13,4.84-4.13,6.19l-2.07,2.06c2.74,0,1.36,2.78-4.13,8.25-2.77,2.78-5.52,8.27-8.25,16.52-1.39,2.76-2.78,5.51-4.13,8.25-1.39,2.76-2.78,5.51-4.13,8.25-2.78,2.78-4.13,6.19-4.13,10.31l-6.19,6.19v2.06c1.36,0,.68,1.39-2.07,4.13l-4.13,8.25c-1.39,0-2.06.7-2.06,2.06s-.71,2.78-2.07,4.13l-4.13,8.25c0,1.39-1.39,3.45-4.13,6.19-4.13,4.12-4.13,6.9,0,8.25,1.36,1.39,1.36,2.06,0,2.06-2.77,0-4.13,1.39-4.13,4.13s-1.39,4.12-4.13,4.12v2.06c6.86,1.39,13.74,2.08,20.63,2.08h47.47c35.76-1.36,59.14-1.36,70.16,0,11,1.37,17.19,5.51,18.57,12.37,1.36,2.78,2.74,4.49,4.13,5.16,1.36.7,2.07-.33,2.07-3.09,0-1.36.68-2.08,2.06-2.08,1.36,1.39,2.75,2.42,4.13,3.11,1.36.7,2.75,1.73,4.13,3.09,11,8.25,11,15.15,0,20.64-2.77,1.39-6.9,2.06-12.38,2.06-4.13,0-6.19,1.39-6.19,4.13,0,1.37-.71,2.06-2.07,2.06,0-2.75-2.07-2.06-6.19,2.06-2.77,2.78-5.51,4.13-8.25,4.13s-4.13-1.36-4.13-4.13c-2.77-2.75-4.84-2.06-6.19,2.06-4.13,1.39-8.96,1.39-14.44,0-5.52-2.73-6.91-2.73-4.13,0,0,1.39-.71,1.39-2.07,0-4.13,0-7.58.72-10.32,2.08h-4.13c0-2.75,1.36-4.13,4.13-4.13,1.36,0,2.07-.33,2.07-1.03s-1.39-1.03-4.13-1.03-4.13,1.39-4.13,4.12c-1.39,2.78-7.93,4.13-19.6,4.13s-18.93-1.36-21.67-4.13c-4.13-2.73-6.91-3.42-8.25-2.06-1.39,2.78-5.88,4.48-13.42,5.16-7.58.7-12.06-.33-13.41-3.11-1.39-1.34-2.07-1.34-2.07,0,0,2.78-3.45,4.13-10.32,4.13h-6.19c-1.39,0-2.07-.67-2.07-2.06,1.36-1.36-.71-2.08-6.19-2.08h-4.13c2.75,1.39,3.78,2.78,3.1,4.13-.71,1.39-2.42,1.39-5.16,0-1.39,0-2.78-.67-4.13-2.06,2.74-2.75,2.06-4.13-2.07-4.13s-4.84,1.39-2.06,4.13c0,2.76-.71,4.12-2.07,4.12s-3.45,2.78-6.19,8.25c0,4.13-1.38,7.58-4.13,10.33-1.38,0-2.06,2.06-2.06,6.19s-1.39,6.18-4.13,6.18c-1.39,0-2.78,1.39-4.13,4.13-1.39,2.78-2.07,5.51-2.07,8.25s-1.74,7.22-5.16,13.42c-3.45,6.19-5.87,9.28-7.22,9.28s-2.07.7-2.07,2.06c1.36,1.39,1.36,2.78,0,4.13-1.38,1.39-2.06,2.76-2.06,4.12,1.36,1.39.68,2.08-2.07,2.08l-2.06,4.12c0,2.78-.71,4.13-2.07,4.13s-2.06.34-2.06,1.03.67,1.03,2.06,1.03c4.13,2.78,4.13,4.84,0,6.19-4.13,0-6.19,3.45-6.19,10.31-1.39,2.78-2.42,5.16-3.1,7.22-.71,2.06-1.74,3.81-3.1,5.16-2.77,2.76-4.13,4.84-4.13,6.19s-.71,2.76-2.07,4.12c-1.38,0-2.06.72-2.06,2.06v2.08c-2.78,0-4.13,4.12-4.13,12.37-2.78,6.91-4.84,10.33-6.19,10.33l-2.07,4.12h4.13l-4.13,4.13c-1.38,1.39-2.06,2.76-2.06,4.12s-.71,2.08-2.07,2.08v4.12c-1.38,1.39-2.06,2.78-2.06,4.13,0,2.76-1.03,6.9-3.1,12.37-2.07,5.52-4.48,10.33-7.22,14.45-2.77,5.52-4.13,9.64-4.13,12.39,0,1.39-1.39,2.06-4.13,2.06-1.39,0-2.07,1.39-2.07,4.13,4.13,4.12,4.13,6.18,0,6.18-1.38,1.39-2.06,3.46-2.06,6.19,1.36,1.39.68,3.45-2.07,6.19-2.77,2.78-3.45,4.13-2.06,4.13l-2.07,4.12c-2.77,2.78-2.77,4.84,0,6.19l-2.06,2.06c-2.78,0-4.13,2.08-4.13,6.19,0,2.75-1.39,8.25-4.13,16.51-1.38,2.75-2.77,5.83-4.13,9.28-1.38,3.43-2.06,5.85-2.06,7.22,0,4.13-.71,6.88-2.07,8.27-1.38,0-2.06,1.34-2.06,4.12,1.35,1.36,1.35,2.06,0,2.06-4.13,0-4.84,1.36-2.07,4.13,0,2.75-.71,4.8-2.06,6.19l-2.07,2.06v4.12c0,1.36-.71,2.75-2.06,4.13-1.39,0-2.07,2.06-2.07,6.19,0,1.36-1.39,4.8-4.13,10.31-2.77,5.49-4.13,8.94-4.13,10.33,0,4.12-1.39,6.18-4.13,6.18-2.78,2.75-4.13,6.88-4.13,12.39,0,1.36-.36,2.39-1.04,3.09-.7.69-1.03,1.72-1.03,3.11v10.31c-1.39,2.75-2.06,5.49-2.06,8.25s-.71,5.49-2.07,8.25c-1.39,8.25-2.07,16.52-2.07,24.78v35.07c0,13.74-.35,22.36-1.03,25.81-.71,3.42-3.1,8.56-7.22,15.48-5.51,9.61-7.58,15.12-6.19,16.51,0,2.75-1.39,4.12-4.13,4.12s-3.46-1.37-2.07-4.12c0-4.13-.71-6.19-2.06-6.19s-2.07,1.36-2.07,4.13-1.39,4.12-4.13,4.12v2.06c0,1.36-.71,2.08-2.07,2.08-1.38,1.36-4.84,2.06-10.31,2.06-2.78,2.75-6.19,2.06-10.32-2.06-2.77-2.78-5.87-6.55-9.29-11.36-3.45-4.84-5.16-9.28-5.16-13.42s-.71-5.51-2.06-4.12c-1.39,0-2.07-2.06-2.07-6.19,0-27.54-1.39-38.54-4.13-33.01-1.39,1.36-2.07,1.36-2.07,0,0-2.78.68-4.13,2.07-4.13,1.36-1.39,2.06-2.76,2.06-4.12-1.38-1.39-2.06-6.19-2.06-14.45s.32-17.23,1.03-26.84c.68-9.64,1.36-18.93,2.07-27.85.68-8.97,1.03-14.81,1.03-17.55,1.36-2.76,1.71-4.48,1.03-5.15-.71-.72-1.03-1.75-1.03-3.11-2.77-2.78-2.77-6.19,0-10.31,2.74-2.78,4.13-6.55,4.13-11.36s.68-11.34,2.07-19.6c0-16.51.67-24.78,2.06-24.78s2.07-2.76,2.07-8.25v-8.25c1.35,1.36,2.06.69,2.06-2.06v-8.25c2.75-2.78,4.13-8.25,4.13-16.51,0-2.75.68-6.88,2.07-12.39,1.36-5.48,2.74-10.31,4.13-14.45,2.74-9.61,4.13-16.15,4.13-19.6s-1.39-1.05-4.13,7.22c-2.77,6.9-5.87,16.51-9.28,28.88-3.46,12.39-6.55,25.09-9.29,38.18-2.77,13.06-5.52,25.81-8.25,38.18-2.77,12.39-4.84,21.33-6.19,26.84-1.38,8.25-2.42,18.57-3.1,30.95-.7,12.39-1.74,24.06-3.09,35.09-1.39,27.51-2.78,42.3-4.13,44.36-1.39,2.08-1.39-10.67,0-38.18,1.35-27.52,2.74-49.52,4.13-66.03,1.35-16.51,5.48-38.54,12.38-66.04,4.13-16.51,9.28-35.76,15.48-57.79,6.19-21.98,13.42-44.68,21.67-68.1,8.25-23.37,17.19-46.74,26.83-70.16,9.61-23.37,18.57-45.4,26.83-66.03l6.19-12.39c1.36-2.75,2.07-4.8,2.07-6.19s-2.42-2.39-7.22-3.09c-4.84-.69-10.67-.33-17.54,1.03h-17.54c-4.84,0-7.93-.69-9.29-2.06h-4.13c-1.38,1.37-6.9,2.06-16.51,2.06-8.25,0-12.38-.69-12.38-2.06,2.74-2.75,2.06-4.13-2.07-4.13-2.77,0-3.45.7-2.06,2.06,1.35,2.78.67,4.48-2.07,5.16-2.77.7-5.52-.33-8.25-3.09-1.39,0-2.07-.69-2.07-2.08v2.08c0,2.76-6.19,4.12-18.57,4.12h-12.38c-2.77,0-4.13-.67-4.13-2.06,1.36-1.36.68-2.06-2.06-2.06-1.39,0-2.07.7-2.07,2.06l-4.13,2.06c-6.91,0-11.03.7-12.38,2.06h-33.02c-6.9,1.39-12.74,2.08-17.54,2.08s-7.93.7-9.28,2.06c-2.77,0-4.84-.69-6.19-2.06,0-1.36-.35-2.08-1.03-2.08s-1.03.72-1.03,2.08c-1.39,1.37-4.84,2.06-10.32,2.06-5.52-1.36-7.58-2.75-6.19-4.13,1.36-1.36,0-2.06-4.13-2.06-6.9,0-10.31,1.39-10.31,4.13s-2.07,4.12-6.19,4.12c-2.77-1.36-5.52-1.7-8.25-1.03-2.78.7-5.52,1.03-8.25,1.03-8.26,2.78-11.03,2.78-8.26,0,2.75-2.75,2.07-4.12-2.06-4.12,0,2.76-1.39,4.12-4.13,4.12-2.78,1.39-8.96,2.78-18.57,4.13-9.64,1.39-17.9,1.39-24.77,0-2.77,0-6.55,3.81-11.35,11.34-4.84,7.58-14.8,27.87-29.92,60.88-9.63,20.64-20.63,44.37-33.01,71.21-12.38,26.82-22.7,49.88-30.95,69.13-15.16,33.01-24.77,53.98-28.9,62.94-4.13,8.94-6.19,11.36-6.19,7.22,0-1.39-.7-2.78-2.06-4.13-1.39,0-2.07,1.36-2.07,4.13,0,1.36-1.38,4.8-4.13,10.31-2.77,2.75-4.13,4.8-4.13,6.19v2.06c0,2.75-.71,4.8-2.06,6.19-4.13,4.13-6.19,11-6.19,20.64,0,4.12-1.39,6.19-4.13,6.19-1.39,0-2.07.67-2.07,2.06,1.36,2.75-2.77,8.94-12.38,18.57-2.77,5.49-5.52,9.97-8.25,13.42-2.78,3.42-4.13,5.83-4.13,7.22s-.71,2.75-2.07,4.13c-1.38,0-2.06,1.36-2.06,4.12s-.71,4.8-2.07,6.19c-2.77,0-4.13,2.06-4.13,6.19,1.36,2.75-.71,6.86-6.19,12.39-5.51,5.48-9.63,8.92-12.38,10.31-5.52,0-8.25,1.36-8.25,4.12,1.36,1.36.68,2.08-2.07,2.08-2.77-2.78-3.45-4.13-2.06-4.13,1.36-2.76.32-3.81-3.1-3.09-3.45.67-5.87,1.7-7.22,3.09-1.39,1.36-2.06,1.36-2.06,0,0-2.76-1.39-4.12-4.13-4.12s-4.13,1.36-4.13,4.12,1.36,4.8,4.13,6.19c4.13,0,6.86-.7,8.25-2.06,1.35-1.39,2.74,0,4.13,4.12,0,2.75-1.39,3.42-4.13,2.08-2.78,0-6.55-1.39-11.35-4.13-4.84-2.78-7.22-4.84-7.22-6.19s-2.07-2.06-6.19-2.06c-5.52,1.36-11.7-2.06-18.57-10.31-6.9-6.91-11.7-10.33-14.45-10.33v-4.12c1.36-2.78,2.07-5.52,2.07-8.25-2.77,0-2.77-7.58,0-22.7,2.74-12.39,2.74-19.97,0-22.7-1.39-2.78-3.45-2.78-6.19,0,0,1.34-.35,2.39-1.03,3.09-.71.67-1.03.33-1.03-1.03v-2.06l2.06-2.08c0-1.39.33-2.42,1.04-3.09.68-.72,1.03-1.75,1.03-3.11,0-6.9.68-13.09,2.06-18.57,1.36-8.25,2.39-14.81,3.1-19.61.68-4.82,4.45-14.12,11.35-27.85,6.87-15.17,11.35-24.76,13.42-28.9,2.06-4.13,4.45-11,7.22-20.64,0-1.36,1.35-4.8,4.13-10.31,1.36-1.36,2.06-3.42,2.06-6.19,2.75-2.75,6.19-8.25,10.32-16.51,4.13-8.25,6.19-13.74,6.19-16.51,0-1.36.68-2.75,2.06-4.13,0-1.36,1.36-4.8,4.13-10.31,1.36-2.75,2.75-5.83,4.13-9.28,1.36-3.43,2.75-6.52,4.13-9.3l6.19-6.18,2.07-4.13c0-5.48,2.74-11.67,8.25-18.57,5.48-11,8.25-17.19,8.25-18.58s1.36-4.8,4.13-10.31c4.13-4.13,6.19-8.94,6.19-14.45,0-1.36.68-3.11,2.06-5.16,1.36-2.06,2.75-4.45,4.13-7.22,1.36-1.36,2.07-2.39,2.07-3.09s.68-1.72,2.06-3.11c0-1.34.68-2.73,2.07-4.12,0-5.49,1.36-8.94,4.13-10.31,2.75-2.75,2.75-4.13,0-4.13v-2.06l4.13-2.08c2.75-2.73,2.07-4.12-2.06-4.12-1.39,1.39-3.46,3.81-6.19,7.22-2.77,3.45-6.19,8.61-10.32,15.48-5.51,11.03-14.8,29.24-27.86,54.69-13.09,25.48-26.51,51.96-40.25,79.46-13.77,27.52-26.15,52.61-37.14,75.31-11.03,22.7-17.9,36.81-20.64,42.31-5.52,12.39-8.96,19.61-10.32,21.67-1.38,2.06-2.77,2.39-4.13,1.03,0-1.39,2.75-8.96,8.25-22.7,5.48-13.76,13.42-31.66,23.74-53.66,10.31-22,22.34-46.43,36.11-73.27,13.74-26.82,27.51-53.3,41.28-79.45,8.25-15.12,15.48-28.9,21.67-41.28,6.19-12.37,9.28-19.24,9.28-20.63,0-2.75-11.7-2.08-35.08,2.06h-10.32c-4.13,0-7.58.7-10.31,2.06-2.78,0-5.16.36-7.22,1.03-2.07.72-3.81,1.05-5.16,1.05-1.38,1.37-2.06,1.37-2.06,0s1.36-3.43,4.13-6.19c2.74-1.36,2.06-2.75-2.07-4.13-1.38,0-2.77.72-4.13,2.06,0,4.13-1.38,6.91-4.13,8.27-2.77,1.37-9.64,3.45-20.63,6.18h-8.25c-2.78,2.78-4.84,2.78-6.19,0-1.39,0-2.77.72-4.13,2.08,1.36,1.37,0,2.06-4.13,2.06-5.52,0-8.96.7-10.32,2.06-2.77,2.78-8.25,4.13-16.51,4.13-2.78,0-4.84.34-6.19,1.03-1.39.7-2.77,1.03-4.13,1.03h-4.13c-2.77,2.78-6.19,4.12-10.32,4.12-11.02,2.78-17.9,4.13-20.63,4.13s-4.13.7-4.13,2.06-2.07,2.08-6.19,2.08h-8.25c-1.39,1.37-3.45,2.06-6.19,2.06,0-1.36-.71-1.36-2.06,0-1.39,2.78-5.16,4.48-11.35,5.16-6.19.7-10,.34-11.35-1.05-2.78-5.48-4.13-4.8-4.13,2.08-1.39,2.76-3.46,1.39-6.19-4.13,0-4.12-1.39-6.19-4.13-6.19v2.08c4.13,4.12,2.06,4.84-6.19,2.06-5.52-1.36-8.25-.69-8.25,2.06,1.36,1.39,2.07,2.42,2.07,3.11s-.71.34-2.07-1.05c-2.77,0-4.13-1.34-4.13-4.12s-.71-3.42-2.07-2.06l-2.06-2.08c-1.39,0-3.45-1.36-6.19-4.12-9.64-9.61-10.31-22-2.06-37.15,2.74-2.75,4.13-6.19,4.13-10.31,0-1.36.68-2.75,2.06-4.13,1.36,0,2.07-2.06,2.07-6.19s1.71-8.58,5.16-13.42c3.42-4.8,6.51-8.56,9.29-11.34,2.74-2.75,6.19-4.45,10.31-5.16,4.13-.67,11.68-2.39,22.7-5.15,2.75,0,6.19-.33,10.32-1.05,4.13-.67,7.54-1.03,10.32-1.03,2.74-1.36,6.86-2.39,12.38-3.09,5.48-.69,9.61-1.72,12.38-3.11,8.26,0,13.74-1.34,16.52-4.12,0-1.36.32-2.06,1.03-2.06s1.03.7,1.03,2.06c0,2.78.68,3.45,2.07,2.06,1.36-1.36,7.54-2.39,18.57-3.09,10.99-.69,18.57-1.03,22.7-1.03,2.74,0,4.13-.69,4.13-2.08h10.31c9.61,0,15.13-.67,16.52-2.06,1.36,0,5.16-.33,11.35-1.03,6.19-.67,12.71-1.03,19.6-1.03,6.86-1.36,14.09-2.06,21.67-2.06s13.41-.69,17.54-2.08h22.7c8.25,0,19.93-.67,35.09-2.06h7.22c2.07,0,5.16-3.09,9.29-9.28,4.13-6.19,10.64-16.83,19.6-31.98,8.93-15.13,22.35-37.15,40.25-66.04,15.12-23.39,30.24-47.79,45.4-73.27,15.12-25.45,26.12-44.37,33.01-56.74,22-33.03,44.37-68.43,67.07-106.28,22.7-37.84,41.59-69.13,56.75-93.91,55.01-94.92,77.03-148.58,66.04-160.97-2.77-2.75-3.8-4.45-3.09-5.16.67-.67,2.39-.31,5.16,1.05,6.86,2.76,7.9,13.76,3.1,33.01-4.84,19.29-14.13,42.66-27.87,70.16-6.9,12.39-15.48,28.23-25.79,47.46-10.32,19.29-22.03,39.93-35.09,61.93-13.09,22.01-26.5,44.36-40.24,67.06-13.77,22.7-26.83,44.37-39.22,65.01-16.51,24.76-25.79,39.21-27.86,43.34-2.06,4.12-1.74,4.84,1.03,2.06,4.13-4.13,7.55-8.25,10.32-12.39,2.74-4.12,5.16-8.56,7.22-13.4,2.07-4.8,6.51-11.36,13.42-19.61,0-2.75.67-4.8,2.06-6.19,1.36-1.36,2.74-3.42,4.13-6.19,1.36-1.36,2.07-2.39,2.07-3.09s.68-1.72,2.06-3.09c0-1.36.68-2.08,2.07-2.08,0-2.73.68-4.12,2.06-4.12l8.25-8.25c1.36-2.75,3.1-5.83,5.16-9.3,2.06-3.42,4.45-6.5,7.22-9.28l4.13-10.31c0-2.75.68-4.13,2.06-4.13,2.75,0,4.8-2.73,6.19-8.25,2.74-6.86,6.19-11,10.32-12.37,1.35-2.75,2.74-4.46,4.13-5.16,1.36-.69,2.06-1.72,2.06-3.11s2.07-5.48,6.19-12.37c0-1.36,1.36-3.42,4.13-6.19l2.07-2.06c0-2.75,2.06-6.19,6.19-10.33l8.25-12.37c0-1.36.68-2.08,2.07-2.08s2.07-1.34,2.07-4.12,1.35-4.13,4.13-4.13c1.35,0,3.42-2.39,6.19-7.22,2.75-4.8,8.25-15.48,16.52-31.98l4.13-4.12c1.35,0,2.06-.69,2.06-2.08,0-2.73,2.75-6.86,8.25-12.37l4.13-10.33,2.06-2.06,4.13-8.25c5.48-6.86,6.87-11.67,4.13-14.45l4.13-2.06c2.75,0,3.42-.69,2.07-2.06,0-2.75,1.36-4.13,4.13-4.13,1.36-1.36,2.07-4.12,2.07-8.25-2.78-5.48-2.07-8.25,2.06-8.25-1.39,1.39-1.39,2.78,0,4.12,2.74,0,4.13-2.06,4.13-6.18s.68-6.19,2.07-6.19,2.74-2.06,4.13-6.19c1.35-4.13,2.06-6.86,2.06-8.25l2.07-2.06c1.36-1.36,3.42-5.49,6.19-12.39,2.75-6.86,2.75-9.61,0-8.25-2.77,0-2.77-.69,0-2.06,4.13-4.13,6.19-6.88,6.19-8.25v-8.27c2.75-2.73,4.13-6.5,4.13-11.34s-.71-7.22-2.06-7.22-2.07-2.75-2.07-8.25c0-4.13-1.39-10.31-4.13-18.58-2.77-8.25-5.52-12.37-8.25-12.37l-8.25-4.13c-1.39-2.73-3.46-4.45-6.19-5.15-2.77-.69-5.52-1.72-8.25-3.11-2.78,0-5.52-.33-8.25-1.03-2.78-.67-4.84-1.03-6.19-1.03-4.13,0-6.19.7-6.19,2.06s1.36,2.06,4.13,2.06c1.35,0,2.39.36,3.09,1.05.68.7,1.71,1.03,3.1,1.03,0,1.39-2.06,2.06-6.19,2.06-4.13-1.36-6.19-3.42-6.19-6.19s-2.77-3.78-8.25-3.09c-5.52.7-8.96,2.42-10.32,5.15-1.39,2.78-2.42,4.13-3.1,4.13s-.35-1.36,1.03-4.13c0-2.73-.7-4.12-2.06-4.12-2.77,0-4.84,1.39-6.19,4.12-2.77,2.78-3.45,2.78-2.06,0,1.35-2.73.68-4.45-2.07-5.15-2.77-.69-4.84.36-6.19,3.09h-6.19c-4.13,0-6.19.72-6.19,2.06-1.38,2.78-2.06,2.78-2.06,0s-1.39-2.73-4.13,0c-2.78,1.39-4.13,1.39-4.13,0s-2.07-2.06-6.19-2.06c-2.77,0-4.13.72-4.13,2.06,1.36,1.39-.71,2.08-6.19,2.08s-9.64-1.36-12.38-4.13c-1.39,0-1.39.72,0,2.06,0,2.78-1.39,4.13-4.13,4.13-2.77,1.39-3.81.7-3.1-2.06.68-2.75,2.39-4.8,5.16-6.19l2.07-2.06c-1.39-1.36-3.45-.69-6.19,2.06h-6.19c-1.39-2.75-2.07-3.42-2.07-2.06,2.75,2.76,2.75,4.12,0,4.12h2.07c4.13,0,4.13,2.78,0,8.25-1.39,1.39-2.07,1.39-2.07,0,0-2.73-2.77-4.12-8.25-4.12-4.13,0-5.52.7-4.13,2.06l-2.07,2.06c-1.38,0-2.06.36-2.06,1.03,0,.72.68,1.05,2.06,1.05,0,2.76-.7,2.76-2.06,0-2.78-2.75-5.16-4.13-7.22-4.13s-1.74,1.39,1.03,4.13c0,2.76-.71,3.45-2.06,2.06-2.78-1.36-7.58-1.72-14.45-1.03-6.91.7-9.64,2.42-8.25,5.15,1.35,1.39,0,2.08-4.13,2.08s-7.58-1.36-10.32-4.13c-4.13-2.75-6.91-4.12-8.25-4.12s0,1.37,4.13,4.12l6.19,4.13-10.31,2.06c-4.13,0-6.19,1.39-6.19,4.12,0,1.39-.71,1.39-2.07,0-2.77-1.34-6.9-1.34-12.38,0-5.52,1.39-9.64,3.46-12.38,6.19h-2.07c-2.77,0-4.13-.67-4.13-2.06-1.38-1.36-2.42-2.06-3.1-2.06s-.35.7,1.04,2.06c2.74,2.78,2.74,4.13,0,4.13s-7.58,1.37-14.45,4.12c-6.91,1.39-11.03,1.39-12.38,0-1.39-1.36-2.42-2.06-3.1-2.06s-.36.7,1.03,2.06c1.36,2.78-.35,4.84-5.16,6.19-4.84,1.39-9.99,2.78-15.48,4.12-4.13,0-6.19.72-6.19,2.08,1.36,1.39-2.42,3.09-11.35,5.15-8.96,2.08-14.8,3.11-17.54,3.11l-2.06,2.06c1.36,0-2.07,1.39-10.32,4.13-9.64,2.76-17.9,6.18-24.76,10.31-2.78,1.39-5.52,2.42-8.26,3.09-2.77.72-5.51,1.75-8.25,3.11-4.13,0-6.19.7-6.19,2.06l-2.07,2.06c-2.77,2.78-5.52,4.13-8.25,4.13h-8.25c-2.78,0-6.19,2.06-10.32,6.19-4.13,2.76-11.35,6.54-21.67,11.34-10.31,4.84-16.86,6.55-19.6,5.16l-2.06,4.12c0,2.78-1.39,4.13-4.13,4.13-2.78-1.36-8.96.36-18.57,5.16-9.64,4.84-15.16,7.93-16.52,9.28,0,4.12-1.38,4.84-4.13,2.06-2.77,0-4.84.72-6.19,2.06-4.13,4.13-8.26,6.91-12.39,8.27-5.51,2.76-9.64,5.51-12.38,8.25-1.39,1.37-2.42,2.06-3.1,2.06s-1.74.7-3.1,2.06c-2.77,0-6.9,1.39-12.38,4.13-5.52,2.76-8.96,3.45-10.32,2.06h-2.06c2.74,2.78,2.74,5.16,0,7.22-2.77,2.06-5.52,3.09-8.25,3.09-4.13,0-6.19,1.39-6.19,4.13h-4.13c0,1.39-2.77,3.45-8.25,6.19-4.13,2.76-7.93,4.84-11.35,6.19-3.45,1.37-9.29,5.51-17.54,12.37-8.25,5.52-12.38,6.9-12.38,4.13l-2.07,2.06c-1.38,0-2.06.36-2.06,1.03,0,.72-.71,1.03-2.07,1.03-5.51,5.52-8.96,6.9-10.31,4.13-2.78,0-2.78,1.39,0,4.12,0,2.78-.71,3.45-2.07,2.08l-4.13,2.06c-1.39,1.39-4.13,2.06-8.25,2.06-1.39-1.36-2.42-2.06-3.1-2.06s-.35.7,1.03,2.06c1.36,2.78.33,5.52-3.1,8.25-3.45,2.78-6.55,3.45-9.28,2.06-1.39-1.34-2.07-1.34-2.07,0s-2.77,4.13-8.25,8.27c-6.9,2.76-10.31,4.84-10.31,6.18s-.71,2.08-2.07,2.08c0-1.36-.35-1.72-1.03-1.03-.71.7-1.04,1.73-1.04,3.09-2.77,2.78-5.51,4.12-8.25,4.12-4.13,0-6.19,1.39-6.19,4.13s-1.39,2.78-4.13,0c-1.39-1.36-2.42-2.06-3.1-2.06s-.36.7,1.03,2.06c1.36,2.78-1.39,6.55-8.25,11.36-6.91,4.82-11.71,6.54-14.45,5.15-1.39-1.36-2.07-1.36-2.07,0,2.75,2.78-.7,6.19-10.31,10.33-8.25,5.51-13.09,8.96-14.45,10.31,0,1.39-5.52,6.19-16.51,14.45-13.77,8.25-29.92,20.64-48.5,37.15-18.57,16.51-37.86,35.07-57.78,55.71-19.96,20.64-38.89,41.63-56.75,62.94-17.9,21.34-33.02,40.25-45.4,56.76-12.39,17.9-23.74,37.85-34.05,59.85-10.32,22.01-18.93,42.66-25.8,61.91-2.77,11.03-5.16,27.54-7.22,49.52-2.07,22.03-1.74,39.93,1.03,53.67,0,2.76.33,5.15,1.03,7.21.68,2.08,1.04,4.49,1.04,7.22v6.19c-2.78,2.78-5.52-11-8.25-41.27-5.52-44.01,3.42-91.49,26.83-142.4,6.86-13.73,8.93-19.92,6.19-18.57-4.13,4.12-5.51,6.9-4.13,8.25-1.38,0-2.06.7-2.06,2.06s-.71,2.78-2.07,4.12c-4.13,4.13-5.52,6.91-4.13,8.27l-4.13,4.12c-1.39,1.39-2.07,3.45-2.07,6.19s-.7,4.12-2.06,4.12-2.07.72-2.07,2.08-2.06,6.19-6.19,14.45c-2.78,6.9-3.46,9.64-2.07,8.25,4.13,0,3.42,1.39-2.06,4.12-2.78,5.52-4.13,8.97-4.13,10.33s-1.39,4.84-4.13,10.31c-2.77,5.51-4.13,10.31-4.13,14.45l-4.13,8.25c-1.38,0-2.06,1.39-2.06,4.13,1.35,1.37-.71,13.09-6.19,35.07-5.52,17.9-8.61,33.03-9.28,45.4-.71,12.39.32,26.15,3.09,41.28,2.75,11.02,6.52,23.04,11.35,36.1,4.8,13.09,10.65,23.06,17.54,29.92,9.61,12.39,7.54,18.58-6.19,18.58-5.51,0-8.25.7-8.25,2.06,0,2.78-2.77,2.78-8.25,0-1.39,0-2.06-.33-2.06-1.03s-.71-1.03-2.07-1.03h-2.07c0,1.39-4.13,0-12.38-4.13-6.9-4.12-14.45-10.31-22.7-18.57-8.25-8.25-15.15-15.8-20.63-22.7l-8.25-12.39h-2.07c0-2.75-2.07-5.48-6.19-8.25-2.77-2.75-6.55-8.58-11.35-17.54-4.83-8.94-6.55-13.42-5.16-13.42l-2.07-8.25c-2.77-2.75-4.13-6.86-4.13-12.39,1.36-1.36,1.72-2.39,1.04-3.09-.71-.69-1.74-.33-3.1,1.03-1.39,0-1.39-1.36,0-4.13,1.36-2.73,1.36-4.12,0-4.12-2.77,0-2.77-1.36,0-4.13,2.74-2.73,3.42-5.48,2.06-8.25v-14.45c1.36-13.73,2.07-25.79,2.07-36.1s-.71-15.48-2.07-15.48-2.06-.33-2.06-1.05c0-.67.68-1.03,2.06-1.03,2.75-2.73,4.13-8.25,4.13-16.51v-8.25c0-1.36.68-2.75,2.07-4.13,1.36-1.34,2.07-4.12,2.07-8.25,0-5.48.67-8.25,2.06-8.25,2.75-2.73,4.8-9.61,6.19-20.63,0-5.49,1.35-8.27,4.13-8.27v-2.06l2.06-4.12c0-5.49.68-8.25,2.07-8.25,1.36-1.36,2.06-2.75,2.06-4.13-1.38-1.36-.7-4.13,2.07-8.25,2.74-2.75,4.13-5.48,4.13-8.25,0-1.36.68-3.78,2.07-7.22,1.35-3.42,2.74-6.52,4.13-9.28,1.35-2.75,2.06-4.8,2.06-6.19s.68-2.75,2.07-4.13c0-1.36.68-2.73,2.06-4.12-1.38,0,0-3.42,4.13-10.33,4.13-6.86,7.55-11.67,10.32-14.45l2.07-4.12v-2.06c0-1.36,4.8-9.61,14.45-24.78,1.35-2.73,2.74-5.15,4.13-7.22,1.35-2.06,2.74-4.45,4.13-7.21l4.13-8.27c0-1.34.68-2.73,2.06-4.12,2.75,0,6.19-3.42,10.32-10.31,21.99-33.03,50.21-66.73,84.61-101.13,11-11,15.13-16.51,12.39-16.51,0-1.36.68-2.06,2.06-2.06s6.87-3.78,16.52-11.36c9.6-7.53,17.19-14.76,22.7-21.67,2.74-1.34,4.45-2.73,5.16-4.12.68-1.36,1.71-2.06,3.1-2.06s2.74-.69,4.13-2.08c1.36-1.36,2.39-2.06,3.1-2.06.67,0,2.39-1.36,5.16-4.13,6.86-6.86,11.67-10.31,14.45-10.31l4.13-4.12c-2.77-2.75-2.07-4.13,2.06-4.13,1.36,0,6.87-3.09,16.52-9.28,9.61-6.19,16.51-11.36,20.63-15.48,2.75-1.36,6.51-3.78,11.35-7.22,4.8-3.42,10.64-7.22,17.54-11.36,6.86-4.12,12.71-7.89,17.54-11.34,4.8-3.42,8.58-6.52,11.35-9.28,2.75-1.36,5.16-2.75,7.22-4.13,2.07-1.36,4.45-2.75,7.22-4.12,2.75-1.36,5.83-2.75,9.29-4.13,3.42-1.36,6.51-3.42,9.28-6.19,2.75-2.75,5.48-4.8,8.25-6.19,2.75-1.36,5.48-2.73,8.25-4.12,4.13,0,6.19-1.36,6.19-4.13,0-1.36,1.36-2.06,4.13-2.06,1.36,0,6.19-2.75,14.45-8.25,2.74-2.75,5.48-4.8,8.25-6.19,2.75-1.36,5.48-2.75,8.25-4.12,2.75-1.36,6.19-3.11,10.32-5.16,4.13-2.06,8.25-4.45,12.38-7.22,9.61-6.86,16.52-10.31,20.64-10.31,1.36-1.36,2.74-2.39,4.13-3.11,1.36-.67,2.74-1.7,4.13-3.09,2.74-2.75,4.13-3.42,4.13-2.08s.68,1.39,2.07,0c2.74-2.73,9.61-7.53,20.63-14.43,5.48-2.75,11-5.49,16.51-8.27,5.48-2.73,9.61-4.8,12.39-6.18,2.74-2.75,4.8-4.13,6.19-4.13h2.07c0,1.39.68,1.39,2.06,0,1.36-1.36,2.75-2.39,4.13-3.09,1.36-.69,2.75-1.72,4.13-3.11,4.13,0,7.54-1.36,10.31-4.12,1.36,0,4.13-1.03,8.25-3.11,4.13-2.06,8.26-4.45,12.39-7.22l16.51-8.25c0-1.36-6.9.72-20.63,6.19-13.77,5.51-30.28,13.09-49.53,22.7-19.29,9.64-39.57,19.61-60.88,29.92-21.35,10.31-38.89,19.61-52.63,27.87-121.09,67.42-221.18,141.35-300.28,221.85-79.13,80.49-132.43,162-159.94,244.55-11.02,31.67-16.51,66.04-16.51,103.19,0,34.4,5.48,64.69,16.51,90.8l6.19,20.63-6.19-10.31Zm130.02-354.96v-4.12c-2.78,0-4.13,1.39-4.13,4.12v4.13l4.13-4.13Zm127.94-134.13c6.87-5.49,9.61-8.94,8.25-10.33-1.38-1.36-6.55,1.75-15.48,9.3-8.96,7.57-18.93,16.85-29.92,27.85-9.64,9.64-15.16,14.45-16.52,14.45l-2.06,2.06c0,4.13-5.52,10.33-16.52,18.58-11.02,12.37-21.34,24.09-30.95,35.07-9.64,11.03-14.45,17.23-14.45,18.58s1.71.36,5.16-3.11c3.42-3.42,6.51-6.5,9.28-9.28,4.13-6.86,12.38-15.8,24.77-26.82,5.48-8.25,9.61-13.74,12.38-16.51l6.19-6.19c-1.39-1.36-.71-2.08,2.06-2.08,4.13,0,9.61-4.8,16.51-14.43l12.39-12.39,10.31-6.19c2.75-2.75,5.84-5.83,9.29-9.28,3.42-3.42,6.51-6.52,9.28-9.28Zm-74.29,216.68c-1.39,0-3.81,2.06-7.22,6.19-3.45,4.13-5.16,6.9-5.16,8.25,0,2.78-.7,4.13-2.06,4.13l-2.07,4.12c-2.77,5.52-2.77,7.22,0,5.16,2.75-2.06,5.48-6.52,8.26-13.42,1.35-1.36,2.39-3.09,3.09-5.16.68-2.06,1.72-3.76,3.1-5.15,1.36-1.36,2.07-2.75,2.07-4.13Zm2.06-4.12c1.36,0,2.07-.69,2.07-2.08v-2.06l-4.13,2.06c0,1.39.68,2.08,2.06,2.08Zm30.95-41.28c2.75-2.73,5.16-5.83,7.22-9.28,2.07-3.42,4.45-6.52,7.22-9.28,2.75-2.75,4.8-5.49,6.19-8.25-1.39,0-6.91,6.19-16.51,18.57-4.13,5.52-8.61,11.03-13.42,16.51-4.84,5.52-8.61,9.64-11.35,12.39-5.52,5.51-8.25,9.64-8.25,12.39,0,1.37,1.03,2.06,3.1,2.06s3.09-1.36,3.09-4.13c1.36-1.36,4.13-4.8,8.26-10.31,4.13-5.48,8.93-12.39,14.44-20.64Zm35.09-41.27c-2.78,0-4.84.7-6.19,2.06-1.39,2.78-2.77,4.48-4.13,5.16-1.39.7-2.07,1.73-2.07,3.09,0-1.36.68-2.06,2.07-2.06s2.74-.69,4.13-2.06l4.13-4.13c0-1.36.68-2.06,2.07-2.06Zm59.84-167.16c4.13-4.13,5.48-7.55,4.13-10.33h-2.07c-2.77,0-5.52,1.39-8.25,4.13-1.39,2.78-2.78,4.48-4.13,5.16-1.39.7-2.07.34-2.07-1.05h-2.06l-2.07,4.13c-1.39,1.39-6.19,4.84-14.45,10.31-12.38,9.64-15.15,14.45-8.25,14.45,1.36,0,2.39-.67,3.1-2.06.68-1.36,2.39-2.75,5.16-4.13,1.36-2.73,2.75-4.45,4.13-5.15,1.36-.69,2.75-1.72,4.13-3.11,2.75,0,5.48-2.06,8.26-6.18,2.74-2.75,4.13-3.43,4.13-2.08,0-1.36.68-2.06,2.06-2.06,2.75,0,5.48-.67,8.25-2.06Zm45.4-37.15c2.75,0,6.19-1.36,10.32-4.13,4.13-2.73,5.48-4.8,4.13-6.19h-2.06c-2.78,0-6.91,1.39-12.39,4.13-5.51,2.78-8.25,5.51-8.25,8.25l-4.13,2.06c-2.77,0-6.9,2.08-12.38,6.19-5.52,4.13-7.58,7.58-6.19,10.33,0,1.37-.71,1.37-2.06,0-2.78-1.36-4.84-1.36-6.19,0-1.39,1.37-1.39,3.45,0,6.18,1.36,2.78,6.87,0,16.51-8.25,2.75-2.73,5.48-5.15,8.26-7.22,2.74-2.06,4.8-3.76,6.19-5.15,1.36,0,2.75-.69,4.13-2.08,0-2.73,1.36-4.12,4.13-4.12Zm290.99-173.36c-5.52,0-9.64,1.39-12.38,4.13-2.77,2.76-6.19,4.12-10.32,4.12-1.39,0-2.42.72-3.1,2.06-.7,1.39-2.42,2.78-5.16,4.13-2.77,4.12-4.84,5.51-6.19,4.12,0,1.39-.7,2.08-2.06,2.08s-2.78.34-4.13,1.03c-1.39.7-2.78,1.03-4.13,1.03-6.91,4.13-11.71,6.19-14.45,6.19-1.39,0-2.07.7-2.07,2.06,1.36,1.39,0,2.06-4.13,2.06s-6.19,1.39-6.19,4.13c0,1.39-.71,2.06-2.07,2.06-2.77-1.36-6.55-.67-11.35,2.06-4.84,2.78-7.22,4.84-7.22,6.19v2.08c-2.77,0-5.52,1.37-8.25,4.12-2.77,2.78-5.52,4.13-8.25,4.13s-5.52,1.37-8.25,4.12c-6.91,6.9-13.09,11.03-18.57,12.39-4.13,0-7.58,1.39-10.32,4.12,0,1.39-.71,2.78-2.07,4.13-1.38,0-4.48,1.03-9.28,3.09-4.84,2.08-7.22,3.81-7.22,5.16s-.71,2.06-2.06,2.06c-2.78-1.36-5.52-.67-8.26,2.08-4.13,4.12-6.9,6.18-8.25,6.18l-4.13,4.13c-4.13,4.12-6.19,4.84-6.19,2.06-2.77,0-4.13.72-4.13,2.06s-.7,2.08-2.06,2.08c-1.39,1.39-3.45,2.06-6.19,2.06-4.13,2.78-6.19,5.51-6.19,8.25,2.74,2.78,1.35,2.78-4.13,0-4.13,0-6.19.7-6.19,2.06s-1.39,2.08-4.13,2.08-4.13,1.37-4.13,4.12c-2.78,2.78-4.84,4.13-6.19,4.13-4.13,0-7.58,1.39-10.32,4.12-1.38,4.13-5.51,7.58-12.38,10.33-4.13,2.76-6.19,5.51-6.19,8.25,0,1.39-.7,1.39-2.06,0-1.39-1.36-3.1-1.36-5.16,0-2.07,1.39-2.42,2.76-1.04,4.12,1.36,2.78,2.75,3.81,4.13,3.11,1.36-.69,6.19-4.46,14.45-11.36,8.25-5.48,16.83-10.64,25.8-15.48,8.93-4.8,16.83-9.28,23.73-13.42,4.13-1.36,6.19-3.42,6.19-6.18,1.36,0,2.74-.69,4.13-2.08,1.36-1.36,4.8-3.42,10.32-6.19,2.74-1.34,6.19-4.12,10.31-8.25,1.36-1.36,2.75-2.06,4.13-2.06-1.38-1.36-2.06-2.39-2.06-3.09s.68-.33,2.06,1.03c2.75,1.39,10.32-1.36,22.7-8.25,12.39-6.88,19.25-11.69,20.64-14.45,0-1.36,2.06-2.06,6.19-2.06,1.35,0,2.06-1.36,2.06-4.13h4.13c1.36,0,2.75-.67,4.13-2.06,0-2.75,1.36-4.13,4.13-4.13,1.36,1.39,2.07.72,2.07-2.06h2.06c1.36,0,2.07-.69,2.07-2.06s.68-2.08,2.06-2.08c1.36,2.78,3.42,2.78,6.19,0,1.36-2.73,6.51-6.18,15.48-10.31,8.93-4.13,31.28-15.12,67.07-33.01,20.63-11,30.95-17.19,30.95-18.58h2.07l4.13-2.06c5.48,0,13.74-2.75,24.76-8.25,11-5.49,15.8-8.94,14.45-10.33,2.74,1.39,6.51,1.05,11.35-1.03,4.8-2.06,7.9-4.45,9.28-7.22,1.36,0,2.75-.31,4.13-1.03,1.35-.67,2.74-1.03,4.13-1.03h4.13l2.06-2.06v-2.06c1.36,0,2.39-.33,3.1-1.05.68-.67,1.71-1.03,3.1-1.03,2.74,0,4.8-.31,6.19-1.03,1.35-.67,3.42-1.03,6.19-1.03l12.38-4.13c1.36-1.34,2.75-2.06,4.13-2.06,1.35,1.39,2.06.72,2.06-2.06-2.77-2.75-2.77-4.13,0-4.13,1.36,0,2.07.72,2.07,2.08s.67,2.06,2.06,2.06c1.36-1.36,2.07-3.42,2.07-6.19-1.39-1.36-1.74-2.06-1.04-2.06s1.72.7,3.1,2.06c4.13,4.13,10.32,2.06,18.57-6.19,2.75-2.73,6.87-4.12,12.38-4.12s8.26-.69,8.26-2.08c-1.39-1.34,0-2.06,4.13-2.06,4.13,2.78,6.19,2.06,6.19-2.06h8.25c1.36,0,2.39-.33,3.1-1.03.68-.69,2.39-1.03,5.16-1.03,4.13,0,6.19-1.36,6.19-4.13,0-1.36,1.36-2.06,4.13-2.06,1.36,0,2.07.7,2.07,2.06-2.77,2.78-1.39,2.78,4.13,0,5.48-1.36,8.25-3.42,8.25-6.19-1.39,0-1.74-.31-1.03-1.03.68-.67,1.71-1.03,3.1-1.03,2.74-2.75,4.13-2.75,4.13,0-1.39,1.39-.71,2.06,2.06,2.06l8.26-4.12c0-1.36,2.06-2.08,6.19-2.08,2.75,2.78,4.13,2.08,4.13-2.06,1.36-2.73,2.75-3.42,4.13-2.06,1.36,2.78,3.42,2.78,6.19,0,2.74-2.75,4.13-2.75,4.13,0h2.07l2.06-4.13c1.36-1.34,3.42-1.34,6.19,0,2.74,2.78,4.13,2.78,4.13,0s4.13-4.12,12.38-4.12c2.75-1.36,5.83-2.06,9.29-2.06s6.51-.69,9.28-2.08h8.25v-4.12h16.52c1.35,0,2.74-.69,4.13-2.06,2.74-2.75,4.13-2.75,4.13,0,1.35,0,2.06-.69,2.06-2.08h4.13c1.36,0,2.75-.31,4.13-1.03,1.36-.67,3.42-1.03,6.19-1.03,9.61,0,14.45-1.36,14.45-4.13,1.36-1.34,1.36-2.06,0-2.06-1.39,1.39-2.42,2.06-3.1,2.06s-.35-.67,1.03-2.06c2.75-2.75,4.13-2.75,4.13,0,2.75,1.39,6.19,1.39,10.32,0,5.48-2.75,12.38-4.12,20.64-4.12,2.74,0,4.8-.33,6.19-1.05,1.36-.67,2.75-1.03,4.13-1.03s2.75-.67,4.13-2.06c0-1.36-2.06-2.06-6.19-2.06-1.39,0-7.58,1.39-18.57,4.12-1.39,0-3.45.36-6.19,1.03-2.77.72-5.52,1.05-8.25,1.05h-14.45c-6.9,0-8.96,1.37-6.19,4.12,0,1.39-.71,2.06-2.07,2.06,0,1.39-.71,2.08-2.06,2.08h-4.13c-2.77,1.39-4.13.7-4.13-2.08,1.36-1.34.68-1.34-2.06,0-2.78,1.39-5.52,2.08-8.25,2.08,0-1.36-.36-2.08-1.04-2.08s-1.03.72-1.03,2.08-2.06,2.06-6.19,2.06c-2.77-1.36-4.48-1.72-5.16-1.03-.71.7-.35,1.03,1.03,1.03,0,1.39-2.77,2.06-8.25,2.06s-8.25.72-8.25,2.08h-2.07c-2.77,0-9.28,1.03-19.6,3.09-10.31,2.06-16.86,4.48-19.6,7.22,0,1.39-.71,2.06-2.06,2.06h-6.19c-4.13,0-11.35,1.75-21.67,5.16-10.31,3.45-16.87,5.87-19.6,7.22-4.13,4.12-6.9,4.84-8.25,2.06-4.13,0-10.32,2.06-18.57,6.19-2.77,1.39-6.19,2.78-10.32,4.12-4.13,1.39-7.58,2.08-10.31,2.08l-10.32,4.12c0,1.39-.71,2.06-2.07,2.06h-2.06c-1.39,0-2.42.36-3.1,1.05-.71.7-2.42,1.03-5.16,1.03-5.52,1.39-13.42,4.12-23.74,8.25-10.31,4.12-15.48,6.9-15.48,8.25s-2.77,2.06-8.25,2.06c-2.77,1.39-6.55,2.78-11.35,4.13-4.84,1.39-9.99,3.45-15.48,6.19l-20.63,8.25-8.26,4.12c-5.51,2.78-9.63,4.13-12.38,4.13-4.13,0-4.84,1.39-2.06,4.12,0,1.39-1.39,2.08-4.13,2.08-1.38-1.36-2.41-2.08-3.09-2.08s-.36.72,1.03,2.08c1.36,2.76,1.36,3.45,0,2.06-4.13,0-7.58.7-10.32,2.06-2.77,0-5.52.72-8.25,2.06-2.77,1.39-5.52,2.78-8.25,4.13-5.52,1.39-8.25,4.12-8.25,8.25,1.35,1.39,1.71,2.06,1.03,2.06s-1.74-.67-3.1-2.06Zm-125.89,156.85c2.74,0,4.13-.69,4.13-2.08h-6.19c-2.77,1.39-3.8,2.42-3.09,3.11.67.7,2.39.36,5.16-1.03Zm6.19,501.48v-4.13,2.08c2.74,2.76,2.74,4.12,0,4.12v-2.06Zm138.27-33.03c0-2.73-1.39-4.12-4.13-4.12h-2.07c-2.77,0-4.13.7-4.13,2.06s-.7,1.39-2.06,0c-1.39-2.75-5.87-3.42-13.42-2.06-7.58,1.39-12.06,3.45-13.41,6.19-1.39,1.39-2.78,1.39-4.13,0,0-1.36-2.07-1.36-6.19,0-1.39,4.12-3.45,4.84-6.19,2.06,0-1.36-1.38-2.06-4.13-2.06-1.38,1.39-2.77,2.06-4.13,2.06h-8.25c-12.38,2.78-20.99,5.16-25.8,7.22-4.84,2.06-8.6,4.48-11.35,7.22-4.13,6.9-2.06,6.9,6.19,0,2.74-1.36,5.48-2.06,8.25-2.06h6.19c1.35-1.36,3.42-2.08,6.19-2.08s5.48-.67,8.25-2.06c12.39,0,19.93-1.36,22.7-4.12,0-2.75,5.48-4.13,16.52-4.13,4.13,0,4.8-1.36,2.06-4.13l2.07,2.08c2.74,2.76,9.61,2.76,20.63,0,2.75-1.36,6.19-2.08,10.32-2.08Zm-103.18,94.94c0,1.39-1.39,2.06-4.13,2.06s-4.13-.67-4.13-2.06l4.13-4.13c2.74,0,4.13,1.39,4.13,4.13Zm10.32-10.31c2.74,0,4.13-.69,4.13-2.08s-1.39-2.06-4.13-2.06c-4.13,0-5.52.7-4.13,2.06,0,1.39,1.36,2.08,4.13,2.08Zm14.44-2.08c2.75,0,3.42-.67,2.07-2.06h-4.13c-1.39,1.39-.71,2.06,2.06,2.06Zm26.83-6.19c2.75-2.73,3.42-4.12,2.07-4.12l-4.13,2.06c-1.39,1.39-.71,2.06,2.06,2.06Zm12.39-608.79l2.06-2.06v-2.06c-1.38,0-2.77.7-4.13,2.06,0,1.39.68,2.06,2.07,2.06Zm227.01,509.74c1.35-1.34,0-2.06-4.13-2.06-5.51,0-8.96.72-10.31,2.06-1.39,1.39-2.07,1.39-2.07,0,0-2.73-2.77-4.12-8.25-4.12-1.39,0-2.77.7-4.13,2.06h-2.07c0,1.39-4.84,2.06-14.44,2.06-11.03,0-17.23.72-18.57,2.08,0,2.76-3.46,2.76-10.32,0h-10.32c-4.13,4.12-13.09,4.84-26.83,2.06-5.52,0-8.25,1.39-8.25,4.13h-12.38c-9.64,0-14.45.7-14.45,2.06,0,2.76-.71,3.45-2.07,2.06l-4.13,2.06c-2.77,0-4.84-.67-6.19-2.06,0-1.36.68-1.36,2.06,0,1.36,0,2.07-.67,2.07-2.06-1.39-1.36-4.13-1.36-8.25,0-1.39,1.39-3.46,2.06-6.19,2.06,0-1.36-.35-2.06-1.03-2.06s-1.04.7-1.04,2.06c0,2.78-.7,3.45-2.06,2.06-1.39,0-2.07.72-2.07,2.08,0,2.76-1.38,2.76-4.13,0-2.77-2.75-4.84-4.13-6.19-4.13-5.52,0-5.52,1.39,0,4.13,2.74,2.76,6.51,4.12,11.35,4.12s7.89-1.36,9.28-4.12c0-2.75,1.36-2.75,4.13,0,2.75,2.76,6.87,2.76,12.38,0h10.32c1.36,0,2.07-1.36,2.07-4.13,0-1.36,2.06-1.36,6.19,0,0,1.39,1.36,2.06,4.13,2.06h2.07c1.36-1.36,6.19-2.06,14.45-2.06,6.86,0,11.67-1.36,14.45-4.12,1.35-2.75,2.06-2.75,2.06,0,0,1.37,2.07,2.06,6.19,2.06s13.74-1.36,28.89-4.13c2.75,0,6.19-.31,10.32-1.03,4.13-.67,7.54-1.03,10.32-1.03,6.86,0,10.31-.67,10.31-2.06s.68-1.36,2.07,0c1.36,1.39,5.16,2.06,11.35,2.06s10.64-1.36,13.42-4.13Zm-183.68,88.74c1.36,0,2.07-1.36,2.07-4.12,0-1.36-.71-2.08-2.07-2.08h-2.06,2.06c1.36,1.39,1.36,2.78,0,4.13-2.77,1.39-2.77,2.06,0,2.06Zm55.72-654.2l-2.07,2.06c-1.38,1.39-2.77,2.06-4.13,2.06s-2.06.72-2.06,2.08.68,1.73,2.06,1.03c1.36-.69,2.75-2.39,4.13-5.16l2.07-2.06Zm-4.13,639.75c1.35,0,2.06-.31,2.06-1.03,0-.67-.71-1.03-2.06-1.03s-2.78.7-4.13,2.06c0,1.39.68,2.78,2.06,4.13l2.07-4.13Zm14.45-2.06c4.13,0,5.48-.67,4.13-2.06h-8.26c-1.38,1.39,0,2.06,4.13,2.06Zm37.14-8.25h-4.13l-8.25,4.12h4.13c5.48,0,8.93-.67,10.32-2.06l-2.07-2.06Zm6.19,394.17c5.48,1.36,8.93,0,10.32-4.13v-4.12c-1.39,0-2.07.31-2.07,1.03,0,.67-1.39,1.03-4.13,1.03-4.13,2.75-5.52,4.8-4.13,6.19Zm8.25-394.17c-2.77,1.39-3.45,2.06-2.06,2.06,2.74,0,4.13-.67,4.13-2.06h-2.07Zm20.64-2.06c4.13,1.37,8.57,1.37,13.41,0,4.8-1.36,5.83-2.75,3.1-4.13h-4.13c-1.39,1.39-5.52,2.06-12.38,2.06h-8.26l8.26,2.08Zm30.95-2.08c0-2.73-.71-4.12-2.07-4.12s-2.06,1.39-2.06,4.12c1.35,1.39,2.74,2.08,4.13,2.08v-2.08Zm18.57-674.84v-6.18c1.35,2.76,1.35,4.84,0,6.18Zm8.25,617.06c4.13,0,6.19-1.36,6.19-4.13,0-1.36-.7-2.75-2.06-4.12-2.77,0-5.52,1.37-8.25,4.12-1.39,2.78,0,4.13,4.13,4.13Zm2.06,321.93l2.07-2.06v-4.13l-4.13,4.13c0,1.36.68,2.06,2.06,2.06Zm4.13-16.51h-2.06v4.13c0,2.73.68,3.42,2.06,2.06v-6.19Zm70.17-433.38c6.86-6.86,10.32-13.06,10.32-18.58h-2.07c0,1.39-3.81,7.94-11.35,19.61-7.58,11.7-16.87,26.51-27.86,44.37-15.16,24.76-25.12,41.27-29.92,49.52-4.84,8.25-5.87,12.39-3.1,12.39s7.54-6.19,14.45-18.57c2.74-6.88,5.48-12.39,8.25-16.52,2.74-4.12,4.8-7.53,6.19-10.31,1.35-1.36,2.06-2.39,2.06-3.09s.68-1.72,2.07-3.11c0-1.36.68-2.75,2.06-4.12l4.13-8.25c2.75-2.75,4.13-5.49,4.13-8.27,0-1.34.67-2.73,2.06-4.12,1.36-1.36,2.74-3.42,4.13-6.19,5.48-5.48,8.25-10.31,8.25-14.45,1.36-1.36,2.39-3.09,3.1-5.15.68-2.08,1.71-3.78,3.1-5.16Zm-53.66,398.29c-1.39,0-2.07.72-2.07,2.08s-.35,2.42-1.03,3.09c-.71.7-1.03,1.75-1.03,3.09-2.78,4.13-2.78,4.84,0,2.08l4.13-8.25v-2.08Zm6.19-12.37c2.75-2.75,4.13-6.19,4.13-10.33l-4.13,4.13c-1.38,2.78-2.06,6.19-2.06,10.31l2.06-4.12Zm24.77-901.85c0-1.36.68-2.06,2.07-2.06l-4.13,2.06c-2.77,2.78-4.83,2.78-6.19,0v2.06c1.36,2.78,4.13,2.06,8.25-2.06Zm0,602.6h-2.07l-2.06,4.13c0,4.12,1.36,3.45,4.13-2.06v-2.08Zm10.32-604.66c2.74,0,4.45-.33,5.16-1.05.68-.67.32-1.03-1.03-1.03h-4.13c-2.78,0-3.81.36-3.1,1.03.68.72,1.71,1.05,3.1,1.05Zm33.01,487.03c1.36-1.36,2.07-3.42,2.07-6.19h-2.07l-2.06,2.06c-2.78,2.78-4.13,4.84-4.13,6.19-2.78,2.78-4.13,4.84-4.13,6.19v2.06c1.35,0,3.42-1.36,6.19-4.12,0-4.13,1.36-6.19,4.13-6.19Zm0,45.4c0-1.36.68-2.08,2.07-2.08l-4.13,2.08c-4.13,4.12-5.52,6.19-4.13,6.19s3.42-2.08,6.19-6.19Zm8.26-61.91c0-1.36.32-2.08,1.03-2.08s1.03-.67,1.03-2.06l-4.13,4.13c-5.52,2.76-6.9,4.12-4.13,4.12,1.36,0,3.42-1.36,6.19-4.12Zm-2.07-480.86c2.74,0,4.13-1.36,4.13-4.12l-2.06-2.08-2.07,2.08c-2.77,0-4.13,1.39-4.13,4.12h4.13Zm12.38,464.33c2.75-2.73,4.13-5.48,4.13-8.25v-2.06c0,1.39-.7,2.78-2.06,4.13-2.78,2.76-4.84,5.51-6.19,8.25-1.38,2.76-1.74,3.79-1.03,3.09.68-.67,2.39-2.39,5.16-5.16Zm20.64-30.95c1.35-1.36,2.06-2.73,2.06-4.12h-2.06c-2.78,1.39-5.87,4.84-9.29,10.31-3.45,5.52-3.8,8.25-1.03,8.25l4.13-6.19c0-1.34,2.07-4.12,6.19-8.25Zm18.57,264.16c1.35,0,2.39-.33,3.09-1.03.68-.67.33-1.03-1.03-1.03h-4.13c-1.39,0-2.06.36-2.06,1.03s1.35,1.03,4.13,1.03Zm-2.07-711.99c4.13,1.39,5.48,1.39,4.13,0,0-4.12-1.39-4.8-4.13-2.06-1.39,0-1.39.7,0,2.06Zm16.51-4.12c0-1.36-.7-2.08-2.06-2.08s-2.77.72-4.13,2.08h6.19Zm10.32,660.39c-1.39,0-2.42.36-3.1,1.03-.7.7-2.42,1.03-5.16,1.03-5.52,1.39-7.93,2.42-7.22,3.09.68.72,3.78,1.05,9.29,1.05,6.86,0,10.31-1.36,10.31-4.13-1.38,0-2.06-.33-2.06-1.03s-.71-1.03-2.07-1.03Zm4.13-660.39c-1.38-1.36-2.06-3.42-2.06-6.19h-2.07c-1.39,1.39-1.74,3.09-1.03,5.16.68,2.06,2.39,2.42,5.16,1.03Zm24.77,658.33c-16.52,0-22.7,2.06-18.57,6.18,1.36,1.39,5.83,2.08,13.41,2.08s10.65-1.36,9.29-4.13h2.06c4.13,4.13,6.19,4.84,6.19,2.06,1.36,0,2.74-.31,4.13-1.03,1.36-.67,3.42-.33,6.19,1.03,5.48,0,8.25-1.36,8.25-4.12,0-1.36-2.07-2.06-6.19-2.06h-24.76Zm-18.57-662.47c4.13,1.39,5.48,1.39,4.13,0,0-1.36-1.39-2.06-4.13-2.06-1.39,0-1.39.7,0,2.06Zm33.02-63.97c-4.13,0-4.84.7-2.07,2.06,1.36,0,2.07.36,2.07,1.03,0,.72.67,1.03,2.06,1.03h2.07c1.35,0,2.06-.67,2.06-2.06s-2.06-2.06-6.19-2.06Zm18.57,55.71c-1.38,0-2.06.36-2.06,1.03,0,.72.68,1.03,2.06,1.03,4.13,2.78,5.48,2.78,4.13,0l-4.13-2.06Zm35.09,668.64c-23.41,0-35.09,1.39-35.09,4.13,0,1.39,3.42,2.06,10.32,2.06s10.32-.67,10.32-2.06l2.06-2.06c1.36,0,2.75.7,4.13,2.06,0,2.76,1.35,4.12,4.13,4.12,1.35,0,2.06-.67,2.06-2.06-2.77-2.75,1.36-2.75,12.38,0h14.45c0-1.36,3.1-2.06,9.29-2.06h45.4c3.42,0,3.77-1.36,1.03-4.13-1.39-1.36-4.13-2.06-8.25-2.06-2.78,0-4.13.7-4.13,2.06s-1.39,1.39-4.13,0c-1.39,0-3.46-.31-6.19-1.03-2.77-.67-6.19-.33-10.32,1.03h-47.46Zm-30.95,47.48c-2.78,0-4.13,1.37-4.13,4.12,0,1.39.68,2.06,2.07,2.06l2.07-2.06c2.74-2.75,2.74-4.12,0-4.12Zm14.44-773.9c0-1.36-.7-2.08-2.06-2.08l-2.07,2.08h4.13Zm12.39,775.95h-6.19,10.32-4.13Zm2.06-720.24c-1.38,0-1.38.7,0,2.06,2.75,2.78,4.8,2.78,6.19,0,1.36,0,1.71-.33,1.03-1.03-.71-.67-2.42-1.03-5.16-1.03h-2.07Zm53.66,720.24c4.13,0,4.8-1.36,2.07-4.13-1.39,0-2.78.72-4.13,2.08-4.13,4.12-3.45,4.82,2.06,2.06Zm2.07-336.4c0-1.34.68-2.06,2.06-2.06l-4.13,2.06c-2.77,2.78-4.13,4.84-4.13,6.19v2.08c0-1.36,2.07-4.13,6.19-8.27Zm24.76-37.13c4.13-8.27,5.48-12.39,4.13-12.39l-2.06-2.06v2.06c1.36,1.39,1.36,2.78,0,4.12l-8.25,8.27c-6.91,12.37-4.84,12.37,6.19,0Zm20.64,323.99c-8.25,0-11.71.72-10.32,2.08,12.38,1.37,21.99,2.06,28.9,2.06s15.8-.69,26.83-2.06c0-1.36-1.39-2.08-4.13-2.08h-41.28Zm8.25,45.4c1.36,0,1.71-.31,1.03-1.03-.71-.67-1.74-1.03-3.1-1.03-1.38,1.39-2.77,2.06-4.13,2.06l2.07,2.08c2.74,0,4.13-.69,4.13-2.08Zm20.63,2.08c4.13-1.36,6.19-2.75,6.19-4.13h-2.06c-1.39,0-2.78-.67-4.13-2.06h-2.06c-1.39,0-2.77.7-4.13,2.06,0,2.78,2.06,4.13,6.19,4.13Zm2.07-705.81c-1.39-1.34-2.07-2.73-2.07-4.12h-2.06v2.06c0,1.39.68,2.78,2.06,4.13,0,1.39,1.36,2.06,4.13,2.06l-2.07-4.13Zm6.19,903.92c1.35-1.36,2.06-2.75,2.06-4.13v-2.06h-2.06c-1.39,1.39-2.07,2.76-2.07,4.12s.68,2.08,2.07,2.08Zm4.13-12.39v-6.19c0-1.36-.36-1.7-1.04-1.03-.7.7-1.03,1.75-1.03,3.09,0,4.13.68,5.52,2.07,4.13Zm10.31-233.2c-2.77,0-4.13.72-4.13,2.08s.68,2.06,2.07,2.06c2.74,0,4.13-.69,4.13-2.06,1.36-1.36.68-2.08-2.07-2.08Zm8.26,2.08c0,1.37.67,2.06,2.06,2.06l2.07-2.06v-2.08c-1.39,0-2.78.72-4.13,2.08Zm39.21-2.08c-22.02,0-33.02.72-33.02,2.08s8.93,2.06,26.83,2.06h20.64c2.74,0,5.48-.69,8.25-2.06,0-1.36-7.58-2.08-22.7-2.08Zm-16.51,43.34c-1.39,0-2.42-.33-3.1-1.03-.71-.69-1.74-1.03-3.1-1.03-5.52,0-7.58.7-6.19,2.06,6.87,2.78,11.68,2.78,14.45,0h-2.06Zm127.94-231.13c-5.51,13.76-2.77,11.02,8.26-8.27l8.25-20.63c0-1.36-2.07,1.39-6.19,8.25-4.13,6.9-7.58,13.76-10.32,20.64Zm28.9-57.79c-2.77,2.78-4.13,5.51-4.13,8.25,0,1.39,1.36-.67,4.13-6.19l2.06-4.12-2.06,2.06Zm6.19-10.31c-1.39,2.76-1.39,3.45,0,2.06,1.35-1.36,2.06-2.75,2.06-4.13-1.39,0-2.06.72-2.06,2.08Zm14.44-28.9c-4.13,6.9-6.19,11.02-6.19,12.37s1.35.72,4.13-2.06c2.74-2.75,4.13-6.86,4.13-12.39l2.06-6.18-4.13,8.25Zm10.32-22.7c-5.52,11.02-6.19,14.45-2.06,10.31,2.74-2.75,5.48-7.55,8.25-14.45l2.06-10.31c0,1.39-.71,2.78-2.06,4.12-1.39,1.39-3.45,4.84-6.19,10.33Zm10.32,305.43c-6.91,0-11.03.7-12.38,2.06,0,1.39.67,2.08,2.06,2.08h16.51c1.36,0,2.07-.69,2.07-2.08s-2.77-2.06-8.25-2.06Zm41.28,0h-21.67c-6.19,0-9.28.7-9.28,2.06,1.35,1.39,4.13,2.08,8.25,2.08h45.4c4.13,0,6.86-.69,8.25-2.08,0-1.36-10.32-2.06-30.95-2.06Zm10.31,43.34c1.36,0,2.07-.69,2.07-2.08l-2.07-2.06h-2.06c0,2.78.68,4.13,2.06,4.13Zm14.45-4.13c5.48,2.78,9.97,3.81,13.42,3.11,3.42-.69,3.77-2.39,1.03-5.16h-4.13c0,1.39-3.45,2.06-10.32,2.06l-8.25-2.06,8.25,2.06Zm16.52-39.21c-4.13,0-6.19.7-6.19,2.06s.68,2.08,2.06,2.08h4.13c4.13,0,6.19-.69,6.19-2.08s-2.06-2.06-6.19-2.06Zm26.83,0h-12.39c-4.13,0-6.19.7-6.19,2.06,1.35,1.39,4.13,2.08,8.25,2.08h22.7c17.86,0,26.12-.69,24.76-2.08-2.77-1.36-6.9-2.06-12.38-2.06h-24.76Zm8.25,39.21c0-1.36-.71-2.06-2.07-2.06l-2.06,2.06h4.13Zm47.46-352.89c-1.38,2.76-1.38,3.45,0,2.06,2.75-2.75,3.42-4.13,2.07-4.13s-2.07.72-2.07,2.08Zm10.32-14.45c-2.77,2.76-4.13,4.84-4.13,6.19v2.06l4.13-8.25c1.36,0,2.07-.69,2.07-2.08l-2.07,2.08Zm134.14-387.98c-2.77,0-6.19,2.06-10.31,6.18-4.13,4.13-6.19,6.91-6.19,8.27,0,2.76,1.03,3.79,3.1,3.09,2.06-.69,4.45-2.39,7.22-5.16,0-1.36.68-2.06,2.06-2.06,0,4.13,1.36,4.84,4.13,2.06,15.13-6.86,25.8-11.67,31.99-14.45,6.19-2.73,12.03-3.42,17.54-2.06,6.87,0,9.97-.33,9.29-1.03-.71-.69-4.49-1.72-11.35-3.09h-4.13c-9.64,0-16.52.7-20.64,2.06-11.02,2.76-18.57,4.84-22.7,6.19Z"/>
</svg>