<?xml version="1.0" encoding="UTF-8"?>
<svg id="Layer_1" data-name="Layer 1" xmlns="http://www.w3.org/2000/svg" viewBox="0 0 1700 1700">
  <defs>
    <style>
      .cls-1 {
        fill: #fccf3b;
      }

      .cls-1, .cls-2 {
        stroke-width: 0px;
      }
    </style>
  </defs>
  <g>
    <path class="cls-1" d="m5.31,899.63c-1.48-1.77-2.73-4.72-3.76-8.85-1.04-4.13-1.55-8.56-1.55-13.28,0-10.63,2.66-21.62,7.97-32.98,5.31-11.36,12.91-22.65,22.8-33.87,9.88-11.21,21.84-22.06,35.86-32.54,14.01-10.47,29.73-20.29,47.15-29.44,7.67-4.13,16.08-8.04,25.23-11.73,9.14-3.68,18.15-7.15,27.01-10.4,5.02-1.77,10.03-3.39,15.05-4.87,5.02-1.47,8.7-2.5,11.07-3.1,1.47-.59,2.21-1.03,2.21-1.33h.44c.29,0,.51-.07.66-.22.15-.15.37-.22.66-.22,1.47,0,2.5-.15,3.1-.44,1.17-.59,2.06-.89,2.66-.89.29,0,1.11-.14,2.43-.44,1.33-.29,2.8-.67,4.43-1.11,1.62-.44,3.17-.81,4.65-1.11,1.47-.29,2.5-.59,3.1-.88.29-.29.89-.44,1.77-.44,1.47-.29,2.88-.59,4.21-.89,1.33-.29,2.14-.44,2.43-.44.29-.29,1.18-.45,2.66-.45,6.49-.29,10.18-.88,11.07-1.77.29-.29.44-.29.44,0,0,.89.29,1.04.89.45h9.96c2.21,0,4.21.07,5.98.22,1.77.15,2.8.37,3.1.66.59,0,1.03-.14,1.33-.44.59-.59.73-.59.44,0,0,.6.73,1.04,2.21,1.33,1.77.59,2.66.74,2.66.44.59,0,.89.15.89.44,0,.6.89.89,2.66.89,1.47.3,2.66.52,3.54.66.89.15,1.47.22,1.77.22l.44.45c1.47.59,2.95,1.33,4.43,2.21.59,1.18.89,1.33.89.44-.3-.29-.37-.44-.22-.44s.51.3,1.11.89c3.54,2.95,5.16,4.42,4.87,4.42-.59,0-.3.6.89,1.77.29.6.59,1.19.89,1.77.29.6.44,1.04.44,1.33l.89,1.77c.59,0,1.03,1.55,1.33,4.65.29,3.1.29,5.83,0,8.19,0,1.19-.08,2.44-.22,3.77-.15,1.33-.22,2.29-.22,2.87-.3.89-.44,1.92-.44,3.1-.3.3-.44.67-.44,1.11s-.15.82-.44,1.11c0,.88-.3,1.62-.89,2.21-.3.3-.44.6-.44.88.29.3-.44,2.66-2.21,7.09-.59,1.18-.89,2.07-.89,2.65-.3.6-.74,1.55-1.33,2.88-.59,1.33-1.04,1.99-1.33,1.99s-.44.15-.44.45c0,.59-.52,1.92-1.55,3.98-1.04,2.07-1.85,3.4-2.43,3.99l-.89,1.77c.29.3-.15,1.04-1.33,2.21-.3.3-.44.6-.44.89s-.15.44-.44.44v1.33c-.6,1.18-.89,1.92-.89,2.21l-.89.89c-.3,0-.44.29-.44.88l-1.77,2.66-.89,1.77c-.3.3-.44.6-.44.88,0,.6.89-.66,2.66-3.76s5.16-8.48,10.18-16.16c2.36-3.83,4.27-7.01,5.76-9.52,1.47-2.5,2.21-3.61,2.21-3.32,0,.6-.96,2.59-2.88,5.98-1.92,3.4-4.28,7.53-7.08,12.4-2.81,4.87-5.98,10.11-9.52,15.71-3.54,5.61-7.08,11.07-10.62,16.38-2.66,4.14-5.17,7.97-7.53,11.51-2.36,3.54-3.84,5.91-4.43,7.09-1.18,2.07-2.81,5.02-4.87,8.85-2.07,3.84-4.14,7.68-6.2,11.51-2.07,3.84-4.43,8.57-7.08,14.17h13.28c3.83,0,7.82-.15,11.95-.44,4.13,0,8.26-.07,12.4-.22,4.13-.14,6.93-.07,8.41.22h23.91l4.43-10.63c3.54-8.26,7.45-16.97,11.73-26.12,4.28-9.14,8.78-18.3,13.5-27.45,4.72-9.14,9.52-17.93,14.39-26.34,4.87-8.41,9.52-16.16,13.95-23.24,3.24-4.43,6.27-8.56,9.08-12.4,2.8-3.83,4.5-6.04,5.09-6.64.59-.59.37.08-.66,1.99-1.04,1.92-2.14,3.62-3.32,5.09-2.07,2.66-4.21,5.69-6.42,9.08-2.21,3.4-3.17,5.24-2.88,5.53,0,.3-.15.45-.44.45s-1.4,1.48-3.32,4.42c-1.92,2.96-4.21,6.64-6.86,11.07s-5.31,9.01-7.97,13.73c-2.66,4.72-4.72,8.56-6.2,11.51l-.89,1.77,1.33-.89c.89-.88,1.33-1.77,1.33-2.65.59-1.18,1.17-2.06,1.77-2.66.29-.29.51-.66.66-1.11.14-.44.37-.95.66-1.55,0-.29.15-.66.44-1.1.29-.45.59-.96.89-1.55,2.95-4.43,4.72-7.53,5.31-9.3,0-.29.07-.44.22-.44s.22-.15.22-.45l.44-.44c.59,0,.89-.29.89-.88,0-.29.29-.74.89-1.33.59-.59,1.18-1.62,1.77-3.1.59-1.47,1.4-2.88,2.43-4.21,1.03-1.33,1.99-2.58,2.88-3.76,0-.29.29-.73.89-1.33l.44-.44c0-.29.44-1.18,1.33-2.66,3.54-4.13,5.31-6.93,5.31-8.41,0-.29.29-.44.89-.44.29,0,1.47-1.4,3.54-4.21,2.06-2.8,3.1-4.49,3.1-5.09,0-.29.14-.59.44-.88l1.77-1.77c1.18-1.17,1.77-2.06,1.77-2.65l.44-.89c.59,0,.89-.29.89-.88,0-.29.44-.89,1.33-1.77,1.18-.59,1.47-.89.89-.89l.89-1.77,1.77-1.77c0-.59.89-1.77,2.66-3.54,1.77-1.77,2.66-2.95,2.66-3.54s.15-.89.44-.89c.59,0,.89-.29.89-.88,0-.29.15-.59.44-.89.29.3,1.18-.29,2.66-1.77,1.47-1.47,2.06-2.36,1.77-2.66,0-.59,1.33-1.47,3.98-2.65,0-.59.29-.89.89-.89h.89c-.3.3.15.44,1.33.44s3.32.3,6.42.89c3.1.6,4.94,1.04,5.53,1.33,0,.3,1.03.44,3.1.44s3.1.3,3.1.89c.29.29.59.52.89.66.29.15.59.37.89.66.89.6,1.33,1.04,1.33,1.33-.3.3-.15.89.44,1.77.59.6.89,1.77.89,3.54s-.44,3.4-1.33,4.87c-.59,1.19-1.18,1.77-1.77,1.77-.3,0-.3.15,0,.45-.3,0-.44.15-.44.44s-.15.6-.44.89c-.3.29-.3.44,0,.44.29-.29.44-.37.44-.22s-.3.37-.89.66c-.59,1.19-1.18,1.48-1.77.89v.44c.29.6.15,1.18-.44,1.77-.6.6-.6.89,0,.89.29,0,.37.07.22.22-.15.15-.52.22-1.11.22-.89.88-1.33,1.62-1.33,2.21s-.3.89-.89.89c-.3.3-.6.44-.89.44s-.44.15-.44.44.29.45.89.45l-1.33.88c-.6.6-.96,1.04-1.11,1.33-.15.3-.08.3.22,0,1.18-.59,1.33-.44.44.44,0,.3-.15.44-.44.44h-.89c-.59,0-.89.45-.89,1.33-.3.3-.44.6-.44.89s-.15.44-.44.44-.44.3-.44.89c-.3.29-.44.59-.44.88-.3.3-.44.52-.44.67s-.15.37-.44.66c-.59.6-.89,1.04-.89,1.33l-.44.44v.44l-.89.45c-.3.29-.44.88-.44,1.77.29,0,.37.07.22.22-.15.15-.37.22-.66.22-.59,0-1.18.6-1.77,1.77-.89,1.48-1.48,2.21-1.77,2.21v.89c0,.6-.15.89-.44.89-.89,0-1.33.29-1.33.88s-.15.89-.44.89l-.44.44c-.3.3-.44.6-.44.88-.59.89-1.04,1.19-1.33.89-.3,0-.44.3-.44.89,0,.88-.3,1.33-.89,1.33l-.44.45c0,.29-.08.44-.22.44s-.22.15-.22.44c0,.6-.74,1.63-2.21,3.1-1.18,1.18-1.77,2.07-1.77,2.66.29.3.29.44,0,.44-.6-.59-.89-.29-.89.89-.3.29-.44.59-.44.88s-.15.44-.44.44c-.6-.59-.89-.44-.89.45,0,.59-.6,1.33-1.77,2.21-.59.6-.89,1.04-.89,1.33-.3.3-.44.59-.44.88.29.3.15.45-.44.45l-.44.88c0,.3-.15.6-.44.89-.3,0-.44.15-.44.44,0,.6-.3,1.04-.89,1.33l-.44.44c.59,0,0,1.04-1.77,3.1-.89.88-1.33,1.63-1.33,2.21,0,.3-.59,1.19-1.77,2.66-1.18,1.48-2.07,2.37-2.66,2.66v.88l.44.44c.59-.59,1.55-1.84,2.88-3.76,1.33-1.91,2.66-3.83,3.98-5.75,1.33-1.92,3.02-4.5,5.09-7.75,0-.59.15-.73.44-.45.59-1.17,1.47-2.36,2.66-3.54.89-1.17,1.84-2.5,2.88-3.98,1.03-1.47,2.28-2.95,3.76-4.43,3.83-5.31,7.67-10.33,11.51-15.05,3.83-4.72,7.3-9.08,10.4-13.06,3.1-3.99,5.76-7.31,7.97-9.96,2.21-2.66,3.76-4.43,4.65-5.32,1.47-1.47,1.77-1.4.89.22-.89,1.62-2.81,4.06-5.76,7.3-3.25,3.84-7.01,8.49-11.29,13.95-4.28,5.46-8.63,11.14-13.06,17.04-4.43,5.91-8.78,11.81-13.06,17.71-4.28,5.91-8.04,11.22-11.29,15.94-5.91,7.97-11,15.27-15.27,21.91-4.28,6.64-6.72,10.41-7.3,11.29,0,.89-.3,1.33-.89,1.33-.3,0-.74.74-1.33,2.21-.3,1.48-1.33,3.1-3.1,4.87-.3.3-.44.6-.44.89.29.3,0,1.04-.89,2.21-.6.6-.89,1.04-.89,1.33l-.44.44c.59,0,.29.6-.89,1.77-.59.6-1.18,1.77-1.77,3.54-.3.59-.6,1.18-.89,1.77-.3.59-.6,1.18-.89,1.77-.6.6-.89,1.33-.89,2.21l-1.33,1.33v.44c.29,0,.15.3-.44.89l-.89,1.77c-.3,0-.44.15-.44.44s-.15.6-.44.89l-.89,1.77c0,.3-.3.74-.89,1.33-.89.88-.89,1.48,0,1.77.29.3.29.44,0,.44-.59,0-.89.3-.89.89s-.3.88-.89.88v.44c1.47.3,2.95.45,4.43.45h10.18c7.67-.29,12.69-.29,15.05,0,2.36.29,3.69,1.18,3.98,2.65.29.6.59.96.89,1.11.29.15.44-.07.44-.66,0-.29.15-.45.44-.45.29.3.59.52.89.67.29.15.59.37.89.66,2.36,1.77,2.36,3.25,0,4.43-.59.3-1.48.44-2.66.44-.89,0-1.33.3-1.33.89,0,.29-.15.44-.44.44,0-.59-.44-.44-1.33.44-.59.6-1.18.89-1.77.89s-.89-.29-.89-.89c-.59-.59-1.04-.44-1.33.44-.89.3-1.92.3-3.1,0-1.18-.59-1.48-.59-.89,0,0,.3-.15.3-.44,0-.89,0-1.63.15-2.21.45h-.89c0-.59.29-.89.89-.89.29,0,.44-.07.44-.22s-.3-.22-.89-.22-.89.3-.89.88c-.3.6-1.7.89-4.21.89s-4.06-.29-4.65-.89c-.89-.59-1.48-.73-1.77-.44-.3.6-1.26.96-2.88,1.11-1.63.15-2.59-.07-2.88-.67-.3-.29-.44-.29-.44,0,0,.6-.74.89-2.21.89h-1.33c-.3,0-.44-.14-.44-.44.29-.29-.15-.45-1.33-.45h-.89c.59.3.81.6.66.89-.15.3-.52.3-1.11,0-.3,0-.6-.14-.89-.44.59-.59.44-.89-.44-.89s-1.04.3-.44.89c0,.59-.15.88-.44.88s-.74.6-1.33,1.77c0,.89-.3,1.63-.89,2.22-.3,0-.44.44-.44,1.33s-.3,1.33-.89,1.33c-.3,0-.6.3-.89.89-.3.6-.44,1.18-.44,1.77s-.37,1.55-1.11,2.88c-.74,1.33-1.26,1.99-1.55,1.99s-.44.15-.44.44c.29.3.29.6,0,.89-.3.3-.44.59-.44.88.29.3.15.45-.44.45l-.44.88c0,.6-.15.89-.44.89s-.44.07-.44.22.14.22.44.22c.89.6.89,1.04,0,1.33-.89,0-1.33.74-1.33,2.21-.3.6-.52,1.11-.66,1.55-.15.44-.37.82-.66,1.11-.59.59-.89,1.04-.89,1.33s-.15.59-.44.88c-.3,0-.44.15-.44.44v.45c-.6,0-.89.88-.89,2.65-.6,1.48-1.04,2.22-1.33,2.22l-.44.88h.89l-.89.89c-.3.3-.44.59-.44.88s-.15.45-.44.45v.88c-.3.3-.44.6-.44.89,0,.59-.22,1.48-.66,2.65-.44,1.19-.96,2.22-1.55,3.1-.59,1.19-.89,2.07-.89,2.66,0,.3-.3.44-.89.44-.3,0-.44.3-.44.89.89.88.89,1.33,0,1.33-.3.3-.44.74-.44,1.33.29.3.15.74-.44,1.33-.59.6-.74.89-.44.89l-.44.88c-.59.6-.59,1.04,0,1.33l-.44.44c-.6,0-.89.45-.89,1.33,0,.59-.3,1.77-.89,3.54-.3.59-.59,1.25-.89,1.99-.3.74-.44,1.26-.44,1.55,0,.89-.15,1.48-.44,1.77-.3,0-.44.29-.44.88.29.29.29.44,0,.44-.89,0-1.04.29-.44.89,0,.59-.15,1.03-.44,1.33l-.44.44v.88c0,.29-.15.59-.44.89-.3,0-.44.44-.44,1.33,0,.29-.3,1.03-.89,2.21-.59,1.18-.89,1.92-.89,2.22,0,.88-.3,1.33-.89,1.33-.6.59-.89,1.48-.89,2.66,0,.29-.08.51-.22.66-.15.15-.22.37-.22.67v2.21c-.3.59-.44,1.18-.44,1.77s-.15,1.18-.44,1.77c-.3,1.77-.44,3.54-.44,5.32v7.52c0,2.95-.08,4.8-.22,5.54-.15.73-.66,1.84-1.55,3.32-1.18,2.06-1.63,3.24-1.33,3.54,0,.59-.3.88-.89.88s-.74-.29-.44-.88c0-.89-.15-1.33-.44-1.33s-.44.29-.44.89-.3.88-.89.88v.44c0,.29-.15.45-.44.45-.3.29-1.04.44-2.21.44-.6.59-1.33.44-2.21-.44-.59-.6-1.26-1.41-1.99-2.44-.74-1.04-1.11-1.99-1.11-2.88s-.15-1.18-.44-.88c-.3,0-.44-.44-.44-1.33,0-5.91-.3-8.27-.89-7.08-.3.29-.44.29-.44,0,0-.6.15-.89.44-.89.29-.3.44-.59.44-.88-.3-.3-.44-1.33-.44-3.1s.07-3.7.22-5.76c.15-2.07.29-4.06.44-5.97.15-1.92.22-3.18.22-3.77.29-.59.37-.96.22-1.1-.15-.15-.22-.38-.22-.67-.59-.6-.59-1.33,0-2.21.59-.6.89-1.41.89-2.44s.15-2.43.44-4.2c0-3.54.14-5.32.44-5.32s.44-.59.44-1.77v-1.77c.29.29.44.15.44-.44v-1.77c.59-.6.89-1.77.89-3.54,0-.59.15-1.48.44-2.66.29-1.17.59-2.21.89-3.1.59-2.06.89-3.46.89-4.2s-.3-.22-.89,1.55c-.59,1.48-1.26,3.54-1.99,6.2-.74,2.66-1.41,5.38-1.99,8.19-.59,2.8-1.18,5.54-1.77,8.19-.59,2.66-1.04,4.58-1.33,5.76-.3,1.77-.52,3.98-.66,6.64-.15,2.66-.37,5.16-.66,7.53-.3,5.9-.6,9.07-.89,9.52-.3.45-.3-2.29,0-8.19.29-5.9.59-10.62.89-14.16.29-3.54,1.17-8.27,2.66-14.17.89-3.54,1.99-7.67,3.32-12.4,1.33-4.72,2.88-9.59,4.65-14.61,1.77-5.01,3.69-10.03,5.76-15.05,2.06-5.01,3.98-9.74,5.76-14.16l1.33-2.66c.29-.59.44-1.03.44-1.33s-.52-.51-1.55-.66c-1.04-.15-2.29-.07-3.76.22h-3.76c-1.04,0-1.7-.15-1.99-.44h-.89c-.3.29-1.48.44-3.54.44-1.77,0-2.66-.15-2.66-.44.59-.59.44-.89-.44-.89-.59,0-.74.15-.44.44.29.6.14.96-.44,1.11-.59.15-1.18-.07-1.77-.66-.3,0-.44-.15-.44-.45v.45c0,.59-1.33.88-3.98.88h-2.66c-.59,0-.89-.14-.89-.44.29-.29.15-.44-.44-.44-.3,0-.44.15-.44.44l-.89.44c-1.48,0-2.37.15-2.66.44h-7.08c-1.48.3-2.73.45-3.76.45s-1.7.15-1.99.44c-.59,0-1.04-.15-1.33-.44,0-.29-.08-.45-.22-.45s-.22.15-.22.45c-.3.29-1.04.44-2.21.44-1.18-.29-1.63-.59-1.33-.89.29-.29,0-.44-.89-.44-1.48,0-2.21.3-2.21.89s-.44.88-1.33.88c-.59-.29-1.18-.36-1.77-.22-.6.15-1.18.22-1.77.22-1.77.6-2.37.6-1.77,0,.59-.59.44-.88-.44-.88,0,.59-.3.88-.89.88-.6.3-1.92.6-3.98.89-2.07.3-3.84.3-5.31,0-.59,0-1.4.82-2.43,2.43-1.04,1.63-3.17,5.98-6.42,13.06-2.07,4.43-4.43,9.52-7.08,15.28-2.66,5.75-4.87,10.7-6.64,14.83-3.25,7.08-5.31,11.58-6.2,13.5-.89,1.92-1.33,2.44-1.33,1.55,0-.3-.15-.6-.44-.89-.3,0-.44.29-.44.89,0,.29-.3,1.03-.89,2.21-.59.59-.89,1.03-.89,1.33v.44c0,.59-.15,1.03-.44,1.33-.89.89-1.33,2.36-1.33,4.43,0,.88-.3,1.33-.89,1.33-.3,0-.44.14-.44.44.29.59-.59,1.92-2.66,3.98-.59,1.18-1.18,2.14-1.77,2.88-.6.73-.89,1.25-.89,1.55s-.15.59-.44.89c-.3,0-.44.29-.44.88s-.15,1.03-.44,1.33c-.59,0-.89.44-.89,1.33.29.59-.15,1.47-1.33,2.66-1.18,1.17-2.07,1.91-2.66,2.21-1.18,0-1.77.29-1.77.88.29.29.15.45-.44.45-.59-.6-.74-.89-.44-.89.29-.59.07-.82-.66-.66-.74.14-1.26.36-1.55.66-.3.29-.44.29-.44,0,0-.59-.3-.88-.89-.88s-.89.29-.89.88.29,1.03.89,1.33c.89,0,1.47-.15,1.77-.44.29-.3.59,0,.89.88,0,.59-.3.73-.89.45-.6,0-1.4-.3-2.43-.89-1.04-.6-1.55-1.04-1.55-1.33s-.44-.44-1.33-.44c-1.18.29-2.51-.44-3.98-2.21-1.48-1.48-2.51-2.22-3.1-2.22v-.88c.29-.6.44-1.19.44-1.77-.59,0-.59-1.63,0-4.87.59-2.66.59-4.28,0-4.87-.3-.6-.74-.6-1.33,0,0,.29-.08.51-.22.66-.15.14-.22.07-.22-.22v-.44l.44-.45c0-.3.07-.52.22-.66.15-.15.22-.38.22-.67,0-1.48.15-2.81.44-3.98.29-1.77.51-3.18.66-4.21.15-1.03.96-3.03,2.43-5.97,1.47-3.25,2.43-5.31,2.88-6.2.44-.89.95-2.36,1.55-4.43,0-.29.29-1.03.89-2.21.29-.29.44-.73.44-1.33.59-.59,1.33-1.77,2.21-3.54.89-1.77,1.33-2.95,1.33-3.54,0-.29.15-.59.44-.89,0-.29.29-1.03.89-2.21.29-.59.59-1.25.89-1.99.29-.74.59-1.4.89-1.99l1.33-1.33.44-.89c0-1.17.59-2.5,1.77-3.98,1.18-2.36,1.77-3.69,1.77-3.99s.29-1.03.89-2.21c.89-.89,1.33-1.92,1.33-3.1,0-.29.15-.67.44-1.11.29-.44.59-.95.89-1.55.29-.29.44-.51.44-.66s.15-.37.44-.67c0-.29.15-.59.44-.88,0-1.18.29-1.92.89-2.21.59-.59.59-.89,0-.89v-.44l.89-.45c.59-.59.44-.88-.44-.88-.3.3-.74.82-1.33,1.55-.59.74-1.33,1.85-2.21,3.32-1.18,2.37-3.17,6.27-5.98,11.73-2.81,5.47-5.69,11.15-8.63,17.05-2.95,5.9-5.61,11.29-7.97,16.16-2.37,4.87-3.84,7.9-4.43,9.08-1.18,2.66-1.92,4.21-2.21,4.65-.3.44-.59.51-.89.22,0-.3.59-1.92,1.77-4.87,1.18-2.95,2.88-6.79,5.09-11.51,2.21-4.72,4.79-9.96,7.75-15.72,2.95-5.75,5.9-11.43,8.85-17.04,1.77-3.24,3.32-6.2,4.65-8.86s1.99-4.13,1.99-4.42c0-.59-2.51-.45-7.53.44h-2.21c-.89,0-1.63.15-2.21.44-.6,0-1.11.08-1.55.22-.44.15-.82.22-1.11.22-.3.29-.44.29-.44,0s.29-.74.89-1.33c.59-.29.44-.59-.44-.89-.3,0-.59.15-.89.44,0,.89-.3,1.48-.89,1.77-.59.29-2.07.74-4.43,1.33h-1.77c-.6.6-1.04.6-1.33,0-.3,0-.59.15-.89.45.29.29,0,.44-.89.44-1.18,0-1.92.15-2.21.44-.59.6-1.77.89-3.54.89-.6,0-1.04.07-1.33.22-.3.15-.59.22-.89.22h-.89c-.59.6-1.33.88-2.21.88-2.36.6-3.84.89-4.43.89s-.89.15-.89.44-.44.45-1.33.45h-1.77c-.3.29-.74.44-1.33.44,0-.29-.15-.29-.44,0-.3.6-1.11.96-2.43,1.11-1.33.15-2.15.07-2.43-.22-.6-1.17-.89-1.03-.89.45-.3.59-.74.3-1.33-.89,0-.88-.3-1.33-.89-1.33v.45c.89.88.44,1.04-1.33.44-1.18-.29-1.77-.15-1.77.44.29.3.44.52.44.67s-.15.07-.44-.22c-.59,0-.89-.29-.89-.88s-.15-.73-.44-.44l-.44-.45c-.3,0-.74-.29-1.33-.88-2.07-2.06-2.21-4.72-.44-7.97.59-.59.89-1.33.89-2.21,0-.29.15-.59.44-.89.29,0,.44-.44.44-1.33s.37-1.84,1.11-2.88c.73-1.03,1.4-1.84,1.99-2.43.59-.59,1.33-.95,2.21-1.11.89-.14,2.51-.51,4.87-1.1.59,0,1.33-.07,2.21-.22.89-.14,1.62-.22,2.21-.22.59-.29,1.47-.51,2.66-.66,1.18-.15,2.06-.37,2.66-.67,1.77,0,2.95-.29,3.54-.88,0-.29.07-.44.22-.44s.22.15.22.44c0,.6.15.74.44.44s1.62-.51,3.98-.66c2.36-.15,3.98-.22,4.87-.22.59,0,.89-.15.89-.45h2.21c2.06,0,3.24-.14,3.54-.44.29,0,1.11-.07,2.43-.22,1.33-.14,2.73-.22,4.21-.22,1.47-.29,3.02-.44,4.65-.44s2.88-.15,3.76-.45h4.87c1.77,0,4.28-.14,7.53-.44h1.55c.44,0,1.11-.66,1.99-1.99s2.28-3.61,4.21-6.86c1.92-3.25,4.79-7.97,8.63-14.17,3.24-5.02,6.49-10.25,9.74-15.72,3.24-5.46,5.6-9.52,7.08-12.17,4.72-7.09,9.52-14.68,14.39-22.8,4.87-8.12,8.92-14.83,12.17-20.15,11.8-20.36,16.53-31.87,14.17-34.53-.59-.59-.82-.95-.66-1.11.14-.14.51-.07,1.11.22,1.47.59,1.7,2.95.66,7.08-1.04,4.14-3.03,9.15-5.98,15.05-1.48,2.66-3.32,6.05-5.53,10.18-2.21,4.14-4.73,8.57-7.53,13.28-2.81,4.72-5.69,9.52-8.63,14.39-2.95,4.87-5.76,9.52-8.41,13.95-3.54,5.31-5.53,8.41-5.98,9.3-.44.88-.37,1.04.22.44.89-.89,1.62-1.77,2.21-2.66.59-.88,1.11-1.84,1.55-2.87.44-1.03,1.4-2.44,2.88-4.21,0-.59.14-1.03.44-1.33s.59-.73.89-1.33c.29-.29.44-.51.44-.66s.15-.37.44-.66c0-.29.15-.45.44-.45,0-.59.15-.88.44-.88l1.77-1.77c.29-.59.66-1.25,1.11-1.99.44-.73.95-1.4,1.55-1.99l.89-2.21c0-.59.15-.89.44-.89.59,0,1.03-.59,1.33-1.77.59-1.47,1.33-2.36,2.21-2.65.29-.59.59-.96.89-1.11.29-.15.44-.37.44-.67s.44-1.17,1.33-2.65c0-.29.29-.73.89-1.33l.44-.44c0-.59.44-1.33,1.33-2.22l1.77-2.65c0-.29.15-.45.44-.45s.44-.29.44-.88.29-.89.89-.89c.29,0,.73-.51,1.33-1.55.59-1.03,1.77-3.32,3.54-6.86l.89-.88c.29,0,.44-.15.44-.45,0-.59.59-1.47,1.77-2.65l.89-2.22.44-.44.89-1.77c1.18-1.47,1.47-2.5.89-3.1l.89-.44c.59,0,.73-.15.44-.44,0-.59.29-.89.89-.89.29-.29.44-.88.44-1.77-.6-1.17-.44-1.77.44-1.77-.3.3-.3.6,0,.88.59,0,.89-.44.89-1.33s.15-1.33.44-1.33.59-.44.89-1.33c.29-.89.44-1.47.44-1.77l.44-.44c.29-.29.73-1.18,1.33-2.66.59-1.47.59-2.06,0-1.77-.59,0-.59-.15,0-.44.89-.89,1.33-1.48,1.33-1.77v-1.77c.59-.59.89-1.4.89-2.43s-.15-1.55-.44-1.55-.44-.59-.44-1.77c0-.89-.3-2.21-.89-3.99-.59-1.77-1.18-2.65-1.77-2.65l-1.77-.89c-.3-.59-.74-.95-1.33-1.1-.59-.15-1.18-.37-1.77-.67-.6,0-1.18-.07-1.77-.22-.6-.14-1.04-.22-1.33-.22-.89,0-1.33.15-1.33.44s.29.44.89.44c.29,0,.51.08.66.22.15.15.37.22.66.22,0,.3-.44.44-1.33.44-.89-.29-1.33-.73-1.33-1.33s-.59-.81-1.77-.66c-1.18.15-1.92.52-2.21,1.1-.3.6-.52.89-.66.89s-.08-.29.22-.89c0-.59-.15-.88-.44-.88-.59,0-1.04.3-1.33.88-.59.6-.74.6-.44,0,.29-.59.15-.95-.44-1.1-.59-.15-1.04.08-1.33.66h-1.33c-.89,0-1.33.15-1.33.44-.3.6-.44.6-.44,0s-.3-.59-.89,0c-.6.3-.89.3-.89,0s-.44-.44-1.33-.44c-.59,0-.89.15-.89.44.29.3-.15.45-1.33.45s-2.07-.29-2.66-.89c-.3,0-.3.15,0,.44,0,.6-.3.89-.89.89-.59.3-.82.15-.66-.44.15-.59.51-1.03,1.11-1.33l.44-.44c-.3-.29-.74-.15-1.33.44h-1.33c-.3-.59-.44-.73-.44-.44.59.59.59.88,0,.88h.44c.89,0,.89.6,0,1.77-.3.3-.44.3-.44,0,0-.59-.59-.88-1.77-.88-.89,0-1.18.15-.89.44l-.44.44c-.3,0-.44.08-.44.22,0,.15.15.22.44.22,0,.59-.15.59-.44,0-.6-.59-1.11-.89-1.55-.89s-.37.3.22.89c0,.59-.15.74-.44.44-.6-.29-1.63-.37-3.1-.22-1.48.15-2.07.52-1.77,1.1.29.3,0,.45-.89.45s-1.63-.29-2.21-.89c-.89-.59-1.48-.88-1.77-.88s0,.29.89.88l1.33.89-2.21.44c-.89,0-1.33.3-1.33.88,0,.3-.15.3-.44,0-.59-.29-1.48-.29-2.66,0-1.18.3-2.07.74-2.66,1.33h-.44c-.59,0-.89-.14-.89-.44-.3-.29-.52-.44-.66-.44s-.08.15.22.44c.59.6.59.89,0,.89s-1.63.29-3.1.88c-1.48.3-2.37.3-2.66,0-.3-.29-.52-.44-.66-.44s-.08.15.22.44c.29.6-.08,1.04-1.11,1.33-1.04.3-2.14.6-3.32.88-.89,0-1.33.15-1.33.45.29.3-.52.66-2.43,1.1-1.92.45-3.17.67-3.76.67l-.44.44c.29,0-.44.3-2.21.89-2.07.59-3.84,1.33-5.31,2.21-.6.3-1.18.52-1.77.66-.59.15-1.18.38-1.77.67-.89,0-1.33.15-1.33.44l-.44.44c-.59.6-1.18.89-1.77.89h-1.77c-.6,0-1.33.44-2.21,1.33-.89.59-2.43,1.4-4.65,2.43-2.21,1.04-3.62,1.41-4.21,1.11l-.44.88c0,.6-.3.89-.89.89-.6-.29-1.92.08-3.98,1.11-2.07,1.04-3.25,1.7-3.54,1.99,0,.88-.3,1.04-.89.44-.59,0-1.04.15-1.33.44-.89.89-1.77,1.48-2.66,1.77-1.18.59-2.07,1.18-2.66,1.77-.3.29-.52.44-.66.44s-.37.15-.66.44c-.59,0-1.48.3-2.66.89-1.18.59-1.92.74-2.21.44h-.44c.59.6.59,1.11,0,1.55-.59.44-1.18.66-1.77.66-.89,0-1.33.3-1.33.89h-.89c0,.3-.59.74-1.77,1.33-.89.59-1.7,1.04-2.43,1.33-.74.29-1.99,1.18-3.76,2.65-1.77,1.19-2.66,1.48-2.66.89l-.44.44c-.3,0-.44.08-.44.22,0,.15-.15.22-.44.22-1.18,1.19-1.92,1.48-2.21.89-.6,0-.6.3,0,.88,0,.6-.15.74-.44.45l-.89.44c-.3.3-.89.44-1.77.44-.3-.29-.52-.44-.66-.44s-.08.15.22.44c.29.6.07,1.19-.66,1.77-.74.6-1.4.74-1.99.44-.3-.29-.44-.29-.44,0s-.59.89-1.77,1.77c-1.48.59-2.21,1.04-2.21,1.33s-.15.45-.44.45c0-.29-.08-.37-.22-.22-.15.15-.22.37-.22.66-.59.6-1.18.88-1.77.88-.89,0-1.33.3-1.33.89s-.3.6-.89,0c-.3-.29-.52-.44-.66-.44s-.08.15.22.44c.29.6-.3,1.41-1.77,2.44-1.48,1.03-2.51,1.4-3.1,1.1-.3-.29-.44-.29-.44,0,.59.6-.15,1.33-2.21,2.22-1.77,1.18-2.81,1.92-3.1,2.21,0,.3-1.18,1.33-3.54,3.1-2.95,1.77-6.42,4.43-10.4,7.97-3.98,3.54-8.12,7.52-12.4,11.95-4.28,4.43-8.34,8.93-12.17,13.5-3.84,4.58-7.08,8.64-9.74,12.18-2.66,3.84-5.09,8.12-7.3,12.84-2.21,4.72-4.06,9.15-5.53,13.28-.59,2.37-1.11,5.91-1.55,10.62-.44,4.73-.37,8.57.22,11.51,0,.59.07,1.1.22,1.55.15.45.22.96.22,1.55v1.33c-.6.6-1.18-2.36-1.77-8.85-1.18-9.44.73-19.63,5.76-30.55,1.47-2.95,1.92-4.27,1.33-3.98-.89.88-1.18,1.48-.89,1.77-.3,0-.44.15-.44.44s-.15.6-.44.88c-.89.89-1.18,1.48-.89,1.77l-.89.88c-.3.3-.44.74-.44,1.33s-.15.88-.44.88-.44.15-.44.45-.44,1.33-1.33,3.1c-.6,1.48-.74,2.07-.44,1.77.89,0,.73.3-.44.88-.6,1.19-.89,1.92-.89,2.22s-.3,1.04-.89,2.21c-.59,1.18-.89,2.21-.89,3.1l-.89,1.77c-.3,0-.44.3-.44.89.29.29-.15,2.81-1.33,7.52-1.18,3.84-1.85,7.09-1.99,9.74-.15,2.66.07,5.61.66,8.86.59,2.36,1.4,4.94,2.43,7.74,1.03,2.81,2.28,4.95,3.76,6.42,2.06,2.66,1.62,3.99-1.33,3.99-1.18,0-1.77.15-1.77.44,0,.6-.59.6-1.77,0-.3,0-.44-.07-.44-.22s-.15-.22-.44-.22h-.44c0,.3-.89,0-2.66-.89-1.48-.88-3.1-2.21-4.87-3.98-1.77-1.77-3.25-3.39-4.43-4.87l-1.77-2.66h-.44c0-.59-.44-1.17-1.33-1.77-.59-.59-1.4-1.84-2.43-3.76-1.04-1.92-1.4-2.88-1.11-2.88l-.44-1.77c-.59-.59-.89-1.47-.89-2.66.29-.29.37-.51.22-.66-.15-.15-.37-.07-.66.22-.3,0-.3-.29,0-.89.29-.59.29-.88,0-.88-.59,0-.59-.29,0-.89.59-.59.73-1.17.44-1.77v-3.1c.29-2.95.44-5.53.44-7.74s-.15-3.32-.44-3.32-.44-.07-.44-.22c0-.14.15-.22.44-.22.59-.59.89-1.77.89-3.54v-1.77c0-.29.15-.59.44-.89.29-.29.44-.88.44-1.77,0-1.17.14-1.77.44-1.77.59-.59,1.03-2.06,1.33-4.42,0-1.18.29-1.77.89-1.77v-.44l.44-.88c0-1.18.15-1.77.44-1.77.29-.29.44-.59.44-.89-.3-.29-.15-.89.44-1.77.59-.59.89-1.17.89-1.77,0-.29.15-.81.44-1.55.29-.73.59-1.4.89-1.99.29-.59.44-1.03.44-1.33s.15-.59.44-.89c0-.29.15-.59.44-.88-.3,0,0-.73.89-2.22.89-1.47,1.62-2.5,2.21-3.1l.44-.88v-.44c0-.29,1.03-2.06,3.1-5.32.29-.59.59-1.1.89-1.55.29-.44.59-.95.89-1.55l.89-1.77c0-.29.15-.59.44-.88.59,0,1.33-.73,2.21-2.21,4.72-7.09,10.77-14.32,18.15-21.7,2.36-2.36,3.24-3.54,2.66-3.54,0-.29.15-.44.44-.44s1.47-.81,3.54-2.44c2.06-1.62,3.69-3.17,4.87-4.65.59-.29.95-.59,1.11-.88.15-.29.37-.44.66-.44s.59-.15.89-.45.51-.44.66-.44c.14,0,.51-.29,1.11-.89,1.47-1.47,2.5-2.21,3.1-2.21l.89-.88c-.59-.59-.44-.89.44-.89.29,0,1.47-.66,3.54-1.99,2.06-1.33,3.54-2.44,4.43-3.32.59-.29,1.4-.81,2.43-1.55,1.03-.73,2.28-1.55,3.76-2.44,1.47-.88,2.73-1.69,3.76-2.43,1.03-.73,1.84-1.4,2.43-1.99.59-.29,1.11-.59,1.55-.89.44-.29.96-.59,1.55-.88.59-.29,1.25-.59,1.99-.89.73-.29,1.4-.73,1.99-1.33.59-.59,1.18-1.03,1.77-1.33.59-.29,1.18-.59,1.77-.88.89,0,1.33-.29,1.33-.89,0-.29.29-.44.89-.44.29,0,1.33-.59,3.1-1.77.59-.59,1.18-1.03,1.77-1.33.59-.29,1.18-.59,1.77-.88.59-.29,1.33-.67,2.21-1.11s1.77-.95,2.66-1.55c2.06-1.47,3.54-2.21,4.43-2.21.29-.29.59-.51.89-.67.29-.14.59-.36.89-.66.59-.59.89-.73.89-.45s.15.3.44,0c.59-.59,2.06-1.62,4.43-3.1,1.18-.59,2.36-1.18,3.54-1.77,1.18-.59,2.06-1.03,2.66-1.33.59-.59,1.03-.89,1.33-.89h.44c0,.3.15.3.44,0,.29-.29.59-.51.89-.66.29-.15.59-.37.89-.67.89,0,1.62-.29,2.21-.88.29,0,.89-.22,1.77-.67.89-.44,1.77-.95,2.66-1.55l3.54-1.77c0-.29-1.48.15-4.43,1.33-2.95,1.18-6.5,2.81-10.62,4.87-4.14,2.07-8.49,4.21-13.06,6.42-4.58,2.21-8.34,4.21-11.29,5.98-25.98,14.46-47.45,30.32-64.42,47.59-16.97,17.27-28.41,34.75-34.31,52.46-2.36,6.79-3.54,14.17-3.54,22.14,0,7.38,1.18,13.88,3.54,19.48l1.33,4.42-1.33-2.21Zm27.89-76.15v-.88c-.6,0-.89.3-.89.88v.89l.89-.89Zm27.45-28.77c1.47-1.18,2.06-1.92,1.77-2.22-.3-.29-1.4.38-3.32,1.99-1.92,1.62-4.06,3.61-6.42,5.97-2.07,2.07-3.25,3.1-3.54,3.1l-.44.44c0,.89-1.18,2.22-3.54,3.99-2.36,2.65-4.58,5.17-6.64,7.52-2.07,2.37-3.1,3.7-3.1,3.99s.37.08,1.11-.67c.73-.73,1.4-1.4,1.99-1.99.89-1.47,2.66-3.39,5.31-5.75,1.17-1.77,2.06-2.95,2.66-3.54l1.33-1.33c-.3-.29-.15-.45.44-.45.89,0,2.06-1.03,3.54-3.1l2.66-2.66,2.21-1.33c.59-.59,1.25-1.25,1.99-1.99s1.4-1.4,1.99-1.99Zm-15.94,46.48c-.3,0-.82.44-1.55,1.33-.74.89-1.11,1.48-1.11,1.77,0,.6-.15.89-.44.89l-.44.88c-.59,1.19-.59,1.55,0,1.11.59-.44,1.18-1.4,1.77-2.88.29-.29.51-.66.66-1.11.15-.44.37-.81.66-1.1.29-.29.44-.59.44-.89Zm.44-.88c.29,0,.44-.15.44-.45v-.44l-.89.44c0,.3.15.45.44.45Zm6.64-8.86c.59-.59,1.11-1.25,1.55-1.99.44-.73.96-1.4,1.55-1.99.59-.59,1.03-1.18,1.33-1.77-.3,0-1.48,1.33-3.54,3.98-.89,1.19-1.85,2.37-2.88,3.54-1.04,1.19-1.85,2.07-2.43,2.66-1.18,1.18-1.77,2.07-1.77,2.66,0,.29.22.44.66.44s.66-.29.66-.89c.29-.29.89-1.03,1.77-2.21.89-1.17,1.92-2.66,3.1-4.43Zm7.53-8.85c-.6,0-1.04.15-1.33.44-.3.6-.59.96-.89,1.11-.3.15-.44.37-.44.66,0-.29.15-.44.44-.44s.59-.15.89-.44l.89-.89c0-.29.15-.44.44-.44Zm12.84-35.86c.89-.89,1.18-1.62.89-2.22h-.44c-.59,0-1.18.3-1.77.89-.3.6-.6.96-.89,1.11-.3.15-.44.07-.44-.22h-.44l-.44.89c-.3.3-1.33,1.04-3.1,2.21-2.66,2.07-3.25,3.1-1.77,3.1.29,0,.51-.14.66-.44.15-.29.51-.59,1.11-.89.29-.59.59-.95.89-1.1.29-.15.59-.37.89-.67.59,0,1.18-.44,1.77-1.33.59-.59.89-.74.89-.45,0-.29.15-.44.44-.44.59,0,1.18-.14,1.77-.44Zm9.74-7.97c.59,0,1.33-.29,2.21-.89.89-.59,1.18-1.03.89-1.33h-.44c-.6,0-1.48.3-2.66.89-1.18.6-1.77,1.18-1.77,1.77l-.89.44c-.59,0-1.48.45-2.66,1.33-1.18.89-1.63,1.63-1.33,2.22,0,.29-.15.29-.44,0-.6-.29-1.04-.29-1.33,0-.3.29-.3.74,0,1.33.29.6,1.47,0,3.54-1.77.59-.59,1.18-1.1,1.77-1.55.59-.44,1.03-.81,1.33-1.1.29,0,.59-.15.89-.45,0-.59.29-.88.89-.88Zm62.42-37.19c-1.18,0-2.07.3-2.66.89-.59.59-1.33.88-2.21.88-.3,0-.52.15-.66.44-.15.3-.52.6-1.11.89-.59.88-1.04,1.18-1.33.88,0,.3-.15.45-.44.45s-.6.07-.89.22c-.3.15-.6.22-.89.22-1.48.89-2.51,1.33-3.1,1.33-.3,0-.44.15-.44.44.29.3,0,.44-.89.44s-1.33.3-1.33.89c0,.3-.15.44-.44.44-.59-.29-1.4-.14-2.43.44-1.04.6-1.55,1.04-1.55,1.33v.45c-.59,0-1.18.29-1.77.88-.59.6-1.18.89-1.77.89s-1.18.29-1.77.88c-1.48,1.48-2.81,2.37-3.98,2.66-.89,0-1.63.3-2.21.88,0,.3-.15.6-.44.89-.3,0-.96.22-1.99.66-1.04.45-1.55.82-1.55,1.11s-.15.44-.44.44c-.6-.29-1.18-.14-1.77.45-.89.88-1.48,1.33-1.77,1.33l-.89.89c-.89.88-1.33,1.04-1.33.44-.59,0-.89.15-.89.44s-.15.45-.44.45c-.3.3-.74.44-1.33.44-.89.6-1.33,1.18-1.33,1.77.59.6.29.6-.89,0-.89,0-1.33.15-1.33.44s-.3.45-.89.45-.89.29-.89.88c-.6.6-1.04.89-1.33.89-.89,0-1.63.3-2.21.88-.3.89-1.18,1.63-2.66,2.22-.89.59-1.33,1.18-1.33,1.77,0,.3-.15.3-.44,0-.3-.29-.66-.29-1.11,0-.44.3-.52.59-.22.88.29.6.59.82.89.67.29-.15,1.33-.96,3.1-2.44,1.77-1.17,3.61-2.28,5.53-3.32,1.92-1.03,3.61-1.99,5.09-2.88.89-.29,1.33-.73,1.33-1.33.29,0,.59-.15.89-.45s1.03-.73,2.21-1.33c.59-.29,1.33-.88,2.21-1.77.29-.29.59-.44.89-.44-.3-.29-.44-.51-.44-.66s.15-.07.44.22c.59.3,2.21-.29,4.87-1.77,2.66-1.48,4.13-2.51,4.43-3.1,0-.29.44-.44,1.33-.44.29,0,.44-.29.44-.89h.89c.29,0,.59-.14.89-.44,0-.59.29-.89.89-.89.29.3.44.15.44-.44h.44c.29,0,.44-.15.44-.44s.15-.45.44-.45c.29.6.73.6,1.33,0,.29-.59,1.4-1.33,3.32-2.21,1.92-.89,6.71-3.24,14.39-7.08,4.43-2.36,6.64-3.69,6.64-3.99h.44l.89-.44c1.17,0,2.95-.59,5.31-1.77,2.36-1.18,3.39-1.92,3.1-2.22.59.3,1.4.22,2.43-.22,1.03-.44,1.7-.95,1.99-1.55.29,0,.59-.07.89-.22.29-.14.59-.22.89-.22h.89l.44-.44v-.44c.29,0,.51-.07.66-.22.15-.14.37-.22.66-.22.59,0,1.03-.07,1.33-.22.29-.14.73-.22,1.33-.22l2.66-.89c.29-.29.59-.44.89-.44.29.3.44.15.44-.44-.59-.59-.59-.89,0-.89.29,0,.44.15.44.45s.14.44.44.44c.29-.29.44-.73.44-1.33-.3-.29-.37-.44-.22-.44s.37.15.66.44c.89.89,2.21.44,3.98-1.33.59-.59,1.47-.88,2.66-.88s1.77-.15,1.77-.45c-.3-.29,0-.44.89-.44.89.6,1.33.44,1.33-.44h1.77c.29,0,.51-.07.66-.22.15-.15.51-.22,1.11-.22.89,0,1.33-.29,1.33-.89,0-.29.29-.44.89-.44.29,0,.44.15.44.44-.59.6-.3.6.89,0,1.18-.29,1.77-.73,1.77-1.33-.3,0-.37-.07-.22-.22.15-.14.37-.22.66-.22.59-.59.89-.59.89,0-.3.3-.15.44.44.44l1.77-.88c0-.29.44-.45,1.33-.45.59.6.89.45.89-.44.29-.59.59-.73.89-.44.29.6.73.6,1.33,0,.59-.59.89-.59.89,0h.44l.44-.89c.29-.29.73-.29,1.33,0,.59.6.89.6.89,0s.89-.88,2.66-.88c.59-.29,1.25-.44,1.99-.44s1.4-.15,1.99-.45h1.77v-.88h3.54c.29,0,.59-.15.89-.44.59-.59.89-.59.89,0,.29,0,.44-.15.44-.45h.89c.29,0,.59-.07.89-.22.29-.14.73-.22,1.33-.22,2.06,0,3.1-.29,3.1-.89.29-.29.29-.44,0-.44-.3.3-.52.44-.66.44s-.08-.14.22-.44c.59-.59.89-.59.89,0,.59.3,1.33.3,2.21,0,1.18-.59,2.66-.88,4.43-.88.59,0,1.03-.07,1.33-.22.29-.14.59-.22.89-.22s.59-.14.89-.44c0-.29-.44-.44-1.33-.44-.3,0-1.63.3-3.98.88-.3,0-.74.08-1.33.22-.59.15-1.18.22-1.77.22h-3.1c-1.48,0-1.92.29-1.33.88,0,.3-.15.44-.44.44,0,.3-.15.45-.44.45h-.89c-.59.3-.89.15-.89-.45.29-.29.15-.29-.44,0-.6.3-1.18.45-1.77.45,0-.29-.08-.45-.22-.45s-.22.15-.22.45-.44.44-1.33.44c-.59-.29-.96-.37-1.11-.22-.15.15-.08.22.22.22,0,.3-.59.44-1.77.44s-1.77.15-1.77.45h-.44c-.59,0-1.99.22-4.21.66-2.21.44-3.62.96-4.21,1.55,0,.3-.15.44-.44.44h-1.33c-.89,0-2.43.38-4.65,1.11-2.21.74-3.62,1.26-4.21,1.55-.89.88-1.48,1.04-1.77.44-.89,0-2.21.44-3.98,1.33-.59.3-1.33.6-2.21.88-.89.3-1.63.45-2.21.45l-2.21.88c0,.3-.15.44-.44.44h-.44c-.3,0-.52.08-.66.22-.15.15-.52.22-1.11.22-1.18.3-2.88.88-5.09,1.77-2.21.88-3.32,1.48-3.32,1.77s-.59.44-1.77.44c-.59.3-1.4.6-2.43.89-1.04.3-2.14.74-3.32,1.33l-4.43,1.77-1.77.88c-1.18.6-2.07.89-2.66.89-.89,0-1.04.3-.44.88,0,.3-.3.45-.89.45-.3-.29-.52-.45-.66-.45s-.08.15.22.45c.29.59.29.74,0,.44-.89,0-1.63.15-2.21.44-.59,0-1.18.15-1.77.44-.59.3-1.18.6-1.77.89-1.18.3-1.77.88-1.77,1.77.29.3.37.44.22.44s-.37-.14-.66-.44Zm-27.01,33.65c.59,0,.89-.15.89-.45h-1.33c-.59.3-.82.52-.66.67.14.15.51.08,1.11-.22Zm1.33,107.58v-.89.45c.59.59.59.88,0,.88v-.44Zm29.66-7.09c0-.59-.3-.88-.89-.88h-.44c-.59,0-.89.15-.89.44s-.15.3-.44,0c-.3-.59-1.26-.73-2.88-.44-1.63.3-2.59.74-2.88,1.33-.3.3-.6.3-.89,0,0-.29-.44-.29-1.33,0-.3.88-.74,1.04-1.33.44,0-.29-.3-.44-.89-.44-.3.3-.59.44-.89.44h-1.77c-2.66.6-4.5,1.11-5.53,1.55-1.04.44-1.85.96-2.43,1.55-.89,1.48-.44,1.48,1.33,0,.59-.29,1.18-.44,1.77-.44h1.33c.29-.29.73-.45,1.33-.45s1.18-.14,1.77-.44c2.66,0,4.28-.29,4.87-.88,0-.59,1.18-.89,3.54-.89.89,0,1.03-.29.44-.89l.44.45c.59.59,2.06.59,4.43,0,.59-.29,1.33-.45,2.21-.45Zm-22.14,20.37c0,.3-.3.44-.89.44s-.89-.14-.89-.44l.89-.89c.59,0,.89.3.89.89Zm2.21-2.21c.59,0,.89-.15.89-.45s-.3-.44-.89-.44c-.89,0-1.18.15-.89.44,0,.3.29.45.89.45Zm3.1-.45c.59,0,.73-.14.44-.44h-.89c-.3.3-.15.44.44.44Zm5.76-1.33c.59-.59.73-.88.44-.88l-.89.44c-.3.3-.15.44.44.44Zm2.66-130.6l.44-.44v-.44c-.3,0-.59.15-.89.44,0,.3.15.44.44.44Zm48.7,109.35c.29-.29,0-.44-.89-.44-1.18,0-1.92.15-2.21.44-.3.3-.44.3-.44,0,0-.59-.59-.88-1.77-.88-.3,0-.59.15-.89.44h-.44c0,.3-1.04.44-3.1.44-2.37,0-3.7.15-3.98.45,0,.59-.74.59-2.21,0h-2.21c-.89.88-2.81,1.04-5.76.44-1.18,0-1.77.3-1.77.89h-2.66c-2.07,0-3.1.15-3.1.44,0,.59-.15.74-.44.44l-.89.44c-.59,0-1.04-.14-1.33-.44,0-.29.15-.29.44,0,.29,0,.44-.14.44-.44-.3-.29-.89-.29-1.77,0-.3.3-.74.44-1.33.44,0-.29-.08-.44-.22-.44s-.22.15-.22.44c0,.6-.15.74-.44.44-.3,0-.44.15-.44.45,0,.59-.3.59-.89,0-.59-.59-1.04-.89-1.33-.89-1.18,0-1.18.3,0,.89.59.59,1.4.88,2.43.88s1.69-.29,1.99-.88c0-.59.29-.59.89,0,.59.59,1.47.59,2.66,0h2.21c.29,0,.44-.29.44-.89,0-.29.44-.29,1.33,0,0,.3.29.44.89.44h.44c.29-.29,1.33-.44,3.1-.44,1.47,0,2.5-.29,3.1-.88.29-.59.44-.59.44,0,0,.29.44.44,1.33.44s2.95-.29,6.2-.89c.59,0,1.33-.07,2.21-.22.89-.14,1.62-.22,2.21-.22,1.47,0,2.21-.14,2.21-.44s.15-.29.44,0c.29.3,1.11.44,2.43.44s2.28-.29,2.88-.89Zm-39.4,19.04c.29,0,.44-.29.44-.88,0-.29-.15-.45-.44-.45h-.44.44c.29.3.29.6,0,.89-.59.3-.59.44,0,.44Zm11.95-140.34l-.44.44c-.3.3-.59.44-.89.44s-.44.15-.44.45.15.37.44.22c.29-.15.59-.51.89-1.11l.44-.44Zm-.89,137.24c.29,0,.44-.07.44-.22,0-.14-.15-.22-.44-.22s-.6.15-.89.44c0,.3.15.6.44.89l.44-.89Zm3.1-.44c.89,0,1.17-.14.89-.44h-1.77c-.3.3,0,.44.89.44Zm7.97-1.77h-.89l-1.77.88h.89c1.18,0,1.92-.14,2.21-.44l-.44-.44Zm1.33,84.56c1.18.29,1.92,0,2.21-.89v-.88c-.3,0-.44.07-.44.22,0,.14-.3.22-.89.22-.89.59-1.18,1.03-.89,1.33Zm1.77-84.56c-.59.3-.74.44-.44.44.59,0,.89-.14.89-.44h-.44Zm4.43-.44c.89.29,1.84.29,2.88,0,1.03-.29,1.25-.59.66-.89h-.89c-.3.3-1.18.44-2.66.44h-1.77l1.77.45Zm6.64-.45c0-.59-.15-.88-.44-.88s-.44.3-.44.88c.29.3.59.45.89.45v-.45Zm3.98-144.77v-1.33c.29.59.29,1.04,0,1.33Zm1.77,132.37c.89,0,1.33-.29,1.33-.89,0-.29-.15-.59-.44-.88-.59,0-1.18.29-1.77.88-.3.6,0,.89.89.89Zm.44,69.06l.44-.44v-.89l-.89.89c0,.29.15.44.44.44Zm.89-3.54h-.44v.89c0,.59.15.73.44.44v-1.33Zm15.05-92.97c1.47-1.47,2.21-2.8,2.21-3.99h-.44c0,.3-.82,1.7-2.43,4.21-1.63,2.51-3.62,5.69-5.98,9.52-3.25,5.31-5.39,8.85-6.42,10.62-1.04,1.77-1.26,2.66-.66,2.66s1.62-1.33,3.1-3.98c.59-1.48,1.18-2.66,1.77-3.54.59-.88,1.03-1.62,1.33-2.21.29-.29.44-.51.44-.66s.15-.37.44-.67c0-.29.15-.59.44-.88l.89-1.77c.59-.59.89-1.18.89-1.77,0-.29.14-.59.44-.88s.59-.73.89-1.33c1.18-1.17,1.77-2.21,1.77-3.1.29-.29.51-.66.66-1.1.15-.45.37-.81.66-1.11Zm-11.51,85.44c-.3,0-.44.15-.44.45s-.08.52-.22.66c-.15.15-.22.38-.22.66-.6.89-.6,1.04,0,.45l.89-1.77v-.45Zm1.33-2.65c.59-.59.89-1.33.89-2.22l-.89.89c-.3.6-.44,1.33-.44,2.21l.44-.88Zm5.31-193.47c0-.29.15-.44.44-.44l-.89.44c-.59.6-1.04.6-1.33,0v.44c.29.6.89.44,1.77-.44Zm0,129.27h-.44l-.44.89c0,.88.29.74.89-.44v-.45Zm2.21-129.71c.59,0,.95-.07,1.11-.22.15-.14.07-.22-.22-.22h-.89c-.6,0-.82.08-.66.22.15.15.37.22.66.22Zm7.08,104.48c.29-.29.44-.73.44-1.33h-.44l-.44.44c-.6.6-.89,1.04-.89,1.33-.6.6-.89,1.04-.89,1.33v.44c.29,0,.73-.29,1.33-.88,0-.89.29-1.33.89-1.33Zm0,9.74c0-.29.15-.45.44-.45l-.89.45c-.89.88-1.18,1.33-.89,1.33s.73-.45,1.33-1.33Zm1.77-13.28c0-.29.07-.45.22-.45s.22-.14.22-.44l-.89.89c-1.18.59-1.48.88-.89.88.29,0,.73-.29,1.33-.88Zm-.44-103.15c.59,0,.89-.29.89-.88l-.44-.45-.44.45c-.59,0-.89.3-.89.88h.89Zm2.66,99.61c.59-.59.89-1.17.89-1.77v-.44c0,.3-.15.6-.44.89-.6.59-1.04,1.18-1.33,1.77-.3.59-.37.81-.22.66.15-.14.51-.51,1.11-1.11Zm4.43-6.64c.29-.29.44-.59.44-.88h-.44c-.6.3-1.26,1.04-1.99,2.21-.74,1.19-.82,1.77-.22,1.77l.89-1.33c0-.29.44-.88,1.33-1.77Zm3.98,56.67c.29,0,.51-.07.66-.22.15-.14.07-.22-.22-.22h-.89c-.3,0-.44.08-.44.22s.29.22.89.22Zm-.44-152.74c.89.3,1.18.3.89,0,0-.88-.3-1.03-.89-.44-.3,0-.3.15,0,.44Zm3.54-.88c0-.29-.15-.45-.44-.45s-.59.15-.89.45h1.33Zm2.21,141.67c-.3,0-.52.08-.66.22-.15.15-.52.22-1.11.22-1.18.3-1.7.52-1.55.66.15.15.81.22,1.99.22,1.47,0,2.21-.29,2.21-.89-.3,0-.44-.07-.44-.22s-.15-.22-.44-.22Zm.89-141.67c-.3-.29-.44-.73-.44-1.33h-.44c-.3.3-.37.66-.22,1.11.15.44.51.52,1.11.22Zm5.31,141.23c-3.54,0-4.87.44-3.98,1.33.29.3,1.25.45,2.88.45s2.28-.29,1.99-.89h.44c.89.89,1.33,1.04,1.33.44.29,0,.59-.07.89-.22.29-.14.73-.07,1.33.22,1.18,0,1.77-.29,1.77-.88,0-.29-.44-.44-1.33-.44h-5.31Zm-3.98-142.11c.89.3,1.18.3.89,0,0-.29-.3-.44-.89-.44-.3,0-.3.15,0,.44Zm7.08-13.72c-.89,0-1.04.15-.44.44.29,0,.44.08.44.22,0,.15.14.22.44.22h.44c.29,0,.44-.14.44-.44s-.44-.44-1.33-.44Zm3.98,11.95c-.3,0-.44.08-.44.22,0,.15.15.22.44.22.89.6,1.18.6.89,0l-.89-.44Zm7.53,143.44c-5.02,0-7.53.3-7.53.89,0,.3.73.44,2.21.44s2.21-.14,2.21-.44l.44-.44c.29,0,.59.15.89.44,0,.59.29.88.89.88.29,0,.44-.14.44-.44-.59-.59.29-.59,2.66,0h3.1c0-.29.66-.44,1.99-.44h9.74c.73,0,.81-.29.22-.89-.3-.29-.89-.44-1.77-.44-.6,0-.89.15-.89.44s-.3.3-.89,0c-.3,0-.74-.07-1.33-.22-.59-.14-1.33-.07-2.21.22h-10.18Zm-6.64,10.18c-.6,0-.89.29-.89.88,0,.3.15.44.44.44l.44-.44c.59-.59.59-.88,0-.88Zm3.1-166.02c0-.29-.15-.45-.44-.45l-.44.45h.89Zm2.66,166.46h-1.33,2.21-.89Zm.44-154.51c-.3,0-.3.15,0,.44.59.6,1.03.6,1.33,0,.29,0,.37-.07.22-.22-.15-.14-.52-.22-1.11-.22h-.44Zm11.51,154.51c.89,0,1.03-.29.44-.89-.3,0-.6.15-.89.45-.89.88-.74,1.03.44.44Zm.44-72.16c0-.29.15-.44.44-.44l-.89.44c-.59.6-.89,1.04-.89,1.33v.45c0-.29.44-.89,1.33-1.77Zm5.31-7.97c.89-1.77,1.18-2.66.89-2.66l-.44-.44v.44c.29.3.29.6,0,.88l-1.77,1.77c-1.48,2.65-1.04,2.65,1.33,0Zm4.43,69.5c-1.77,0-2.51.15-2.21.45,2.66.29,4.72.44,6.2.44s3.39-.15,5.76-.44c0-.29-.3-.45-.89-.45h-8.85Zm1.77,9.74c.29,0,.37-.07.22-.22-.15-.14-.37-.22-.66-.22-.3.3-.59.44-.89.44l.44.45c.59,0,.89-.15.89-.45Zm4.43.45c.89-.29,1.33-.59,1.33-.89h-.44c-.3,0-.6-.14-.89-.44h-.44c-.3,0-.59.15-.89.44,0,.6.44.89,1.33.89Zm.44-151.41c-.3-.29-.44-.59-.44-.88h-.44v.44c0,.3.15.6.44.89,0,.3.29.44.89.44l-.44-.89Zm1.33,193.91c.29-.29.44-.59.44-.89v-.44h-.44c-.3.3-.44.59-.44.88s.15.45.44.45Zm.89-2.66v-1.33c0-.29-.08-.36-.22-.22-.15.15-.22.38-.22.66,0,.89.15,1.19.44.89Zm2.21-50.03c-.59,0-.89.15-.89.45s.15.44.44.44c.59,0,.89-.15.89-.44.29-.29.15-.45-.44-.45Zm1.77.45c0,.29.14.44.44.44l.44-.44v-.45c-.3,0-.6.15-.89.45Zm8.41-.45c-4.72,0-7.08.15-7.08.45s1.92.44,5.76.44h4.43c.59,0,1.18-.15,1.77-.44,0-.29-1.63-.45-4.87-.45Zm-3.54,9.3c-.3,0-.52-.07-.66-.22-.15-.15-.37-.22-.66-.22-1.18,0-1.63.15-1.33.44,1.47.6,2.51.6,3.1,0h-.44Zm27.45-49.58c-1.18,2.95-.59,2.36,1.77-1.77l1.77-4.42c0-.29-.44.3-1.33,1.77-.89,1.48-1.63,2.95-2.21,4.43Zm6.2-12.4c-.59.6-.89,1.18-.89,1.77,0,.3.29-.14.89-1.33l.44-.88-.44.44Zm1.33-2.21c-.3.59-.3.74,0,.44.29-.29.44-.59.44-.89-.3,0-.44.15-.44.45Zm3.1-6.2c-.89,1.48-1.33,2.36-1.33,2.65s.29.15.89-.44c.59-.59.89-1.47.89-2.66l.44-1.33-.89,1.77Zm2.21-4.87c-1.18,2.36-1.33,3.1-.44,2.21.59-.59,1.17-1.62,1.77-3.1l.44-2.21c0,.3-.15.6-.44.88-.3.3-.74,1.04-1.33,2.22Zm2.21,65.52c-1.48,0-2.37.15-2.66.44,0,.3.14.45.44.45h3.54c.29,0,.44-.15.44-.45s-.59-.44-1.77-.44Zm8.85,0h-4.65c-1.33,0-1.99.15-1.99.44.29.3.89.45,1.77.45h9.74c.89,0,1.47-.15,1.77-.45,0-.29-2.21-.44-6.64-.44Zm2.21,9.3c.29,0,.44-.15.44-.45l-.44-.44h-.44c0,.6.15.89.44.89Zm3.1-.89c1.18.6,2.14.82,2.88.67.73-.15.81-.51.22-1.11h-.89c0,.3-.74.44-2.21.44l-1.77-.44,1.77.44Zm3.54-8.41c-.89,0-1.33.15-1.33.44s.15.45.44.45h.89c.89,0,1.33-.15,1.33-.45s-.44-.44-1.33-.44Zm5.76,0h-2.66c-.89,0-1.33.15-1.33.44.29.3.89.45,1.77.45h4.87c3.83,0,5.6-.15,5.31-.45-.59-.29-1.48-.44-2.66-.44h-5.31Zm1.77,8.41c0-.29-.15-.44-.44-.44l-.44.44h.89Zm10.18-75.7c-.3.59-.3.74,0,.44.59-.59.73-.89.44-.89s-.44.15-.44.45Zm2.21-3.1c-.59.59-.89,1.04-.89,1.33v.44l.89-1.77c.29,0,.44-.15.44-.45l-.44.45Zm28.78-83.23c-.59,0-1.33.44-2.21,1.33-.89.89-1.33,1.48-1.33,1.77,0,.59.22.81.66.66.44-.15.95-.51,1.55-1.11,0-.29.15-.44.44-.44,0,.89.29,1.04.89.44,3.24-1.47,5.53-2.5,6.86-3.1,1.33-.59,2.58-.73,3.76-.44,1.47,0,2.14-.07,1.99-.22-.15-.15-.96-.37-2.43-.66h-.89c-2.07,0-3.54.15-4.43.44-2.36.59-3.98,1.04-4.87,1.33Z"/>
    <path class="cls-1" d="m440.94,894.32c.59.6.59.88,0,.88l-3.54,2.66c-1.48,1.48-2.66,2.21-3.54,2.21.29.3-.59,1.48-2.66,3.54-2.07,2.07-3.4,3.25-3.98,3.54h-.44c.29.3.29.74,0,1.33-.6.59-1.04.88-1.33.88s-.3-.29,0-.88c0-.29-.15-.45-.44-.45v1.33c0,.3-.15.6-.44.89l-1.77,1.77c-1.18.88-1.4,1.1-.66.66.73-.44,1.92-1.33,3.54-2.65,1.62-1.33,3.54-2.88,5.76-4.65,2.21-1.77,4.21-3.54,5.98-5.32,3.54-3.24,5.98-5.23,7.3-5.97,1.33-.73.81.07-1.55,2.43-1.48,1.48-4.28,3.99-8.41,7.53-4.14,3.54-7.38,6.35-9.74,8.41-1.77,1.48-3.98,3.1-6.64,4.87-2.66,1.77-5.17,3.54-7.53,5.31-2.36,1.77-4.65,3.4-6.86,4.87-2.21,1.48-3.76,2.37-4.65,2.66-2.37,1.48-5.24,2.8-8.63,3.98-3.4,1.18-5.69,1.77-6.86,1.77-.3,0-.59.15-.89.45,0,.59-.44.59-1.33,0-.89,0-1.18.29-.89.88,0,.59-.15.89-.44.89l-.44-.44c0-.89-.3-1.04-.89-.45-.59.89-.74.73-.44-.44.29-1.18,0-1.33-.89-.44-.3.29-.74.44-1.33.44,0-.6-1.04-.89-3.1-.89-1.77.59-3.1.45-3.98-.44-.59-.3-.96-.37-1.11-.22-.15.14-.08.37.22.66.29.89,0,1.03-.89.45-.6-.6-.89-1.04-.89-1.33h-.89l-.89-.44-2.66-1.77c-1.77-.59-2.66-1.18-2.66-1.77,0-.88-.3-1.33-.89-1.33-.59-.29-1.55-1.48-2.88-3.54-1.33-2.06-1.84-3.39-1.55-3.98l-.44-.44c-.29,0-.44-.15-.44-.45,0-.88-.14-1.33-.44-1.33-.29-2.66-.51-4.72-.66-6.2-.15-1.47-.22-2.95-.22-4.43s.15-2.21.44-2.21c0-.59-.15-1.03-.44-1.33-.59-.89-.59-1.33,0-1.33.3-.29.3-.44,0-.44-.59,0-.59-.44,0-1.33,0-.59.08-1.11.22-1.55.15-.44.22-.81.22-1.11-.29-.29-.37-.66-.22-1.1.15-.45.22-.96.22-1.55.6-1.18.89-2.66.89-4.43l.44-2.21-.89,2.65c-.29.6-.59,1.48-.89,2.66-.29,1.18-.44,2.07-.44,2.66s-.07,1.26-.22,1.99c-.15.74-.22,1.26-.22,1.55s-.07,1.1-.22,2.43c-.14,1.33-.22,2.73-.22,4.21s.08,2.81.22,3.98c.15,1.19.37,1.77.66,1.77v1.33c-.29.89-.15,2.15.44,3.76.59,1.63,1.26,3.32,1.99,5.09.73,1.77,1.47,3.32,2.21,4.65.73,1.33,1.4,1.85,1.99,1.55.29-.29.51-.44.66-.44s.07.15-.22.44c-.3.3-.08.82.66,1.55.73.74,1.55,1.48,2.43,2.22.89.73,1.84,1.33,2.88,1.77,1.03.44,1.7.66,1.99.66.59-.3.89-.22.89.22s-.3.81-.89,1.11c-.6.29-.96.37-1.11.22-.15-.15-.96-.52-2.43-1.1-1.77-.89-3.76-2.44-5.98-4.65-2.21-2.22-3.76-4.35-4.65-6.42-3.24-6.49-4.5-14.31-3.76-23.47.74-9.14,3.47-18.44,8.19-27.89.89-1.77,1.69-3.32,2.43-4.65.73-1.33,1.11-2.14,1.11-2.43v-.44c0-.29.29-.74.89-1.33.29-.59.66-1.11,1.11-1.55.44-.45.95-.96,1.55-1.55.89-1.18,1.92-2.5,3.1-3.99,1.18-1.47,2.06-2.65,2.66-3.54.89-.88,1.62-1.77,2.21-2.65.59-.89,1.18-1.48,1.77-1.77.29-.59.89-1.33,1.77-2.21l3.1-3.1,2.66-1.77c.29,0,.73-.29,1.33-.88.89-.59,2.66-1.62,5.31-3.1,2.66-1.48,4.57-2.36,5.76-2.66.89-.29,1.92-.44,3.1-.44h3.98c3.24,0,5.01.15,5.31.44.29.3.73.44,1.33.44.29-.29.73-.14,1.33.45.29.59,2.06.88,5.31.88,2.36,0,4.43.3,6.2.89,1.17.59,2.21,1.26,3.1,1.99.89.74,1.33,1.4,1.33,1.99l.44.89c.29,0,.44.74.44,2.21v1.33c0,.3.15.6.44.88.29.3.29,1.11,0,2.44-.3,1.33-.74,2.73-1.33,4.2,0,.3-.08.52-.22.67-.15.15-.22.37-.22.66-.3,1.19-1.48,3.47-3.54,6.86-2.07,3.4-3.84,5.83-5.31,7.31-.6.3-1.33.96-2.21,1.99-.89,1.04-1.92,2.15-3.1,3.32-2.37,2.37-3.69,3.54-3.98,3.54-.3-.29-.52-.44-.66-.44s-.08.15.22.44c.29.3.07.82-.66,1.55s-1.4.96-1.99.67c0-.29-.3-.15-.89.44-.3.3-.37.44-.22.44s.37-.14.66-.44h.44c0,.6-.37,1.11-1.11,1.55-.74.44-1.4.52-1.99.22-.59,0-1.33.44-2.21,1.33-2.66,2.07-3.98,2.66-3.98,1.77h-2.21c-1.48,0-2.21-.14-2.21-.44h-.44c-.3,0-.59-.15-.89-.44-2.07,0-3.4-.29-3.98-.89-.3-.29-.66-.44-1.11-.44s-.66.3-.66.88-.3,1.48-.89,2.66c-1.18,1.48-1.48,2.51-.89,3.1l-.44.44c-.3,0-1.04,1.63-2.21,4.87-1.18,3.25-1.77,5.31-1.77,6.2s-.15,1.33-.44,1.33c-.6.59-.6.88,0,.88v.44c0,.3-.15.6-.44.89-.59.89-.59,1.33,0,1.33s.59.6,0,1.77c0,1.48.15,2.37.44,2.66.29.29.14.44-.44.44s-.15,1.62,1.33,4.87c.59,1.18,1.4,2.07,2.43,2.65,1.03.6,1.84.6,2.43,0,.59-.29,1.33-.44,2.21-.44.29,0,1.11-.29,2.43-.88,1.33-.59,2.73-1.18,4.21-1.77,1.47-.59,3.39-1.62,5.76-3.1.59-.59,1.03-.89,1.33-.89.59,0,.89-.14.89-.44s.15-.44.44-.44,1.4-.59,3.32-1.77c1.92-1.17,3.98-2.58,6.2-4.2,2.21-1.62,4.35-3.17,6.42-4.65,2.06-1.47,3.54-2.66,4.43-3.54l1.55-1.55c.73-.73,1.55-1.4,2.43-1.99,2.36-2.06,4.43-3.91,6.2-5.54,1.77-1.62,3.24-2.87,4.43-3.76,10.92-10.63,17.27-15.64,19.04-15.05.59.3,1.47.96,2.66,1.99,1.18,1.04,1.77,1.85,1.77,2.43s-.74,1.92-2.21,3.99c-1.48,2.07-3.17,4.14-5.09,6.2-1.92,2.07-3.76,3.91-5.53,5.53-1.77,1.63-2.81,2.29-3.1,1.99v.89Zm-86.77-4.87c0-.29-.14-.44-.44-.44v.44c0,.88.15,1.18.44.88v-.88Zm16.38,48.26c1.17.59.89.59-.89,0-.59-.6-.59-.89,0-.89s.89.29.89.89Zm1.33-.89h.44v.44c0,.89-.15,1.03-.44.45v-.89Zm2.21.44v.45c-.59,1.77-.89,1.91-.89.44l.44-.89h.44Zm.44-80.13c0,.89.44.6,1.33-.89,0-.29.15-.44.44-.44l-.89.44-.89.89Zm11.51-10.63c-.3,0-.96.45-1.99,1.33-1.04.89-2.14,1.85-3.32,2.88-1.18,1.04-2.14,1.99-2.88,2.88-.74.88-.96,1.33-.66,1.33l.44-.45c.29,0,.73-.29,1.33-.88.89-.89,1.47-1.33,1.77-1.33s.73-.29,1.33-.89c.29-.59,1.03-1.17,2.21-1.77,1.18,0,1.47-.29.89-.88,0-.29.29-.44.89-.44.89,0,1.33-.29,1.33-.89,0-.29.15-.44.44-.44l.89-.45c.89,0,1.33-.29,1.33-.88l.89-.44c1.17,0,2.06-.15,2.66-.45.59-.59,1.33-.88,2.21-.88v-.44c-.3-.29-.15-.29.44,0,.89,0,1.47-.15,1.77-.45.29-.29.89-.44,1.77-.44.29.3.59.3.89,0,.29-.29.73-.44,1.33-.44.29.3,1.03.15,2.21-.45.59-.59.73-.88.44-.88h-2.66c-1.18,0-1.99.08-2.43.22-.44.15-.52.22-.22.22,0,.3-.3.3-.89,0-.3-.29-1.33-.14-3.1.44-4.72,1.48-7.08,2.81-7.08,3.99,0,.6-.15.88-.44.88h-1.77Zm-4.87,89.43c.29,0,.51-.07.66-.22.15-.15.07-.22-.22-.22h-.89c-.3,0-.44.07-.44.22s.29.22.89.22Zm25.68-77.91c-.59-.29-1.63,0-3.1.88-1.48.89-2.51,1.63-3.1,2.21-2.66,1.77-4.73,3.99-6.2,6.64-1.18,1.77-1.92,2.65-2.21,2.65l-.44.44c0,.89-.44,1.48-1.33,1.77-1.18,1.18-1.48,1.77-.89,1.77l-.89.88c-.59.6-.89,1.19-.89,1.77s-.15.89-.44.89c-.59,0-.89.15-.89.44,0,.6,1.11.3,3.32-.88,2.21-1.18,3.47-2.06,3.76-2.66,0-.29.15-.44.44-.44.29.29.96,0,1.99-.89,1.03-.88,2.14-1.91,3.32-3.1,1.18-1.17,2.43-2.5,3.76-3.98,1.33-1.48,2.28-2.66,2.88-3.54.29-.59.59-1.03.89-1.33.29-.29.59-.73.89-1.33.29-.59.44-1.03.44-1.33s.07-.51.22-.66c.15-.15.22-.37.22-.67.59-.59.59-.88,0-.88s-.89.3-.89.88c0,.3-.3.45-.89.45Zm-11.95,19.92c1.47-.59,3.1-1.77,4.87-3.54,1.77-1.77,2.51-2.66,2.21-2.66s-.59.15-.89.44-.59.52-.89.67c-.3.15-.59.37-.89.66-.59.6-1.7,1.41-3.32,2.44-1.63,1.04-3.17,1.99-4.65,2.87-2.95,1.48-4.14,2.22-3.54,2.22.89,0,1.62-.29,2.21-.89.59-.29,1.03-.59,1.33-.88.29-.29.59-.45.89-.45.59,0,1.47-.29,2.66-.88Zm-6.2,55.34c.89,0,1.33-.15,1.33-.44l-.44-.45-.44.45h-.89c-.59.29-.44.44.44.44Zm1.33-11.96l-.44.45c.89,0,1.47-.15,1.77-.45.29-.29.44-.59.44-.88l-1.77.88Zm5.31,9.3c-.59,0-1.18.15-1.77.44-1.77,0-2.66.45-2.66,1.33-.89.89-.44.73,1.33-.44.29,0,.51-.07.66-.22.15-.15.37-.22.66-.22s.59-.15.89-.45c.59,0,1.03-.14,1.33-.44h-.44Zm41.61-44.27c-.3,0-1.33.89-3.1,2.66-.59,0-1.63.74-3.1,2.21-.6.6-1.55,1.48-2.88,2.66-1.33,1.18-2.43,2.36-3.32,3.54-1.18.88-2.43,1.85-3.76,2.88-1.33,1.03-2.29,1.84-2.88,2.43-.6.6-1.18,1.11-1.77,1.55-.6.44-1.04.82-1.33,1.11l-.89.88c-.3,0-1.48.74-3.54,2.22-2.07,1.48-3.4,2.51-3.98,3.1l-2.66,1.77c-1.18.59-1.77,1.18-1.77,1.77.29.29,0,.44-.89.44-.89-.89-1.33-.89-1.33,0-.89.88-2.21,1.77-3.98,2.66-2.07,1.18-3.1,1.92-3.1,2.21,0,.6.29.6.89,0,.59,0,1.18-.29,1.77-.89h.89v-.44c0-.59.29-.88.89-.88.89,0,1.77-.45,2.66-1.33.89-.89,1.33-1.03,1.33-.45,0-.29.15-.44.44-.44s.59-.14.89-.44c.29-.29.51-.44.66-.44.14,0,.37-.15.66-.45.29,0,.44-.14.44-.44.59,0,1.47-.59,2.66-1.77.59-.59,1.4-1.17,2.43-1.77,1.03-.59,1.84-1.17,2.43-1.77.59-.59,1.92-1.7,3.98-3.32,2.06-1.62,4.28-3.61,6.64-5.98,2.36-1.77,4.57-3.68,6.64-5.75,2.06-2.06,3.54-3.39,4.43-3.99,1.77-1.47,2.95-2.65,3.54-3.54Zm-38.96,0c.59-.59,1.18-.89,1.77-.89v.45c0-.29-.44,0-1.33.88-.89.3-1.04.15-.44-.44Zm1.77,42.06c-.3-.29-.59-.44-.89-.44s-.44.44-.44,1.33v-.44h.89c.59,0,.73-.14.44-.44Zm7.53-73.49c-.6.29-.6.59,0,.88.29.3.66.3,1.11,0,.44-.29.51-.59.22-.88h-1.33Zm3.98,65.08c.29,0,.44-.07.44-.22,0-.14.15-.22.44-.22l.44-.44h-.44l-.89.89Zm9.74-7.97l-.89.88c-.89.6-1.33,1.19-1.33,1.77v.89c.29-.29.44-.59.44-.89l.89-1.77.89-.88Zm16.82-26.57c0,.3,1.18-.73,3.54-3.1.89-.89,1.77-1.62,2.66-2.22.89-.59,1.47-1.03,1.77-1.33s.44-.59.44-.88v-.44l-.44.44c-.3.3-.89.82-1.77,1.55-.89.74-1.77,1.55-2.66,2.43-.89.89-1.7,1.63-2.43,2.22-.74.59-1.11,1.04-1.11,1.33Z"/>
    <path class="cls-1" d="m436.51,897.42c0-1.47.44-3.39,1.33-5.76,0-.88.3-2.5.89-4.87.6-2.36,1.26-4.79,1.99-7.3.73-2.5,1.47-4.87,2.21-7.09.73-2.21,1.25-3.76,1.55-4.65.59-.59.89-1.18.89-1.77v-.44c-.3,0-.15-.59.44-1.77.59-.88,1.84-3.32,3.76-7.3,1.92-3.99,4.05-8.78,6.42-14.39,5.6-12.69,13.28-26.27,23.02-40.73,2.06-2.66,4.57-5.76,7.53-9.3,2.95-3.54,5.98-7.08,9.08-10.63,3.1-3.54,6.12-6.78,9.08-9.74,2.95-2.95,5.6-5.32,7.97-7.09,2.36-2.06,5.6-4.35,9.74-6.86,4.13-2.5,7.08-4.21,8.85-5.09,1.18-.59,1.99-.73,2.43-.44.44.29-.08.74-1.55,1.33-1.77.89-4.8,2.81-9.08,5.76-4.28,2.95-7.9,5.61-10.85,7.97-4.43,3.54-9.82,8.93-16.16,16.16-6.35,7.23-11.73,13.94-16.16,20.14-2.37,3.25-4.43,6.35-6.2,9.3-1.77,2.95-2.66,4.72-2.66,5.31l-.44.44c-.3,0-1.18,1.33-2.66,3.99-1.48,2.65-3.4,6.2-5.76,10.62l-1.33,2.66c.89-.89,1.77-2.21,2.66-3.98,2.06-3.25,3.76-6.05,5.09-8.41,1.33-2.36,2.28-3.83,2.88-4.42.59-.59,1.33-1.77,2.21-3.54,1.18-1.77,2.21-3.1,3.1-3.98l.89-1.77c0-.29.89-1.62,2.66-3.99,2.06-2.06,3.39-3.68,3.98-4.87l.89-.88c.29,0,.44-.15.44-.44.59,0,.89-.29.89-.89,0-.29.15-.66.44-1.11.29-.44.59-.95.89-1.55,1.47-.88,2.21-1.77,2.21-2.65l1.55-1.55c.73-.73,1.55-1.7,2.43-2.88,2.36-2.36,3.54-3.68,3.54-3.98,0-.59.29-.89.89-.89.29-.29.89-.88,1.77-1.77.89-.89,1.77-1.84,2.66-2.88.89-1.03,2.06-2.43,3.54-4.2l.44-.45c.59,0,1.03-.14,1.33-.44.59-.59,2.06-1.77,4.43-3.54,2.06-2.06,3.1-3.24,3.1-3.54l.89-.44c.29,0,.73-.29,1.33-.89,0-.59.29-.89.89-.89.29,0,.73-.14,1.33-.44.59-.29,1.47-1.03,2.66-2.21,1.18-.59,2.36-1.33,3.54-2.22,1.18-.88,2.21-1.62,3.1-2.21,1.47-.59,2.21-1.33,2.21-2.21,0-.29.14-.29.44,0l4.43-1.77c4.13-2.06,8.26-3.1,12.4-3.1,3.83,0,6.93,1.04,9.3,3.1.89.88,1.77,1.04,2.66.44h1.77c0-.29.44,0,1.33.88.89,0,1.62.3,2.21.89l1.77.89.44.44c.29.3.44.59.44.88s.15.6.44.89c.59,1.18.89,2.95.89,5.31-.3,1.77-.52,3.4-.66,4.87-.15,1.48-.52,2.51-1.11,3.1-.3,0-.44.44-.44,1.33,0,.3-.08.52-.22.66-.15.15-.22.38-.22.67-.6,0-1.92,1.92-3.98,5.75-5.02,9.45-10.11,17.71-15.27,24.79-5.17,7.09-11.44,14.47-18.82,22.14-1.77,2.07-4.14,4.5-7.08,7.31-2.95,2.81-5.91,5.53-8.85,8.19-2.95,2.65-5.83,5.16-8.63,7.52-2.81,2.37-4.95,4.14-6.42,5.31-1.48,1.19-2.66,1.85-3.54,1.99-.89.15-.59-.37.89-1.55,2.95-2.36,7.01-5.83,12.17-10.41,5.16-4.57,9.36-8.48,12.62-11.73,1.77-1.77,4.05-4.2,6.86-7.3,2.8-3.1,5.53-6.12,8.19-9.08,2.66-2.95,4.87-5.6,6.64-7.97,1.77-2.36,2.5-3.54,2.21-3.54,0-.29-.22-.14-.66.44-.44.6-.96,1.19-1.55,1.77-1.48,1.77-3.25,3.77-5.31,5.98-2.07,2.21-4.06,4.43-5.98,6.64-1.92,2.21-3.69,4.14-5.31,5.76-1.63,1.62-2.59,2.59-2.88,2.87-.3.3-.89.89-1.77,1.77-.89.88-1.92,1.77-3.1,2.65-2.37,2.66-4.8,5.17-7.3,7.53-2.51,2.37-3.92,3.54-4.21,3.54l-1.77,1.77-3.54,3.54c-.59.6-1.11,1.11-1.55,1.55-.44.44-.82.67-1.11.67-.6.59-1.18.88-1.77.88l-.44.44c0,.3-.15.45-.44.45s-1.04.59-2.21,1.77c-.6.3-1.11.66-1.55,1.1-.44.45-.96.82-1.55,1.11-.59.3-1.04.44-1.33.44s-.44.15-.44.45c.59,0,.15.44-1.33,1.33-1.48.89-2.51,1.33-3.1,1.33s-1.26.45-1.99,1.33c-.74.89-1.11,1.63-1.11,2.21,0,.3-.15.6-.44.89l-1.33,1.33c-1.48,2.07-2.21,3.69-2.21,4.87,0,.88-.44,1.48-1.33,1.77-.3.6-.52,1.26-.66,1.99-.15.74-.37,1.41-.66,1.99,0,1.19-.3,2.07-.89,2.66-.3.3-.44.6-.44.89s-.15.44-.44.44c0,.3-.3.74-.89,1.33-.59.59-.89,1.04-.89,1.33,0,1.19-.15,2.07-.44,2.66-.6,1.48-.74,2.37-.44,2.66,0,.88-.15,1.33-.44,1.33s-.74.6-1.33,1.77c-.6,1.18-.74,1.92-.44,2.21l-.44.44c-.6,0-.74.15-.44.44,0,.3-.3,1.04-.89,2.22-.3.6-.59,1.33-.89,2.21-.3.89-.59,1.63-.89,2.22,0,1.77-.3,2.65-.89,2.65-.3,0-.44.08-.44.22,0,.15.15.22.44.22.89.3,1.03.74.44,1.33-.3.3-.74,1.48-1.33,3.54-.6,2.07-.89,3.4-.89,3.99,0,1.18-.15,2.21-.44,3.1-.59,1.48-.89,3.92-.89,7.3s.29,5.25.89,5.54c.59.3,1.77-.07,3.54-1.11,1.77-1.03,2.66-1.69,2.66-1.99s.15-.44.44-.44,1.03-.29,2.21-.89c1.18-1.17,2.95-2.5,5.31-3.98.89-.89,1.77-1.7,2.66-2.44.89-.73,1.62-1.4,2.21-1.99.59-.59,1.33-1.4,2.21-2.44.89-1.03,2.06-2.14,3.54-3.32,2.66-2.36,5.24-4.72,7.75-7.08,2.51-2.36,5.38-5.16,8.63-8.41,1.47-1.18,2.8-2.36,3.98-3.54,1.17-1.18,2.06-2.06,2.66-2.66,0-.29.29-.73.89-1.33l.44-.44c0-.29.66-1.25,1.99-2.88,1.33-1.62,2.73-3.24,4.21-4.87,1.47-1.62,3.69-3.76,6.64-6.42.29,0,1.03-.59,2.21-1.77,1.18-1.17,1.77-1.62,1.77-1.33h1.33c2.36-.59,3.83.3,4.43,2.66.29.6.37,1.26.22,1.99-.15.74-.96,1.99-2.43,3.76-1.77,2.37-3.25,4.36-4.43,5.98-1.18,1.63-2.51,3.18-3.98,4.65l-1.77,2.66c0,.59-.3.88-.89.88s-1.33.74-2.21,2.21c-.59,1.19-1.55,2.37-2.88,3.54-1.33,1.18-2.29,1.77-2.88,1.77l-.44.88c0,.89-.6,1.92-1.77,3.1-.59.6-1.18,1.26-1.77,1.99-.59.74-1.04,1.26-1.33,1.55-.3.6-.52.89-.66.89s-.08-.15.22-.44c0-.29-.15-.45-.44-.45-.3.3-.44.74-.44,1.33.59,0,.29.6-.89,1.77-1.18,1.19-1.77,1.48-1.77.89s-.3-.73-.89-.44c-.6.59-.6,1.04,0,1.33.59.3.07,1.33-1.55,3.1-1.63,1.77-2.73,2.66-3.32,2.66-.3,0-.44.15-.44.44s-.44.89-1.33,1.77c-.89.6-1.33.74-1.33.45s-.15-.45-.44-.45-.44.3-.44.89c.29.3-.3,1.18-1.77,2.65-1.48,1.48-2.21,2.07-2.21,1.77l-.89.44-.89.88c.59.6.37,1.33-.66,2.22-1.04.88-1.85,1.33-2.43,1.33.29.29-.44,1.03-2.21,2.21l-2.66,2.66c-.3.59-1.33,1.55-3.1,2.87-1.77,1.33-2.66,1.7-2.66,1.11,0-.3-.15-.44-.44-.44s-.44.29-.44.88c.29.89,0,1.18-.89.89-.6,0-.89.14-.89.44l-.44.89c0,.29-.08.51-.22.66-.15.14-.22.07-.22-.22h-.44c-.3,0-.74.29-1.33.88-.89.89-1.63,1.03-2.21.45-.3-.3-.44-.3-.44,0,0,.88-.3,1.03-.89.44h-.44c0,.59-1.63.88-4.87.88-2.95,0-4.72.29-5.31.89-.59,0-1.18-.15-1.77-.44-.89-.89-1.63-1.33-2.21-1.33-.89-.3-2.07-.96-3.54-1.99-1.48-1.04-2.66-2.29-3.54-3.77l-2.21-4.42c-.3-.6-.44-1.33-.44-2.22v-1.77c-.89-1.17-1.77-6.93-2.66-17.26v-4.65c0-.44-.15-.07-.44,1.1-.29,1.48-.29,4.87,0,10.18.3,5.31.74,9.89,1.33,13.72.3,3.83.22,5.38-.22,4.65-.44-.74-.96-3.18-1.55-7.3-.89-5.32-1.33-10.33-1.33-15.05s.3-10.18.89-16.38c.3-.59.44-1.25.44-1.99v-1.99Zm20.81,52.24c.29-.3.59-.44.89-.44l.44.44h-1.33Zm8.85-5.31c-.3,0-.44.14-.44.44s.29.44.89.44c.89,0,1.03-.3.44-.88h-.89Zm3.98-14.61c-2.37,1.77-3.62,2.72-3.76,2.87-.15.15.07.22.66.22.89,0,1.47-.15,1.77-.45.59-.59,1.18-.88,1.77-.88.59-.29,1.33-.81,2.21-1.55.89-.73,1.18-1.25.89-1.55,0-.59.29-.73.89-.44.59,0,.89-.29.89-.89s.29-.89.89-.89c1.17-.59,2.36-1.47,3.54-2.65,1.47-1.47,2.5-2.22,3.1-2.22l.44-.44c0-.59.73-1.62,2.21-3.1.29-.29.51-.59.66-.88.15-.29.37-.59.66-.89l.44-.44c-.89,0-2.07,1.04-3.54,3.1-3.25,2.95-5.76,5.17-7.53,6.64-1.77,1.48-3.84,2.95-6.2,4.43Zm4.87,10.18c.29,0,.59-.15.89-.44v-.45c-.59,0-1.04.15-1.33.45-.59.88-.44,1.03.44.44Zm6.64-5.76l-1.33.45-1.77,1.77c0,.29.51.14,1.55-.45,1.03-.59,1.55-1.18,1.55-1.77Zm10.18-23.02c-.3,0-.96.52-1.99,1.55s-1.55,1.7-1.55,1.99c0,.6.51.38,1.55-.66,1.03-1.03,3.61-3.47,7.75-7.31,5.02-4.72,8.19-7.81,9.52-9.29,1.33-1.47,1.99-2.5,1.99-3.1-.3,0-1.04.44-2.21,1.33-1.18.88-1.77,1.62-1.77,2.21l-2.66,2.66-2.66,2.65c.29,0-.74,1.19-3.1,3.54-.89.6-1.7,1.26-2.43,1.99-.74.74-1.26,1.1-1.55,1.1l-.44.89c0,.6-.15.74-.44.44Zm1.33-66.41l-1.33,1.33c-.3.6-.74,1.04-1.33,1.33.29,0,.89-.44,1.77-1.33.89-.88,1.18-1.33.89-1.33Zm7.53-5.75c-.3,0-.6.15-.89.44-.3.3-.59.52-.89.67-.3.15-.74.52-1.33,1.1-2.07,1.48-3.25,2.37-3.54,2.66-.3.3-.15.44.44.44l3.54-2.66,2.66-2.65Zm-6.64,2.65l1.77-1.77,3.98-3.98c3.83-3.54,8.26-7.97,13.28-13.28,5.02-5.31,9.96-10.63,14.83-15.94,4.87-5.31,9.08-10.18,12.62-14.61,3.54-4.43,5.76-7.53,6.64-9.3.59-1.17,1.47-2.36,2.66-3.54.89-.88,1.62-1.91,2.21-3.1,0-.88.29-1.62.89-2.21,1.18-1.47,1.92-3.02,2.21-4.65.29-1.62.15-2.43-.44-2.43s-1.48.37-2.66,1.1c-1.18.74-2.07,1.55-2.66,2.44-.3.59-.59.96-.89,1.1-.3.15-.44.08-.44-.22s-.37-.07-1.11.67c-.74.74-2.43,2.29-5.09,4.65-2.66,2.66-3.98,4.28-3.98,4.87,0,.3-.3.45-.89.45,0-.29-.15-.29-.44,0,0,.3-.08.52-.22.66-.15.15-.22.08-.22-.22-.59,0-.89.15-.89.44-.3.3-.44.6-.44.89-.3.3-.44.52-.44.66,0,.15-.15.38-.44.67-.59.59-1.48,1.55-2.66,2.87-1.18,1.33-2.51,2.73-3.98,4.21-2.95,3.54-4.43,5.47-4.43,5.76-.6.59-1.18,1.48-1.77,2.65-1.18,1.19-1.77,1.63-1.77,1.33-.3,0-.44.3-.44.89,0,.29-.08.52-.22.66-.15.15-.22.08-.22-.22-.59,0-.89.15-.89.44l-.89,1.77c-.59.6-.89,1.33-.89,2.22,0,.29-.15.44-.44.44-.59-.29-.89-.15-.89.44s-.3.89-.89.89l-.44.44c.59.6-.3,2.07-2.66,4.43-.3.29-.44.59-.44.88s-.15.44-.44.44c.29.3.29.6,0,.89-.3,0-1.33,1.18-3.1,3.54-.6,1.19-1.18,2.07-1.77,2.66-.59.59-.89,1.04-.89,1.33v.88l-2.21,2.22-1.77,2.65c-.3,0-.3.15,0,.44l-.89,1.77c-.3.29-.44.74-.44,1.33,0,.3-.15.45-.44.45s-.52.07-.66.22c-.15.15-.08.22.22.22,0,.6-.3.88-.89.88-.6.6-.74.89-.44.89v.44c-.3,0-.74.89-1.33,2.66l-.89,2.65Zm14.17-10.62l-1.33,1.33c-.59.3-1.18.74-1.77,1.33l-.44.44h.44c.59,0,1.18-.44,1.77-1.33l1.33-1.77Zm20.36-67.74c-.89.89-1.18,1.33-.89,1.33s1.03-.44,2.21-1.33c1.18-1.17,1.62-1.77,1.33-1.77-.59,0-1.48.6-2.66,1.77Zm18.15-8.85c-1.77.3-4.5,1.26-8.19,2.88-3.69,1.62-5.53,2.73-5.53,3.32s.51.59,1.55,0c1.03-.59,1.84-1.18,2.43-1.77.59-.59.89-.74.89-.45h.89c.29,0,1.03-.29,2.21-.88,1.47-.59,2.66-1.03,3.54-1.33.89-.29,1.77-.44,2.66-.44.29,0,.59-.07.89-.22.29-.15.59-.22.89-.22.29-.29.44-.29.44,0,0,.6.44.6,1.33,0,1.47-.29,2.66-.14,3.54.45.29,0,.44-.15.44-.45,0-.88-1.18-1.33-3.54-1.33-2.07,0-3.54.15-4.43.44Z"/>
    <path class="cls-1" d="m513.99,897.42c0-1.47.44-3.39,1.33-5.76,0-.88.3-2.5.89-4.87.6-2.36,1.26-4.79,1.99-7.3.73-2.5,1.47-4.87,2.21-7.09.73-2.21,1.25-3.76,1.55-4.65.59-.59.89-1.18.89-1.77v-.44c-.3,0-.15-.59.44-1.77.59-.88,1.84-3.32,3.76-7.3,1.92-3.99,4.05-8.78,6.42-14.39,5.6-12.69,13.28-26.27,23.02-40.73,2.06-2.66,4.57-5.76,7.53-9.3,2.95-3.54,5.98-7.08,9.08-10.63,3.1-3.54,6.12-6.78,9.08-9.74,2.95-2.95,5.6-5.32,7.97-7.09,2.36-2.06,5.6-4.35,9.74-6.86,4.13-2.5,7.08-4.21,8.85-5.09,1.18-.59,1.99-.73,2.43-.44.44.29-.08.74-1.55,1.33-1.77.89-4.8,2.81-9.08,5.76-4.28,2.95-7.9,5.61-10.85,7.97-4.43,3.54-9.82,8.93-16.16,16.16-6.35,7.23-11.73,13.94-16.16,20.14-2.37,3.25-4.43,6.35-6.2,9.3-1.77,2.95-2.66,4.72-2.66,5.31l-.44.44c-.3,0-1.18,1.33-2.66,3.99-1.48,2.65-3.4,6.2-5.76,10.62l-1.33,2.66c.89-.89,1.77-2.21,2.66-3.98,2.06-3.25,3.76-6.05,5.09-8.41,1.33-2.36,2.28-3.83,2.88-4.42.59-.59,1.33-1.77,2.21-3.54,1.18-1.77,2.21-3.1,3.1-3.98l.89-1.77c0-.29.89-1.62,2.66-3.99,2.06-2.06,3.39-3.68,3.98-4.87l.89-.88c.29,0,.44-.15.44-.44.59,0,.89-.29.89-.89,0-.29.15-.66.44-1.11.29-.44.59-.95.89-1.55,1.47-.88,2.21-1.77,2.21-2.65l1.55-1.55c.73-.73,1.55-1.7,2.43-2.88,2.36-2.36,3.54-3.68,3.54-3.98,0-.59.29-.89.89-.89.29-.29.89-.88,1.77-1.77.89-.89,1.77-1.84,2.66-2.88.89-1.03,2.06-2.43,3.54-4.2l.44-.45c.59,0,1.03-.14,1.33-.44.59-.59,2.06-1.77,4.43-3.54,2.06-2.06,3.1-3.24,3.1-3.54l.89-.44c.29,0,.73-.29,1.33-.89,0-.59.29-.89.89-.89.29,0,.73-.14,1.33-.44.59-.29,1.47-1.03,2.66-2.21,1.18-.59,2.36-1.33,3.54-2.22,1.18-.88,2.21-1.62,3.1-2.21,1.47-.59,2.21-1.33,2.21-2.21,0-.29.14-.29.44,0l4.43-1.77c4.13-2.06,8.26-3.1,12.4-3.1,3.83,0,6.93,1.04,9.3,3.1.89.88,1.77,1.04,2.66.44h1.77c0-.29.44,0,1.33.88.89,0,1.62.3,2.21.89l1.77.89.44.44c.29.3.44.59.44.88s.15.6.44.89c.59,1.18.89,2.95.89,5.31-.3,1.77-.52,3.4-.66,4.87-.15,1.48-.52,2.51-1.11,3.1-.3,0-.44.44-.44,1.33,0,.3-.08.52-.22.66-.15.15-.22.38-.22.67-.6,0-1.92,1.92-3.98,5.75-5.02,9.45-10.11,17.71-15.27,24.79-5.17,7.09-11.44,14.47-18.82,22.14-1.77,2.07-4.14,4.5-7.08,7.31-2.95,2.81-5.91,5.53-8.85,8.19-2.95,2.65-5.83,5.16-8.63,7.52-2.81,2.37-4.95,4.14-6.42,5.31-1.48,1.19-2.66,1.85-3.54,1.99-.89.15-.59-.37.89-1.55,2.95-2.36,7.01-5.83,12.17-10.41,5.16-4.57,9.36-8.48,12.62-11.73,1.77-1.77,4.05-4.2,6.86-7.3,2.8-3.1,5.53-6.12,8.19-9.08,2.66-2.95,4.87-5.6,6.64-7.97,1.77-2.36,2.5-3.54,2.21-3.54,0-.29-.22-.14-.66.44-.44.6-.96,1.19-1.55,1.77-1.48,1.77-3.25,3.77-5.31,5.98-2.07,2.21-4.06,4.43-5.98,6.64-1.92,2.21-3.69,4.14-5.31,5.76-1.63,1.62-2.59,2.59-2.88,2.87-.3.3-.89.89-1.77,1.77-.89.88-1.92,1.77-3.1,2.65-2.37,2.66-4.8,5.17-7.3,7.53-2.51,2.37-3.92,3.54-4.21,3.54l-1.77,1.77-3.54,3.54c-.59.6-1.11,1.11-1.55,1.55-.44.44-.82.67-1.11.67-.6.59-1.18.88-1.77.88l-.44.44c0,.3-.15.45-.44.45s-1.04.59-2.21,1.77c-.6.3-1.11.66-1.55,1.1-.44.45-.96.82-1.55,1.11-.59.3-1.04.44-1.33.44s-.44.15-.44.45c.59,0,.15.44-1.33,1.33-1.48.89-2.51,1.33-3.1,1.33s-1.26.45-1.99,1.33c-.74.89-1.11,1.63-1.11,2.21,0,.3-.15.6-.44.89l-1.33,1.33c-1.48,2.07-2.21,3.69-2.21,4.87,0,.88-.44,1.48-1.33,1.77-.3.6-.52,1.26-.66,1.99-.15.74-.37,1.41-.66,1.99,0,1.19-.3,2.07-.89,2.66-.3.3-.44.6-.44.89s-.15.44-.44.44c0,.3-.3.74-.89,1.33-.59.59-.89,1.04-.89,1.33,0,1.19-.15,2.07-.44,2.66-.6,1.48-.74,2.37-.44,2.66,0,.88-.15,1.33-.44,1.33s-.74.6-1.33,1.77c-.6,1.18-.74,1.92-.44,2.21l-.44.44c-.6,0-.74.15-.44.44,0,.3-.3,1.04-.89,2.22-.3.6-.59,1.33-.89,2.21-.3.89-.59,1.63-.89,2.22,0,1.77-.3,2.65-.89,2.65-.3,0-.44.08-.44.22,0,.15.15.22.44.22.89.3,1.03.74.44,1.33-.3.3-.74,1.48-1.33,3.54-.6,2.07-.89,3.4-.89,3.99,0,1.18-.15,2.21-.44,3.1-.59,1.48-.89,3.92-.89,7.3s.29,5.25.89,5.54c.59.3,1.77-.07,3.54-1.11,1.77-1.03,2.66-1.69,2.66-1.99s.15-.44.44-.44,1.03-.29,2.21-.89c1.18-1.17,2.95-2.5,5.31-3.98.89-.89,1.77-1.7,2.66-2.44.89-.73,1.62-1.4,2.21-1.99.59-.59,1.33-1.4,2.21-2.44.89-1.03,2.06-2.14,3.54-3.32,2.66-2.36,5.24-4.72,7.75-7.08,2.51-2.36,5.38-5.16,8.63-8.41,1.47-1.18,2.8-2.36,3.98-3.54,1.17-1.18,2.06-2.06,2.66-2.66,0-.29.29-.73.89-1.33l.44-.44c0-.29.66-1.25,1.99-2.88,1.33-1.62,2.73-3.24,4.21-4.87,1.47-1.62,3.69-3.76,6.64-6.42.29,0,1.03-.59,2.21-1.77,1.18-1.17,1.77-1.62,1.77-1.33h1.33c2.36-.59,3.83.3,4.43,2.66.29.6.37,1.26.22,1.99-.15.74-.96,1.99-2.43,3.76-1.77,2.37-3.25,4.36-4.43,5.98-1.18,1.63-2.51,3.18-3.98,4.65l-1.77,2.66c0,.59-.3.88-.89.88s-1.33.74-2.21,2.21c-.59,1.19-1.55,2.37-2.88,3.54-1.33,1.18-2.29,1.77-2.88,1.77l-.44.88c0,.89-.6,1.92-1.77,3.1-.59.6-1.18,1.26-1.77,1.99-.59.74-1.04,1.26-1.33,1.55-.3.6-.52.89-.66.89s-.08-.15.22-.44c0-.29-.15-.45-.44-.45-.3.3-.44.74-.44,1.33.59,0,.29.6-.89,1.77-1.18,1.19-1.77,1.48-1.77.89s-.3-.73-.89-.44c-.6.59-.6,1.04,0,1.33.59.3.07,1.33-1.55,3.1-1.63,1.77-2.73,2.66-3.32,2.66-.3,0-.44.15-.44.44s-.44.89-1.33,1.77c-.89.6-1.33.74-1.33.45s-.15-.45-.44-.45-.44.3-.44.89c.29.3-.3,1.18-1.77,2.65-1.48,1.48-2.21,2.07-2.21,1.77l-.89.44-.89.88c.59.6.37,1.33-.66,2.22-1.04.88-1.85,1.33-2.43,1.33.29.29-.44,1.03-2.21,2.21l-2.66,2.66c-.3.59-1.33,1.55-3.1,2.87s-2.66,1.7-2.66,1.11c0-.3-.15-.44-.44-.44s-.44.29-.44.88c.29.89,0,1.18-.89.89-.6,0-.89.14-.89.44l-.44.89c0,.29-.08.51-.22.66-.15.14-.22.07-.22-.22h-.44c-.3,0-.74.29-1.33.88-.89.89-1.63,1.03-2.21.45-.3-.3-.44-.3-.44,0,0,.88-.3,1.03-.89.44h-.44c0,.59-1.63.88-4.87.88-2.95,0-4.72.29-5.31.89-.59,0-1.18-.15-1.77-.44-.89-.89-1.63-1.33-2.21-1.33-.89-.3-2.07-.96-3.54-1.99-1.48-1.04-2.66-2.29-3.54-3.77l-2.21-4.42c-.3-.6-.44-1.33-.44-2.22v-1.77c-.89-1.17-1.77-6.93-2.66-17.26v-4.65c0-.44-.15-.07-.44,1.1-.29,1.48-.29,4.87,0,10.18.3,5.31.74,9.89,1.33,13.72.3,3.83.22,5.38-.22,4.65-.44-.74-.96-3.18-1.55-7.3-.89-5.32-1.33-10.33-1.33-15.05s.3-10.18.89-16.38c.3-.59.44-1.25.44-1.99v-1.99Zm20.81,52.24c.29-.3.59-.44.89-.44l.44.44h-1.33Zm8.85-5.31c-.3,0-.44.14-.44.44s.29.44.89.44c.89,0,1.03-.3.44-.88h-.89Zm3.98-14.61c-2.37,1.77-3.62,2.72-3.76,2.87-.15.15.07.22.66.22.89,0,1.47-.15,1.77-.45.59-.59,1.18-.88,1.77-.88.59-.29,1.33-.81,2.21-1.55.89-.73,1.18-1.25.89-1.55,0-.59.29-.73.89-.44.59,0,.89-.29.89-.89s.29-.89.89-.89c1.17-.59,2.36-1.47,3.54-2.65,1.47-1.47,2.5-2.22,3.1-2.22l.44-.44c0-.59.73-1.62,2.21-3.1.29-.29.51-.59.66-.88.15-.29.37-.59.66-.89l.44-.44c-.89,0-2.07,1.04-3.54,3.1-3.25,2.95-5.76,5.17-7.53,6.64-1.77,1.48-3.84,2.95-6.2,4.43Zm4.87,10.18c.29,0,.59-.15.89-.44v-.45c-.59,0-1.04.15-1.33.45-.59.88-.44,1.03.44.44Zm6.64-5.76l-1.33.45-1.77,1.77c0,.29.51.14,1.55-.45,1.03-.59,1.55-1.18,1.55-1.77Zm10.18-23.02c-.3,0-.96.52-1.99,1.55s-1.55,1.7-1.55,1.99c0,.6.51.38,1.55-.66,1.03-1.03,3.61-3.47,7.75-7.31,5.02-4.72,8.19-7.81,9.52-9.29,1.33-1.47,1.99-2.5,1.99-3.1-.3,0-1.04.44-2.21,1.33-1.18.88-1.77,1.62-1.77,2.21l-2.66,2.66-2.66,2.65c.29,0-.74,1.19-3.1,3.54-.89.6-1.7,1.26-2.43,1.99-.74.74-1.26,1.1-1.55,1.1l-.44.89c0,.6-.15.74-.44.44Zm1.33-66.41l-1.33,1.33c-.3.6-.74,1.04-1.33,1.33.29,0,.89-.44,1.77-1.33.89-.88,1.18-1.33.89-1.33Zm7.53-5.75c-.3,0-.6.15-.89.44-.3.3-.59.52-.89.67-.3.15-.74.52-1.33,1.1-2.07,1.48-3.25,2.37-3.54,2.66-.3.3-.15.44.44.44l3.54-2.66,2.66-2.65Zm-6.64,2.65l1.77-1.77,3.98-3.98c3.83-3.54,8.26-7.97,13.28-13.28,5.02-5.31,9.96-10.63,14.83-15.94s9.08-10.18,12.62-14.61c3.54-4.43,5.76-7.53,6.64-9.3.59-1.17,1.47-2.36,2.66-3.54.89-.88,1.62-1.91,2.21-3.1,0-.88.29-1.62.89-2.21,1.18-1.47,1.92-3.02,2.21-4.65.29-1.62.15-2.43-.44-2.43s-1.48.37-2.66,1.1c-1.18.74-2.07,1.55-2.66,2.44-.3.59-.59.96-.89,1.1-.3.15-.44.08-.44-.22s-.37-.07-1.11.67c-.74.74-2.43,2.29-5.09,4.65-2.66,2.66-3.98,4.28-3.98,4.87,0,.3-.3.45-.89.45,0-.29-.15-.29-.44,0,0,.3-.08.52-.22.66-.15.15-.22.08-.22-.22-.59,0-.89.15-.89.44-.3.3-.44.6-.44.89-.3.3-.44.52-.44.66,0,.15-.15.38-.44.67-.59.59-1.48,1.55-2.66,2.87-1.18,1.33-2.51,2.73-3.98,4.21-2.95,3.54-4.43,5.47-4.43,5.76-.6.59-1.18,1.48-1.77,2.65-1.18,1.19-1.77,1.63-1.77,1.33-.3,0-.44.3-.44.89,0,.29-.08.52-.22.66-.15.15-.22.08-.22-.22-.59,0-.89.15-.89.44l-.89,1.77c-.59.6-.89,1.33-.89,2.22,0,.29-.15.44-.44.44-.59-.29-.89-.15-.89.44s-.3.89-.89.89l-.44.44c.59.6-.3,2.07-2.66,4.43-.3.29-.44.59-.44.88s-.15.44-.44.44c.29.3.29.6,0,.89-.3,0-1.33,1.18-3.1,3.54-.6,1.19-1.18,2.07-1.77,2.66-.59.59-.89,1.04-.89,1.33v.88l-2.21,2.22-1.77,2.65c-.3,0-.3.15,0,.44l-.89,1.77c-.3.29-.44.74-.44,1.33,0,.3-.15.45-.44.45s-.52.07-.66.22c-.15.15-.08.22.22.22,0,.6-.3.88-.89.88-.6.6-.74.89-.44.89v.44c-.3,0-.74.89-1.33,2.66l-.89,2.65Zm14.17-10.62l-1.33,1.33c-.59.3-1.18.74-1.77,1.33l-.44.44h.44c.59,0,1.18-.44,1.77-1.33l1.33-1.77Zm20.36-67.74c-.89.89-1.18,1.33-.89,1.33s1.03-.44,2.21-1.33c1.18-1.17,1.62-1.77,1.33-1.77-.59,0-1.48.6-2.66,1.77Zm18.15-8.85c-1.77.3-4.5,1.26-8.19,2.88-3.69,1.62-5.53,2.73-5.53,3.32s.51.59,1.55,0c1.03-.59,1.84-1.18,2.43-1.77.59-.59.89-.74.89-.45h.89c.29,0,1.03-.29,2.21-.88,1.47-.59,2.66-1.03,3.54-1.33.89-.29,1.77-.44,2.66-.44.29,0,.59-.07.89-.22.29-.15.59-.22.89-.22.29-.29.44-.29.44,0,0,.6.44.6,1.33,0,1.47-.29,2.66-.14,3.54.45.29,0,.44-.15.44-.45,0-.88-1.18-1.33-3.54-1.33-2.07,0-3.54.15-4.43.44Z"/>
    <path class="cls-1" d="m619.35,935.93c0,.29-.15.45-.44.45h-2.66c-.3,0-.44-.15-.44-.45s-.44-.29-1.33,0l-1.33,1.33c.29.29.29.45,0,.45l-.44-.45c-.3-.3-.15-.74.44-1.33,0-.29-.15-.44-.44-.44s-.44.15-.44.44-.3.45-.89.45v-.45c0-.59-.3-.88-.89-.88-.3-.3-.44-.38-.44-.22,0,.14.15.36.44.66,0,.29-.3.29-.89,0-.3-.88-1.48-1.63-3.54-2.21-1.18-.6-1.77-1.03-1.77-1.33s-.44-.44-1.33-.44c-.3,0-.52-.07-.66-.22-.15-.15-.08-.22.22-.22.29-.29.22-.73-.22-1.33-.44-.59-.96-.89-1.55-.89s-.89-.29-.89-.88-.15-.89-.44-.89c-.59,0-1.04-.44-1.33-1.33-1.48-4.13-2.37-6.2-2.66-6.2s-.44-.29-.44-.88v-.89c-.29,0-.44-.59-.44-1.77s-.14-1.91-.44-2.21c-.29,0-.51-.07-.66-.22-.15-.15-.07-.22.22-.22.6,0,.96-.67,1.11-1.99.15-1.33-.07-2.14-.66-2.43-.59-.89-.44-1.18.44-.89.3,0,.3-.14,0-.44-.59-.59-.59-1.33,0-2.21.89-.89.89-1.33,0-1.33,0-.59.15-1.03.44-1.33v-5.76c0-2.06.29-3.98.89-5.75.59-1.17.59-1.77,0-1.77-.3,0-.44-.29-.44-.89.29-.29.29-.59,0-.88-.3,0-.3-.15,0-.44,0-.59.29-.59.89,0h.44c-.3-.29-.15-1.18.44-2.66.29-.59.44-1.47.44-2.66l.44-.44c.29,0,.44-.14.44-.44-.3-.29,0-1.18.89-2.66.59-1.47.73-2.36.44-2.66-.3,0-.44.15-.44.45v.88c-.59.3-1.55,2.29-2.88,5.98-1.33,3.7-2.28,6.86-2.88,9.52-.89,3.25-1.47,6.94-1.77,11.07-.29,4.13-.29,7.52,0,10.18.6,2.37,1.26,4.95,1.99,7.75.74,2.81,1.25,4.06,1.55,3.76.29-.29.44-.29.44,0-.59.6-.3,1.92.89,3.98.89,2.07,1.4,3.25,1.55,3.54.15.29-.08.44-.66.44-.3,0-1.11-1.4-2.43-4.21-1.33-2.8-2.28-5.38-2.88-7.75-2.06-5.6-2.8-12.17-2.21-19.7.59-7.52,2.51-14.83,5.76-21.91,2.36-5.02,5.31-10.41,8.85-16.16,3.54-5.76,6.64-10.25,9.3-13.5.29-.59.89-1.33,1.77-2.22l.89-.88,1.33-1.33,3.1-3.1c2.66-2.66,4.79-4.43,6.42-5.31,1.62-.89,2.88-1.33,3.76-1.33,3.54.6,6.12,1.04,7.75,1.33,1.62.3,2.88.74,3.76,1.33.89.29,1.77.37,2.66.22.89-.15,1.33-.51,1.33-1.11,0-.29.15-.29.44,0,.29,0,.44.08.44.22,0,.15.29.22.89.22.29,0,.59.15.89.45.29.29.59.44.89.44,0,.3.07.52.22.66.15.15.22.08.22-.22s.07-.44.22-.44.22.15.22.44c.59,1.19.89,1.19.89,0,1.47-2.66,2.8-3.83,3.98-3.54.29,0,1.18.44,2.66,1.33.29.59.59,1.04.89,1.33.29.29.44.29.44,0-.3-.29.07-.67,1.11-1.11,1.03-.44,1.99-.67,2.88-.67.59,0,1.62.74,3.1,2.22,1.47,1.48,2.5,2.95,3.1,4.43,1.77,3.25,2.95,6.13,3.54,8.63.59,2.51.89,5.83.89,9.96-.3,1.48-.52,2.88-.66,4.21-.15,1.33-.22,2.14-.22,2.43-.3.6.81,1.41,3.32,2.44,2.5,1.04,4.35,1.55,5.53,1.55,5.02.29,8.41.29,10.18,0,1.77-.29,3.54-.74,5.31-1.33.59-.29,1.03-.59,1.33-.89.29-.29.73-.59,1.33-.88.59-.29,1.03-.45,1.33-.45s.51.15.66.45c.15.29.51.59,1.11.88l1.33,1.33-1.33-.44c-1.77,0-3.1.3-3.98.88-2.37,1.19-2.95,1.77-1.77,1.77.89,0,1.62-.29,2.21-.88,1.77-.59,2.8-.89,3.1-.89.89,0,1.92-.29,3.1-.88,2.66-1.77,3.98-1.48,3.98.88,0,.89-.52,1.99-1.55,3.32-1.04,1.33-1.85,1.99-2.43,1.99s-.89.29-.89.88-.59,1.18-1.77,1.77c-.89.6-1.48.6-1.77,0-.6-.59-.89-.44-.89.44,0,.6-.3.89-.89.89-.89,0-1.4.08-1.55.22-.15.15-.38.38-.66.67-2.37.29-4.21.44-5.53.44h-4.65c0-.29-1.04-.44-3.1-.44s-2.95.15-2.66.44l-.44.44c-.3,0-.44-.14-.44-.44s-.74-.44-2.21-.44c-.59,0-1.11-.07-1.55-.22-.44-.14-.82-.22-1.11-.22-.3-.59-.52-.81-.66-.66-.15.15-.08.37.22.66.29.6.29.74,0,.45-.6-.59-1.48-.89-2.66-.89-.59-.29-.96-.29-1.11,0-.15.3-.37,1.18-.66,2.66-.59,2.07-1.55,5.09-2.88,9.07-1.33,3.99-2.73,7.31-4.21,9.96-1.48,3.25-3.47,6.5-5.98,9.74-2.51,3.25-5.39,6.79-8.63,10.63-4.14,5.31-6.2,7.38-6.2,6.2.59-.59,1.18-1.33,1.77-2.22.89-1.17,2.21-2.95,3.98-5.31,5.02-5.9,8.78-10.85,11.29-14.83,2.5-3.99,4.5-8.19,5.98-12.62.89-2.66,1.47-4.27,1.77-4.87.29-.59.15-.88-.44-.88-.3,0-.52.07-.66.22-.15.15-.08.22.22.22,0,.6-.74,2.37-2.21,5.31-.59.6-.96,1.19-1.11,1.77-.15.6-.37,1.19-.66,1.77-.3.6-.44,1.19-.44,1.77,0,.3-.15.45-.44.45s-.44.3-.44.88-.3.89-.89.89c0,.3-.15.59-.44.88-.59.6-.89,1.04-.89,1.33-.59,1.48-1.18,2.51-1.77,3.1-.3.3-.82.89-1.55,1.77-.74.89-1.55,1.92-2.43,3.1-.59.6-1.04,1.11-1.33,1.55-.3.44-.59.96-.89,1.55-.3.6-.59,1.04-.89,1.33-.3,0-.74.59-1.33,1.77-.59.88-1.04,1.33-1.33,1.33s-.74.29-1.33.88c-.59.6-.59.74,0,.44,1.18-.59,1.03-.14-.44,1.33-1.18,1.19-1.77,1.63-1.77,1.33-.59,0-1.04.44-1.33,1.33-.3.6-.66,1.18-1.11,1.77-.44.6-.96,1.18-1.55,1.77-1.77,1.18-2.66,1.92-2.66,2.21-.59.6-1.4,1.19-2.43,1.77-1.04.59-1.7.73-1.99.44v.44l-.89.44c-.3,0-1.04.29-2.21.89-1.18.88-1.92.88-2.21,0,0-1.19-.3-1.19-.89,0-.59.59-1.48.88-2.66.88-.59,0-1.04.07-1.33.22-.3.14-.74.22-1.33.22s-.89-.15-.89-.45h-.44c-.3,0-.44-.07-.44-.22s-.15-.22-.44-.22c-.59,0-.89.15-.89.44Zm-26.12-23.9v-.45c0-.29.3-.44.89-.44v.44c-.29.3-.59.45-.89.45Zm.89-15.94c-.29.88-.44,1.04-.44.44l.44-.88v.44Zm6.2-21.69c.29,0,.51-.15.66-.45.15-.29.07-.44-.22-.44s-.44.3-.44.89Zm15.94,62.86c.29.29,0,.45-.89.45-.3,0-.3-.15,0-.45h.89Zm3.1-25.68c-.3,2.07-.22,3.62.22,4.65.44,1.04,1.4,2.15,2.88,3.32,1.18,1.19,2.14,1.7,2.88,1.55.73-.14,1.99-.81,3.76-1.99,2.36-1.77,4.87-3.76,7.53-5.98,2.66-2.21,5.16-4.94,7.53-8.19,2.95-3.83,4.94-6.49,5.98-7.97,1.03-1.47,2.28-3.98,3.76-7.52,2.36-4.13,3.83-6.86,4.43-8.19.59-1.33.73-2.28.44-2.88.59.3,1.03-.29,1.33-1.77.29-1.47.15-2.5-.44-3.1-.3-.59-.44-.73-.44-.44-.3.59-1.26-.59-2.88-3.54-1.63-2.95-2.59-5.02-2.88-6.2,0-.29-.08-.59-.22-.89-.15-.29-.22-.59-.22-.88-.3-.29-.44-.59-.44-.89-.3,0-.44-.59-.44-1.77s-.3-1.77-.89-1.77l-1.77.89c-1.48,1.18-3.4,3.25-5.76,6.2-2.37,2.96-4.87,6.35-7.53,10.18-2.66,3.84-5.17,7.82-7.53,11.95-2.36,4.14-4.28,7.82-5.76,11.07-.59,1.77-1.26,4.14-1.99,7.08-.74,2.96-1.26,5.31-1.55,7.08Zm3.1-63.3c-.6,0-1.18.52-1.77,1.55-.6,1.03-.6,1.55,0,1.55l.44-.44c0-.59.59-1.17,1.77-1.77,1.18-.59,1.77-1.17,1.77-1.77s.15-.73.44-.44c.29,0,.59-.15.89-.45.29-.59,1.33-1.4,3.1-2.43,1.77-1.03,2.95-1.4,3.54-1.11.89,0,1.33-.14,1.33-.44s.15-.44.44-.44c.29.3.73.15,1.33-.45.29,0,.44-.07.44-.22,0-.14.14-.22.44-.22h.44c0,.6.15.74.44.44.29-.29.89-.44,1.77-.44.59,0,.89-.14.89-.44,0-.89-.59-1.03-1.77-.44-.59.59-1.04.44-1.33-.45h-.44l-.44.45c-.6.59-.89.74-.89.44l-.89-.44c-.3,0-.3.15,0,.44,0,.3-.3.3-.89,0-1.18-.29-2.21-.14-3.1.44-.6.6-1.48,1.33-2.66,2.22-1.18.88-1.77,1.48-1.77,1.77s-.52.88-1.55,1.77c-1.04.88-1.7,1.33-1.99,1.33Zm0,89.43c-.3.29-.74.51-1.33.66-.59.14-.89.07-.89-.22h.44c.29,0,.44-.08.44-.22,0-.15.15-.22.44-.22h.89Zm7.08-56.67c.59-.59.73-.89.44-.89h-.44c-.3,0-.44.15-.44.44s-.08.6-.22.89c-.15.3-.22.6-.22.89-.3.59-.37.81-.22.66.15-.15.51-.81,1.11-1.99Zm10.62,33.2c1.18-.88,2.21-1.84,3.1-2.88.89-1.03,1.18-1.55.89-1.55,0-.29-.15-.29-.44,0-.3,0-.6.15-.89.45,0,.29-.44.88-1.33,1.77-.89.88-1.85,1.85-2.88,2.88-1.04,1.03-2.15,2.07-3.32,3.1-1.18,1.04-2.07,1.7-2.66,1.99-.59.29-1.18.74-1.77,1.33l-.44.45c0,.59,1.03.3,3.1-.89.89-.59,1.18-1.03.89-1.33l.89-.88c.89,0,1.62-.59,2.21-1.77.29-.59.66-1.03,1.11-1.33.44-.29.95-.73,1.55-1.33Zm2.21-55.78c0,.59-.44,1.48-1.33,2.65-1.18,1.19-1.63,1.77-1.33,1.77l-.44.44-1.77,2.65-1.77,2.66c-.3,0-.44.15-.44.44v.89c0,.6-.15.88-.44.88-.3-.29-.44,0-.44.89-.3.3-.52.6-.66.89-.15.29-.37.59-.66.88-.6.6-.89,1.18-.89,1.77s-.15.89-.44.89c-.59.59-.89,1.18-.89,1.77-.3.59,0,.3.89-.89.89-1.17,2.06-2.8,3.54-4.87,1.47-1.77,3.17-3.83,5.09-6.2,1.92-2.36,3.76-4.27,5.53-5.75,3.54-3.83,5.16-6.04,4.87-6.64,0-.59-.08-1.11-.22-1.55-.15-.44-.22-.81-.22-1.11v-.88c-.59,0-1.04.44-1.33,1.33-.59.6-1.26,1.33-1.99,2.22-.74.88-1.4,1.62-1.99,2.21l-2.66,2.66Zm-8.41,74.38c.29-.3.44-.59.44-.89h-.44c-.3,0-.59.15-.89.44-.3.29,0,.45.89.45Zm6.64-4.87c.29,0,.59-.15.89-.45v-.44l-2.66,1.33c-.59.59-1.04.88-1.33.88h-.44c0,.89,1.18.45,3.54-1.33Zm0-87.22c0,.3.29.44.89.44.29-.29.44-.59.44-.88s-.15-.45-.44-.45l-.89.89Zm6.64,64.64l-.44.44c-.6.6-.89,1.04-.89,1.33-.89.88-1.18,1.33-.89,1.33l.44-.45.89-.88.89-1.77Zm48.7-24.35c-1.77.59-1.77.88,0,.88.59,0,.96-.07,1.11-.22.15-.14.07-.22-.22-.22,0-.29-.15-.44-.44-.44h-.44Z"/>
  </g>
  <g>
    <path class="cls-2" d="m811.1,812.24l19.02,82.39h2.43l17.74-82.39h53.49l17.73,82.39h2.43l19.02-82.39h40.19l-33.47,120.15h-52.06l-18.88-82.39h-3.43l-18.88,82.39h-52.06l-33.47-120.15h40.19Z"/>
    <path class="cls-2" d="m991.75,812.24h113.42v30.04h-75.66v15.45h62.79v26.61h-62.79v18.02h75.66v30.04h-113.42v-120.15Z"/>
    <path class="cls-2" d="m1119.18,812.24h80.96c27.46,0,41.48,10.3,41.48,30.75,0,14.3-6.86,23.6-21.31,28.18,16.31,4.29,24.46,14.3,24.46,30.04,0,18.88-11.58,31.18-40.62,31.18h-84.96v-120.15Zm70.23,48.78c10.73,0,14.45-3.29,14.45-9.87s-4.01-9.73-14.45-9.73h-32.47v19.6h32.47Zm3.86,42.19c9.87,0,13.73-3.58,13.73-9.73,0-6.58-3.72-9.87-13.73-9.87h-36.33v19.6h36.33Z"/>
    <path class="cls-2" d="m1316.43,810.52c39.77,0,61.65,14.88,61.65,42.19h-38.33c0-9.87-10.3-14.73-25.03-14.73s-21.88,4.58-21.88,11.3c0,7.3,10.01,8.73,21.88,9.59,27.61,2.15,65.37,1.43,65.37,33.18,0,28.18-21.88,42.05-62.36,42.05-42.48,0-64.37-15.3-64.37-42.77h38.48c0,10.15,9.59,15.3,28.32,15.3,14.88,0,21.88-3.29,21.88-9.87,0-8.73-12.16-10.01-27.89-11.02-25.03-1.57-59.22-2.43-59.22-36.04,0-24.89,22.46-39.19,61.5-39.19Z"/>
    <path class="cls-2" d="m1392.94,812.24h37.76v120.15h-37.76v-120.15Z"/>
    <path class="cls-2" d="m1491.06,843.14h-50.35v-30.9h138.32v30.9h-50.21v89.25h-37.76v-89.25Z"/>
    <path class="cls-2" d="m1589.04,812.24h113.43v30.04h-75.67v15.45h62.79v26.61h-62.79v18.02h75.67v30.04h-113.43v-120.15Z"/>
  </g>
</svg>